<?xml version="1.0" encoding="UTF-8"?>
<svg xmlns="http://www.w3.org/2000/svg" width="512" height="512" xmlns:xlink="http://www.w3.org/1999/xlink" viewBox="0 0 512 512">
  <defs>
    <linearGradient id="d" x1="88.678" y1="-48.847" x2="558.243" y2="431.675" gradientUnits="userSpaceOnUse">
      <stop offset="0" stop-color="#fb00ff"/>
      <stop offset="1" stop-color="#741cff"/>
    </linearGradient>
    <linearGradient id="e" x1="131.549" y1="-90.74" x2="601.114" y2="389.782" xlink:href="#d"/>
    <linearGradient id="f" x1="-80.965" y1="116.929" x2="388.6" y2="597.45" xlink:href="#d"/>
    <linearGradient id="g" x1="-12.333" y1="49.861" x2="457.232" y2="530.383" xlink:href="#d"/>
    <linearGradient id="h" x1="18.929" y1="19.312" x2="488.495" y2="499.833" xlink:href="#d"/>
    <linearGradient id="i" x1="-65.132" y1="101.456" x2="404.434" y2="581.978" xlink:href="#d"/>
    <linearGradient id="j" x1="-129.311" y1="164.172" x2="340.254" y2="644.694" xlink:href="#d"/>
    <linearGradient id="k" x1="161.972" y1="-120.47" x2="631.538" y2="360.052" xlink:href="#d"/>
    <linearGradient id="l" x1="177.382" y1="-135.528" x2="646.947" y2="344.994" xlink:href="#d"/>
    <linearGradient id="m" x1="-10.119" y1="47.698" x2="459.446" y2="528.22" xlink:href="#d"/>
    <linearGradient id="n" x1="-117.994" y1="153.113" x2="351.571" y2="633.635" xlink:href="#d"/>
    <linearGradient id="o" x1="-80.892" y1="116.857" x2="388.673" y2="597.379" xlink:href="#d"/>
    <linearGradient id="r" x1="100.856" y1="-60.747" x2="570.421" y2="419.775" xlink:href="#d"/>
    <linearGradient id="s" x1="121.15" y1="-80.579" x2="590.716" y2="399.943" xlink:href="#d"/>
    <linearGradient id="u" x1="-56.968" y1="93.478" x2="412.597" y2="574" xlink:href="#d"/>
    <linearGradient id="w" x1="-79.874" y1="115.863" x2="389.691" y2="596.385" xlink:href="#d"/>
    <linearGradient id="x" x1="-95.437" y1="131.07" x2="374.129" y2="611.592" xlink:href="#d"/>
    <linearGradient id="y" x1="-95.96" y1="131.582" x2="373.605" y2="612.103" xlink:href="#d"/>
    <linearGradient id="z" x1="-77.266" y1="113.314" x2="392.299" y2="593.835" xlink:href="#d"/>
    <linearGradient id="ab" x1="139.884" y1="-98.885" x2="609.45" y2="381.636" xlink:href="#d"/>
    <linearGradient id="ad" x1="36.618" y1="2.027" x2="506.183" y2="482.548" xlink:href="#d"/>
    <linearGradient id="af" x1="59.147" y1="-19.989" x2="528.712" y2="460.533" xlink:href="#d"/>
    <linearGradient id="ag" x1="-15.412" y1="52.87" x2="454.154" y2="533.391" xlink:href="#d"/>
  </defs>
  <g id="c" data-name="CIRCLE LINES">
    <path d="m430.08,185.045c-1.579,0-3.075-.941-3.707-2.495-28.305-69.656-95.18-114.665-170.373-114.665-50.915,0-98.269,20.343-133.337,57.282-1.522,1.601-4.053,1.668-5.655.147-1.603-1.521-1.668-4.054-.147-5.655,17.738-18.685,38.644-33.384,62.136-43.691,24.321-10.672,50.229-16.083,77.004-16.083,38.916,0,76.386,11.589,108.357,33.514,31.221,21.409,55.228,51.195,69.428,86.14.831,2.047-.153,4.38-2.2,5.212-.493.2-1.003.295-1.505.295Z" fill="url(#d)" stroke-width="0"/>
    <path d="m374.706,151.594c-1.359,0-2.684-.693-3.434-1.943-9.266-15.444-28.231-35.592-65.972-43.87-2.157-.474-3.523-2.606-3.05-4.765.474-2.157,2.61-3.52,4.765-3.05,40.525,8.89,61.042,30.775,71.116,47.569,1.137,1.895.522,4.352-1.372,5.487-.645.387-1.354.571-2.054.571Z" fill="url(#e)" stroke-width="0"/>
    <path d="m215.153,439.083c-.287,0-.578-.031-.87-.096-41.932-9.3-80.024-32.89-107.261-66.424-27.631-34.021-42.849-76.94-42.849-120.853,0-12.747,1.259-25.494,3.741-37.886.434-2.166,2.538-3.576,4.707-3.137,2.167.434,3.571,2.541,3.137,4.707-2.379,11.877-3.585,24.095-3.585,36.315,0,85.504,60.494,160.98,143.842,179.466,2.156.479,3.518,2.614,3.039,4.771-.414,1.865-2.067,3.135-3.901,3.135Z" fill="url(#f)" stroke-width="0"/>
    <path d="m296.846,439.083c-1.834,0-3.487-1.27-3.901-3.135-.479-2.157.883-4.293,3.039-4.771,32.414-7.188,62.347-23.141,86.562-46.131,1.603-1.522,4.135-1.455,5.654.146,1.521,1.602,1.456,4.134-.146,5.654-25.269,23.99-56.507,40.637-90.338,48.141-.292.064-.583.096-.87.096Z" fill="url(#g)" stroke-width="0"/>
    <g>
      <path d="m97.898,110.789c-.967,0-1.936-.349-2.704-1.054-1.628-1.494-1.735-4.024-.241-5.651,2.135-2.325,4.345-4.631,6.567-6.854,1.562-1.562,4.095-1.561,5.657,0,1.562,1.562,1.562,4.096,0,5.657-2.143,2.142-4.272,4.364-6.331,6.605-.788.859-1.866,1.295-2.947,1.295Z" fill="url(#h)" stroke-width="0"/>
      <path d="m84.29,384.251c-1.216,0-2.416-.552-3.202-1.599-28.099-37.438-43.157-82.086-43.548-129.116-.391-46.977,13.884-91.822,41.278-129.688,1.295-1.789,3.797-2.19,5.586-.896,1.79,1.295,2.191,3.796.896,5.586-53.443,73.87-52.545,176.392,2.186,249.312,1.326,1.768.969,4.274-.798,5.601-.72.54-1.562.801-2.398.801Z" fill="url(#i)" stroke-width="0"/>
      <path d="m104.349,407.361c-1.023,0-2.047-.391-2.828-1.171-2.447-2.446-4.88-4.997-7.231-7.58-1.487-1.634-1.368-4.163.266-5.65,1.635-1.487,4.164-1.368,5.65.266,2.267,2.49,4.612,4.949,6.972,7.307,1.562,1.562,1.562,4.095,0,5.657-.781.781-1.805,1.172-2.829,1.172Z" fill="url(#j)" stroke-width="0"/>
      <path d="m468.296,225.216c-1.959,0-3.67-1.44-3.955-3.436-4.956-34.692-18.627-67.826-39.535-95.819-1.321-1.77-.959-4.276.812-5.599,1.768-1.32,4.275-.959,5.599.812,21.707,29.063,35.9,63.461,41.045,99.476.312,2.187-1.207,4.213-3.395,4.525-.191.027-.382.041-.57.041Z" fill="url(#k)" stroke-width="0"/>
      <path d="m414.098,110.785c-1.081,0-2.158-.436-2.947-1.295-2.047-2.229-4.176-4.45-6.327-6.603-1.562-1.562-1.562-4.095,0-5.656,1.561-1.562,4.096-1.562,5.656,0,2.232,2.231,4.44,4.536,6.563,6.849,1.494,1.627,1.386,4.157-.241,5.651-.768.705-1.737,1.054-2.704,1.054Z" fill="url(#l)" stroke-width="0"/>
    </g>
    <path d="m308.032,463.823c-1.794,0-3.425-1.215-3.878-3.033-.534-2.144.77-4.314,2.913-4.849,40.357-10.059,76.567-31.742,104.715-62.706,1.485-1.634,4.016-1.755,5.65-.27,1.635,1.486,1.756,4.016.27,5.65-29.216,32.139-66.803,54.646-108.699,65.087-.325.081-.65.12-.971.12Z" fill="url(#m)" stroke-width="0"/>
    <path d="m203.957,463.823c-.32,0-.646-.039-.971-.12-41.896-10.441-79.483-32.948-108.699-65.087-1.486-1.635-1.365-4.164.27-5.65,1.633-1.485,4.163-1.364,5.65.27,28.147,30.964,64.357,52.647,104.715,62.706,2.144.534,3.447,2.705,2.913,4.849-.453,1.818-2.085,3.033-3.878,3.033Z" fill="url(#n)" stroke-width="0"/>
    <path d="m215.354,407.362c-.227,0-.455-.02-.686-.06-36.943-6.379-58.13-23.632-69.398-36.98-12.33-14.606-15.786-27.691-15.927-28.241-.55-2.14.74-4.319,2.88-4.868,2.134-.547,4.313.736,4.866,2.871.044.165,3.296,12.182,14.569,25.402,10.407,12.207,30.023,28.002,64.371,33.934,2.177.376,3.637,2.445,3.261,4.622-.336,1.946-2.026,3.32-3.937,3.32Z" fill="url(#o)" stroke-width="0"/>
  </g>
  <g id="q" data-name="SPARKS">
    <g>
      <path d="m399.144,241.693h-13.305c-2.209,0-4-1.791-4-4s1.791-4,4-4h13.305c2.209,0,4,1.791,4,4s-1.791,4-4,4Z" fill="url(#r)" stroke-width="0"/>
      <path d="m411.751,220.693c-1.023,0-2.048-.391-2.828-1.172l-9.407-9.408c-1.562-1.562-1.562-4.095,0-5.656,1.562-1.562,4.096-1.562,5.656,0l9.407,9.408c1.562,1.562,1.562,4.095,0,5.656-.781.781-1.805,1.172-2.828,1.172Z" fill="url(#s)" stroke-width="0"/>
    </g>
  </g>
  <g id="t" data-name="STARS">
    <path d="m121.852,297.974h0c-1.755,0-3.305-1.145-3.822-2.821-2.193-7.111-7.748-12.666-14.859-14.859-1.677-.517-2.821-2.067-2.821-3.822s1.145-3.306,2.821-3.822c7.111-2.193,12.666-7.748,14.859-14.86.517-1.677,2.067-2.821,3.822-2.821s3.305,1.144,3.822,2.821c2.194,7.112,7.749,12.667,14.86,14.86,1.677.517,2.821,2.067,2.821,3.822s-1.145,3.306-2.821,3.822c-7.111,2.193-12.666,7.748-14.86,14.86-.518,1.677-2.067,2.82-3.822,2.82Zm-8.31-21.503c3.283,2.204,6.105,5.027,8.31,8.311,2.205-3.284,5.027-6.106,8.311-8.311-3.283-2.204-6.105-5.027-8.311-8.311-2.203,3.283-5.026,6.106-8.31,8.311Z" fill="url(#u)" stroke-width="0"/>
  </g>
  <g id="v" data-name="BELLOW SYMBOL">
    <g>
      <g>
        <path d="m256,484.019c-16.356,0-29.663-13.307-29.663-29.663,0-2.209,1.791-4,4-4s4,1.791,4,4c0,11.945,9.718,21.663,21.663,21.663s21.663-9.718,21.663-21.663c0-2.209,1.791-4,4-4s4,1.791,4,4c0,16.356-13.307,29.663-29.663,29.663Z" fill="url(#w)" stroke-width="0"/>
        <path d="m256,505.395c-2.209,0-4-1.791-4-4v-21.376c0-2.209,1.791-4,4-4s4,1.791,4,4v21.376c0,2.209-1.791,4-4,4Z" fill="url(#x)" stroke-width="0"/>
        <path d="m267.722,495.754h-23.443c-2.209,0-4-1.791-4-4s1.791-4,4-4h23.443c2.209,0,4,1.791,4,4s-1.791,4-4,4Z" fill="url(#y)" stroke-width="0"/>
      </g>
      <path d="m256,469.148c-8.156,0-14.792-6.636-14.792-14.792s6.636-14.792,14.792-14.792,14.792,6.636,14.792,14.792-6.636,14.792-14.792,14.792Zm0-21.584c-3.745,0-6.792,3.047-6.792,6.792s3.047,6.792,6.792,6.792,6.792-3.047,6.792-6.792-3.047-6.792-6.792-6.792Z" fill="url(#z)" stroke-width="0"/>
    </g>
  </g>
  <g id="aa" data-name="TOP TRIANGLE SYMBOL">
    <path d="m256,48.898c-1.341,0-2.593-.672-3.334-1.79l-19.717-29.739c-.814-1.228-.887-2.804-.19-4.102.697-1.299,2.051-2.108,3.524-2.108h39.434c1.474,0,2.827.81,3.524,2.108.696,1.298.624,2.874-.19,4.102l-19.717,29.739c-.741,1.118-1.993,1.79-3.334,1.79Zm-12.266-29.739l12.266,18.5,12.266-18.5h-24.531Z" fill="url(#ab)" stroke-width="0"/>
  </g>
  <g id="ac" data-name="ZODIAC SIGN">
    <path d="m448.227,241.086c-4.298-1.779-9.243-.795-12.532,2.493l-33.971,33.971c-4.491,4.491-4.491,11.772,0,16.264,4.492,4.49,11.773,4.49,16.264,0l11.746-11.746c-2.154,12.428-5.644,24.572-10.448,36.324-5.46,13.355-18.455,21.984-33.11,21.984h-18.024c-8.329,0-15.105-6.776-15.105-15.105v-132.591c0-27.332-22.236-49.568-49.568-49.568-15.282,0-28.968,6.956-38.067,17.864-9.1-10.908-22.786-17.864-38.068-17.864s-28.968,6.956-38.067,17.864c-9.1-10.908-22.786-17.864-38.068-17.864-27.332,0-49.568,22.236-49.568,49.568,0,6.351,5.148,11.5,11.5,11.5s11.5-5.149,11.5-11.5c0-14.649,11.919-26.568,26.568-26.568s26.568,11.918,26.568,26.568v132.591c0,6.352,5.148,11.5,11.5,11.5s11.5-5.148,11.5-11.5v-132.591c0-14.649,11.918-26.568,26.567-26.568s26.568,11.918,26.568,26.568v189.517c0,6.352,5.148,11.5,11.5,11.5s11.5-5.148,11.5-11.5v-189.517c0-14.649,11.918-26.568,26.567-26.568s26.568,11.918,26.568,26.568v132.591c0,21.012,17.094,38.105,38.105,38.105h18.025c24.035,0,45.389-14.241,54.398-36.281,9.789-23.941,14.752-49.305,14.752-75.384,0-4.651-2.802-8.845-7.1-10.625Z" fill="url(#ad)" stroke-width="0"/>
  </g>
  <g id="ae" data-name="OUTER CIRCLE">
    <path d="m296.956,497.343c-1.933,0-3.673-1.384-3.995-3.34-.357-2.161,1.033-4.198,3.189-4.581l.21-.034c113.831-19.545,196.449-117.699,196.449-233.388S410.192,42.156,296.363,22.622c-2.177-.374-3.64-2.441-3.266-4.619.373-2.178,2.438-3.639,4.619-3.266,56.207,9.646,107.631,39.01,144.798,82.683,37.592,44.171,58.295,100.489,58.295,158.58s-20.703,114.408-58.295,158.581c-37.167,43.673-88.59,73.04-144.798,82.691-.023.004-.123.02-.147.023-.206.031-.411.047-.613.047Z" fill="url(#af)" stroke-width="0"/>
    <path d="m215.155,497.361c-.232,0-.467-.021-.704-.062-.014-.002-.124-.02-.139-.021-56.237-9.656-107.66-39.023-144.827-82.696-37.592-44.173-58.295-100.491-58.295-158.581s20.703-114.409,58.295-158.58C106.652,53.747,158.076,24.383,214.283,14.737c2.185-.372,4.246,1.088,4.619,3.266.374,2.178-1.089,4.245-3.266,4.619C101.808,42.156,19.19,140.307,19.19,256s82.618,213.843,196.446,233.388l.213.034c2.175.386,3.625,2.462,3.239,4.638-.344,1.938-2.031,3.302-3.934,3.302Z" fill="url(#ag)" stroke-width="0"/>
  </g>
</svg>