<?xml version="1.0" encoding="UTF-8"?>
<svg xmlns="http://www.w3.org/2000/svg" width="512" height="512" xmlns:xlink="http://www.w3.org/1999/xlink" viewBox="0 0 512 512">
  <defs>
    <linearGradient id="d" x1="-40.992" y1="90.899" x2="416.834" y2="562.812" gradientUnits="userSpaceOnUse">
      <stop offset="0" stop-color="#fb00ff"/>
      <stop offset="1" stop-color="#741cff"/>
    </linearGradient>
    <linearGradient id="e" x1="98.042" y1="-43.985" x2="555.868" y2="427.928" xlink:href="#d"/>
    <linearGradient id="f" x1="-86.092" y1="134.653" x2="371.734" y2="606.566" xlink:href="#d"/>
    <linearGradient id="g" x1="99.986" y1="-45.871" x2="557.812" y2="426.042" xlink:href="#d"/>
    <linearGradient id="h" x1="142.495" y1="-87.111" x2="600.321" y2="384.802" xlink:href="#d"/>
    <linearGradient id="i" x1="-45.882" y1="95.643" x2="411.944" y2="567.556" xlink:href="#d"/>
    <linearGradient id="j" x1="-122.258" y1="169.739" x2="335.568" y2="641.652" xlink:href="#d"/>
    <linearGradient id="k" x1="109.127" y1="-54.739" x2="566.953" y2="417.174" xlink:href="#d"/>
    <linearGradient id="l" x1="185.536" y1="-128.867" x2="643.362" y2="343.046" xlink:href="#d"/>
    <linearGradient id="m" x1="-29.242" y1="79.499" x2="428.584" y2="551.412" xlink:href="#d"/>
    <linearGradient id="q" x1="101.271" y1="-47.117" x2="559.097" y2="424.796" xlink:href="#d"/>
    <linearGradient id="r" x1="-33.573" y1="83.701" x2="424.253" y2="555.614" xlink:href="#d"/>
    <linearGradient id="t" x1="-75.143" y1="124.03" x2="382.684" y2="595.943" xlink:href="#d"/>
    <linearGradient id="u" x1="-65.714" y1="114.883" x2="392.115" y2="586.799" xlink:href="#d"/>
    <linearGradient id="v" x1="-85.687" y1="134.26" x2="372.139" y2="606.173" xlink:href="#d"/>
    <linearGradient id="w" x1="-86.689" y1="135.232" x2="371.137" y2="607.145" xlink:href="#d"/>
    <linearGradient id="y" x1="137.346" y1="-82.116" x2="595.172" y2="389.797" xlink:href="#d"/>
    <linearGradient id="z" x1="137.346" y1="-82.115" x2="595.172" y2="389.798" xlink:href="#d"/>
    <linearGradient id="aa" x1="142.425" y1="-87.043" x2="600.251" y2="384.87" xlink:href="#d"/>
    <linearGradient id="ac" x1="29.49" y1="22.521" x2="487.316" y2="494.434" xlink:href="#d"/>
    <linearGradient id="ae" x1="67.141" y1="-14.006" x2="524.967" y2="457.907" xlink:href="#d"/>
    <linearGradient id="af" x1="-8.197" y1="59.083" x2="449.629" y2="530.996" xlink:href="#d"/>
  </defs>
  <g id="c" data-name="CIRCLE LINES">
    <g>
      <path d="m123.187,388.524c-1.023,0-2.048-.391-2.828-1.172-36.231-36.23-56.185-84.402-56.185-135.641,0-46.804,17.044-91.88,47.992-126.925,1.46-1.656,3.988-1.814,5.646-.351,1.656,1.462,1.813,3.99.351,5.646-29.656,33.582-45.988,76.777-45.988,121.63,0,49.102,19.121,95.264,53.841,129.984,1.562,1.562,1.562,4.095,0,5.656-.78.781-1.805,1.172-2.828,1.172Z" fill="url(#d)" stroke-width="0"/>
      <path d="m169.713,88.841c-1.446,0-2.843-.787-3.555-2.161-1.017-1.961-.25-4.375,1.712-5.392,27.028-14.005,57.503-21.408,88.13-21.408,2.209,0,4,1.791,4,4s-1.791,4-4,4c-29.771,0-58.184,6.901-84.45,20.512-.588.305-1.217.449-1.837.449Z" fill="url(#e)" stroke-width="0"/>
      <path d="m218.002,439.693c-.267,0-.537-.027-.81-.083-11.992-2.465-23.801-6.108-35.096-10.83-2.038-.852-3-3.195-2.147-5.233s3.19-3.001,5.233-2.147c10.82,4.522,22.132,8.014,33.621,10.375,2.163.444,3.558,2.56,3.112,4.724-.389,1.892-2.055,3.195-3.914,3.195Z" fill="url(#f)" stroke-width="0"/>
    </g>
    <g>
      <path d="m388.813,388.524c-1.023,0-2.048-.391-2.828-1.172-1.562-1.562-1.562-4.095,0-5.656,34.72-34.721,53.841-80.883,53.841-129.984,0-44.853-16.332-88.048-45.988-121.63-1.463-1.655-1.306-4.184.351-5.646,1.656-1.464,4.184-1.306,5.646.351,30.948,35.045,47.992,80.121,47.992,126.925,0,51.238-19.953,99.41-56.185,135.641-.78.781-1.805,1.172-2.828,1.172Z" fill="url(#g)" stroke-width="0"/>
      <path d="m342.287,88.841c-.62,0-1.249-.145-1.837-.449-26.267-13.61-54.68-20.512-84.45-20.512-2.209,0-4-1.791-4-4s1.791-4,4-4c30.627,0,61.102,7.403,88.13,21.408,1.962,1.017,2.729,3.431,1.712,5.392-.712,1.374-2.108,2.161-3.555,2.161Z" fill="url(#h)" stroke-width="0"/>
    </g>
    <g>
      <path d="m84.29,384.251c-1.216,0-2.416-.552-3.202-1.599-31.265-41.657-46.56-93.368-43.065-145.607,3.527-52.741,26.078-102.395,63.498-139.813,1.561-1.562,4.094-1.562,5.656,0,1.562,1.562,1.562,4.095,0,5.656-73.62,73.62-82.086,191.828-19.69,274.962,1.326,1.768.969,4.274-.798,5.601-.72.54-1.562.801-2.398.801Z" fill="url(#i)" stroke-width="0"/>
      <path d="m104.349,407.361c-1.023,0-2.047-.391-2.828-1.171-2.447-2.446-4.88-4.997-7.231-7.58-1.487-1.634-1.368-4.163.266-5.65s4.164-1.368,5.65.266c2.267,2.49,4.612,4.949,6.972,7.307,1.562,1.562,1.562,4.095,0,5.657-.781.781-1.805,1.172-2.829,1.172Z" fill="url(#j)" stroke-width="0"/>
      <path d="m407.651,407.361c-1.023,0-2.048-.391-2.828-1.172-1.562-1.562-1.562-4.095,0-5.656,73.448-73.449,82.039-191.489,19.982-274.572-1.321-1.77-.959-4.276.812-5.599,1.769-1.321,4.275-.959,5.599.812,31.109,41.65,46.29,93.303,42.745,145.442-3.579,52.648-26.124,102.216-63.481,139.573-.78.781-1.805,1.172-2.828,1.172Z" fill="url(#k)" stroke-width="0"/>
      <path d="m414.098,110.785c-1.081,0-2.158-.436-2.947-1.295-2.047-2.229-4.176-4.45-6.327-6.603-1.562-1.562-1.562-4.095,0-5.656,1.561-1.562,4.096-1.562,5.656,0,2.232,2.231,4.44,4.536,6.563,6.849,1.494,1.627,1.386,4.157-.241,5.651-.768.705-1.737,1.054-2.704,1.054Z" fill="url(#l)" stroke-width="0"/>
    </g>
    <path d="m293.988,439.695c-1.859,0-3.525-1.304-3.914-3.196-.444-2.164.949-4.278,3.113-4.723,11.495-2.362,22.81-5.854,33.63-10.377,2.039-.854,4.382.109,5.233,2.147.853,2.038-.109,4.381-2.147,5.233-11.295,4.723-23.106,8.367-35.106,10.832-.271.056-.542.083-.809.083Z" fill="url(#m)" stroke-width="0"/>
  </g>
  <g id="p" data-name="STARS">
    <g>
      <path d="m386.879,268.781c-1.755,0-3.305-1.145-3.822-2.821-2.193-7.111-7.748-12.666-14.86-14.859-1.677-.517-2.821-2.067-2.821-3.822s1.145-3.306,2.821-3.822c7.112-2.193,12.667-7.748,14.86-14.859.518-1.677,2.067-2.821,3.822-2.821s3.305,1.145,3.822,2.821c2.193,7.111,7.748,12.666,14.859,14.859,1.677.518,2.821,2.067,2.821,3.822s-1.145,3.305-2.821,3.822c-7.111,2.193-12.666,7.748-14.859,14.859-.518,1.677-2.067,2.821-3.822,2.821Zm-8.311-21.503c3.283,2.204,6.106,5.027,8.311,8.31,2.204-3.282,5.027-6.105,8.31-8.31-3.282-2.204-6.105-5.027-8.31-8.31-2.204,3.282-5.027,6.105-8.311,8.31Z" fill="url(#q)" stroke-width="0"/>
      <path d="m125.121,268.781c-1.755,0-3.305-1.145-3.822-2.821-2.193-7.111-7.748-12.666-14.859-14.859-1.677-.518-2.821-2.067-2.821-3.822s1.145-3.305,2.821-3.822c7.111-2.193,12.666-7.748,14.859-14.859.518-1.677,2.067-2.821,3.822-2.821s3.305,1.145,3.822,2.821c2.193,7.111,7.748,12.666,14.86,14.859,1.677.517,2.821,2.067,2.821,3.822s-1.145,3.306-2.821,3.822c-7.112,2.193-12.667,7.748-14.86,14.859-.518,1.677-2.067,2.821-3.822,2.821Zm-8.31-21.503c3.282,2.204,6.105,5.027,8.31,8.31,2.204-3.282,5.027-6.105,8.311-8.31-3.283-2.204-6.106-5.027-8.311-8.31-2.204,3.282-5.027,6.105-8.31,8.31Z" fill="url(#r)" stroke-width="0"/>
    </g>
  </g>
  <g id="s" data-name="BELLOW SYMBOL">
    <g>
      <path d="m256,479.616c-7.86,0-14.255-6.395-14.255-14.255s6.395-14.255,14.255-14.255,14.255,6.395,14.255,14.255-6.395,14.255-14.255,14.255Zm0-20.51c-3.449,0-6.255,2.806-6.255,6.255s2.806,6.255,6.255,6.255,6.255-2.806,6.255-6.255-2.806-6.255-6.255-6.255Z" fill="url(#t)" stroke-width="0"/>
      <path d="m256,459.107c-8.156,0-14.792-6.636-14.792-14.793,0-2.209,1.791-4,4-4s4,1.791,4,4c0,3.746,3.047,6.793,6.792,6.793s6.792-3.047,6.792-6.793c0-2.209,1.791-4,4-4s4,1.791,4,4c0,8.157-6.636,14.793-14.792,14.793Z" fill="url(#u)" stroke-width="0"/>
      <path d="m256,501.305c-2.209,0-4-1.791-4-4v-21.688c0-2.209,1.791-4,4-4s4,1.791,4,4v21.688c0,2.209-1.791,4-4,4Z" fill="url(#v)" stroke-width="0"/>
      <path d="m267.722,492.465h-23.443c-2.209,0-4-1.791-4-4s1.791-4,4-4h23.443c2.209,0,4,1.791,4,4s-1.791,4-4,4Z" fill="url(#w)" stroke-width="0"/>
    </g>
  </g>
  <g id="x" data-name="TOP TRIANGLE SYMBOL">
    <g>
      <polygon points="256 15.158 236.283 44.897 275.717 44.897 256 15.158" fill="url(#y)" stroke-width="0"/>
      <path d="m275.717,48.898h-39.434c-1.474,0-2.827-.81-3.524-2.108-.696-1.298-.624-2.874.19-4.102l19.717-29.739c.741-1.118,1.993-1.79,3.334-1.79s2.593.672,3.334,1.79l19.717,29.739c.814,1.228.887,2.804.19,4.102-.697,1.299-2.051,2.108-3.524,2.108Zm-31.982-8h24.531l-12.266-18.5-12.266,18.5Z" fill="url(#z)" stroke-width="0"/>
    </g>
    <path d="m279.759,34.027h-47.518c-2.209,0-4-1.791-4-4s1.791-4,4-4h47.518c2.209,0,4,1.791,4,4s-1.791,4-4,4Z" fill="url(#aa)" stroke-width="0"/>
  </g>
  <g id="ab" data-name="ZODIAC SIGN">
    <path d="m317.002,353.872v-194.309c0-.475-.03-.942-.077-1.403,17.764-7.525,34.09-18.475,48.146-32.526,4.49-4.49,4.49-11.78,0-16.27-4.49-4.49-11.77-4.49-16.27,0-24.33,24.34-56.7,37.75-91.12,37.75-.56,0-1.12,0-1.68-.02-.56.02-1.12.02-1.68.02-34.42,0-66.79-13.41-91.12-37.75-4.5-4.49-11.78-4.49-16.27,0-4.49,4.49-4.49,11.78,0,16.27,14.056,14.051,30.381,25.001,48.146,32.526-.048.461-.077.928-.077,1.403v194.309c-17.734,7.524-34.033,18.462-48.068,32.493-4.49,4.49-4.49,11.78,0,16.27,4.49,4.49,11.77,4.49,16.27,0,24.33-24.34,56.7-37.75,91.12-37.75.56,0,1.12,0,1.68.02.56-.02,1.12-.02,1.68-.02,34.42,0,66.79,13.41,91.12,37.75,4.5,4.49,11.78,4.49,16.27,0,4.49-4.49,4.49-11.78,0-16.27-14.035-14.03-30.334-24.969-48.068-32.493Zm-61.002-11.977c-.56-.01-1.12-.01-1.68-.01-12.403,0-24.575,1.484-36.322,4.354v-180.478c11.747,2.87,23.919,4.354,36.322,4.354.56,0,1.12,0,1.68-.01.56.01,1.12.01,1.68.01,12.403,0,24.575-1.484,36.322-4.354v180.478c-11.747-2.87-23.919-4.354-36.322-4.354-.56,0-1.12,0-1.68.01Z" fill="url(#ac)" stroke-width="0"/>
  </g>
  <g id="ad" data-name="OUTER CIRCLE">
    <path d="m296.956,497.343c-1.933,0-3.673-1.384-3.995-3.34-.357-2.161,1.033-4.198,3.189-4.581l.21-.034c113.831-19.545,196.449-117.699,196.449-233.388S410.192,42.156,296.363,22.622c-2.177-.374-3.64-2.441-3.266-4.619.373-2.178,2.437-3.64,4.619-3.266,56.207,9.646,107.631,39.01,144.798,82.683,37.592,44.171,58.295,100.489,58.295,158.58s-20.703,114.408-58.295,158.581c-37.167,43.673-88.59,73.04-144.798,82.691-.023.004-.123.02-.147.023-.206.031-.411.047-.613.047Z" fill="url(#ae)" stroke-width="0"/>
    <path d="m215.155,497.361c-.232,0-.467-.021-.704-.062-.014-.002-.124-.02-.139-.021-56.237-9.656-107.66-39.023-144.827-82.696-37.592-44.173-58.295-100.491-58.295-158.581s20.703-114.409,58.295-158.58C106.652,53.747,158.076,24.383,214.283,14.737c2.184-.373,4.246,1.088,4.619,3.266.374,2.178-1.089,4.245-3.266,4.619C101.808,42.156,19.19,140.307,19.19,256s82.618,213.843,196.446,233.388l.213.034c2.175.386,3.625,2.462,3.239,4.638-.344,1.938-2.031,3.302-3.934,3.302Z" fill="url(#af)" stroke-width="0"/>
  </g>
</svg>