<?xml version="1.0" encoding="UTF-8"?>
<svg xmlns="http://www.w3.org/2000/svg" width="512" height="512" xmlns:xlink="http://www.w3.org/1999/xlink" viewBox="0 0 512 512">
  <defs>
    <linearGradient id="d" x1="25.577" y1="17.797" x2="490.447" y2="489.71" gradientUnits="userSpaceOnUse">
      <stop offset="0" stop-color="#fb00ff"/>
      <stop offset="1" stop-color="#741cff"/>
    </linearGradient>
    <linearGradient id="e" x1="2.911" y1="40.125" x2="467.781" y2="512.038" xlink:href="#d"/>
    <linearGradient id="f" x1="-73.051" y1="114.953" x2="391.818" y2="586.866" xlink:href="#d"/>
    <linearGradient id="g" x1="-124.638" y1="165.77" x2="340.232" y2="637.683" xlink:href="#d"/>
    <linearGradient id="h" x1="175.964" y1="-130.346" x2="640.834" y2="341.567" xlink:href="#d"/>
    <linearGradient id="i" x1="128.638" y1="-83.725" x2="593.507" y2="388.188" xlink:href="#d"/>
    <linearGradient id="j" x1="50.717" y1="-6.968" x2="515.587" y2="464.945" xlink:href="#d"/>
    <linearGradient id="l" x1="-126.139" y1="167.248" x2="338.731" y2="639.161" xlink:href="#d"/>
    <linearGradient id="m" x1="26.957" y1="16.438" x2="491.826" y2="488.351" xlink:href="#d"/>
    <linearGradient id="n" x1="25.237" y1="18.132" x2="490.106" y2="490.045" xlink:href="#d"/>
    <linearGradient id="o" x1="178.332" y1="-132.678" x2="643.202" y2="339.235" xlink:href="#d"/>
    <linearGradient id="r" x1="102.967" y1="-58.438" x2="567.836" y2="413.475" xlink:href="#d"/>
    <linearGradient id="s" x1="-29.88" y1="72.426" x2="434.99" y2="544.339" xlink:href="#d"/>
    <linearGradient id="t" x1="81.131" y1="-36.928" x2="546.001" y2="434.985" xlink:href="#d"/>
    <linearGradient id="v" x1="-80.244" y1="122.039" x2="384.626" y2="593.952" xlink:href="#d"/>
    <linearGradient id="w" x1="-91.663" y1="133.287" x2="373.206" y2="605.2" xlink:href="#d"/>
    <linearGradient id="x" x1="-92.867" y1="134.473" x2="372.003" y2="606.386" xlink:href="#d"/>
    <linearGradient id="z" x1="141.409" y1="-96.307" x2="606.279" y2="375.606" xlink:href="#d"/>
    <linearGradient id="aa" x1="136.946" y1="-91.91" x2="601.815" y2="380.003" xlink:href="#d"/>
    <linearGradient id="ac" x1="37.216" y1="6.331" x2="502.086" y2="478.244" xlink:href="#d"/>
    <linearGradient id="ae" x1="60.246" y1="-16.355" x2="525.116" y2="455.558" xlink:href="#d"/>
    <linearGradient id="af" x1="-13.435" y1="56.227" x2="451.434" y2="528.14" xlink:href="#d"/>
  </defs>
  <g id="c" data-name="CIRCLE LINES">
    <path d="m256,443.536c-105.773,0-191.826-86.053-191.826-191.825S150.227,59.885,256,59.885s191.826,86.053,191.826,191.826-86.053,191.825-191.826,191.825Zm0-375.651c-101.362,0-183.826,82.464-183.826,183.826s82.464,183.825,183.826,183.825,183.826-82.464,183.826-183.825-82.464-183.826-183.826-183.826Z" fill="url(#d)" stroke-width="0"/>
    <path d="m72.003,145.882c-.7,0-1.409-.185-2.053-.57-1.895-1.137-2.509-3.594-1.373-5.488,7.812-13.026,17.059-25.309,27.483-36.506,1.505-1.618,4.036-1.709,5.653-.202,1.617,1.505,1.708,4.036.202,5.653-10.044,10.789-18.953,22.622-26.479,35.17-.75,1.25-2.075,1.943-3.434,1.943Z" fill="url(#e)" stroke-width="0"/>
    <path d="m55.355,331.833c-1.617,0-3.14-.987-3.744-2.591-9.934-26.366-14.631-54.077-13.962-82.36.671-28.348,6.701-55.852,17.924-81.748.878-2.026,3.231-2.958,5.261-2.079,2.027.878,2.958,3.233,2.08,5.261-21.548,49.722-22.939,107.349-3.816,158.106.779,2.067-.266,4.374-2.333,5.153-.464.175-.941.258-1.41.258Z" fill="url(#f)" stroke-width="0"/>
    <path d="m98.419,401.507c-1.077,0-2.151-.433-2.939-1.286-11.62-12.577-21.731-26.475-30.053-41.308-1.081-1.927-.396-4.364,1.531-5.445,1.925-1.083,4.364-.396,5.446,1.531,8.017,14.287,17.758,27.676,28.953,39.794,1.499,1.622,1.399,4.153-.224,5.652-.769.71-1.743,1.062-2.713,1.062Z" fill="url(#g)" stroke-width="0"/>
    <g>
      <path d="m439.997,145.882c-1.359,0-2.684-.693-3.434-1.943-7.334-12.229-15.985-23.782-25.71-34.34-1.497-1.625-1.393-4.155.232-5.652,1.624-1.497,4.155-1.394,5.652.232,10.094,10.957,19.072,22.95,26.687,35.645,1.136,1.895.522,4.352-1.373,5.488-.645.386-1.354.57-2.054.57Z" fill="url(#h)" stroke-width="0"/>
      <path d="m456.645,331.833c-.469,0-.945-.083-1.41-.258-2.067-.779-3.112-3.086-2.333-5.153,19.123-50.758,17.732-108.385-3.816-158.106-.878-2.027.053-4.383,2.08-5.261,2.027-.879,4.383.053,5.261,2.079,11.223,25.896,17.253,53.4,17.924,81.748.669,28.283-4.028,55.994-13.962,82.36-.604,1.603-2.126,2.591-3.744,2.591Z" fill="url(#i)" stroke-width="0"/>
      <path d="m414.399,400.615c-.963,0-1.93-.346-2.697-1.047-1.631-1.49-1.746-4.02-.255-5.651,10.856-11.884,20.327-24.978,28.149-38.918,1.082-1.928,3.521-2.611,5.445-1.531,1.927,1.081,2.612,3.519,1.531,5.445-8.12,14.473-17.951,28.065-29.219,40.4-.789.863-1.87,1.302-2.954,1.302Z" fill="url(#j)" stroke-width="0"/>
    </g>
  </g>
  <g id="k" data-name="PLANETS">
    <path d="m105.941,416.073c-7.294,0-13.228-5.935-13.228-13.229s5.934-13.229,13.228-13.229,13.229,5.935,13.229,13.229-5.934,13.229-13.229,13.229Zm0-18.457c-2.883,0-5.228,2.346-5.228,5.229s2.345,5.229,5.228,5.229,5.229-2.346,5.229-5.229-2.346-5.229-5.229-5.229Z" fill="url(#l)" stroke-width="0"/>
    <path d="m407.596,416.073c-7.294,0-13.229-5.935-13.229-13.229s5.934-13.229,13.229-13.229,13.229,5.935,13.229,13.229-5.934,13.229-13.229,13.229Zm0-18.457c-2.883,0-5.229,2.346-5.229,5.229s2.346,5.229,5.229,5.229,5.229-2.346,5.229-5.229-2.346-5.229-5.229-5.229Z" fill="url(#m)" stroke-width="0"/>
    <g>
      <path d="m105.941,113.287c-7.294,0-13.228-5.934-13.228-13.228s5.934-13.229,13.228-13.229,13.229,5.935,13.229,13.229-5.934,13.228-13.229,13.228Zm0-18.456c-2.883,0-5.228,2.346-5.228,5.229s2.345,5.228,5.228,5.228,5.229-2.345,5.229-5.228-2.346-5.229-5.229-5.229Z" fill="url(#n)" stroke-width="0"/>
      <path d="m407.596,113.287c-7.294,0-13.229-5.934-13.229-13.228s5.934-13.229,13.229-13.229,13.229,5.935,13.229,13.229-5.934,13.228-13.229,13.228Zm0-18.456c-2.883,0-5.229,2.346-5.229,5.229s2.346,5.228,5.229,5.228,5.229-2.345,5.229-5.228-2.346-5.229-5.229-5.229Z" fill="url(#o)" stroke-width="0"/>
    </g>
  </g>
  <g id="q" data-name="STARS">
    <g>
      <path d="m386.879,251.278c-1.755,0-3.305-1.144-3.822-2.821-2.193-7.111-7.749-12.666-14.86-14.859-1.677-.517-2.821-2.067-2.821-3.822s1.144-3.305,2.821-3.822c7.112-2.194,12.667-7.749,14.86-14.86.517-1.677,2.067-2.821,3.822-2.821h0c1.755,0,3.305,1.145,3.822,2.821,2.193,7.111,7.748,12.666,14.86,14.86,1.677.518,2.821,2.067,2.821,3.822s-1.144,3.306-2.821,3.822c-7.111,2.193-12.667,7.748-14.859,14.859-.517,1.677-2.067,2.821-3.822,2.821Zm-8.311-21.503c3.283,2.203,6.106,5.027,8.311,8.31,2.204-3.282,5.027-6.106,8.31-8.31-3.283-2.205-6.106-5.027-8.31-8.311-2.204,3.282-5.028,6.106-8.311,8.311Z" fill="url(#r)" stroke-width="0"/>
      <path d="m125.121,251.278h0c-1.755,0-3.305-1.145-3.822-2.821-2.193-7.111-7.748-12.666-14.859-14.859-1.677-.517-2.821-2.067-2.821-3.822s1.144-3.305,2.821-3.822c7.112-2.194,12.667-7.749,14.86-14.86.517-1.677,2.067-2.821,3.822-2.821s3.305,1.144,3.822,2.821c2.193,7.111,7.749,12.666,14.86,14.86,1.677.518,2.821,2.067,2.821,3.822s-1.144,3.306-2.821,3.822c-7.111,2.193-12.667,7.748-14.86,14.859-.517,1.677-2.067,2.821-3.822,2.821Zm-8.31-21.503c3.283,2.203,6.106,5.027,8.31,8.31,2.204-3.282,5.028-6.106,8.311-8.31-3.283-2.204-6.106-5.028-8.311-8.311-2.204,3.283-5.027,6.105-8.31,8.311Z" fill="url(#s)" stroke-width="0"/>
    </g>
    <path d="m256,170.963c-1.755,0-3.305-1.145-3.822-2.821-3.502-11.356-12.374-20.227-23.729-23.729-1.677-.518-2.821-2.067-2.821-3.822s1.144-3.306,2.821-3.822c11.356-3.502,20.227-12.372,23.729-23.729.517-1.677,2.067-2.821,3.822-2.821s3.305,1.145,3.822,2.821c3.502,11.356,12.373,20.227,23.729,23.729,1.677.517,2.821,2.067,2.821,3.822s-1.144,3.305-2.821,3.822c-11.356,3.503-20.227,12.373-23.729,23.729-.517,1.677-2.067,2.821-3.822,2.821Zm-16.367-30.373c6.822,3.892,12.476,9.546,16.367,16.367,3.891-6.821,9.545-12.476,16.367-16.367-6.822-3.891-12.476-9.545-16.367-16.366-3.891,6.821-9.545,12.476-16.367,16.366Z" fill="url(#t)" stroke-width="0"/>
  </g>
  <g id="u" data-name="BELLOW SYMBOL">
    <g>
      <path d="m256,478.169c-8.157,0-14.792-6.636-14.792-14.792s6.636-14.792,14.792-14.792,14.792,6.636,14.792,14.792-6.636,14.792-14.792,14.792Zm0-21.584c-3.746,0-6.792,3.047-6.792,6.792s3.047,6.792,6.792,6.792,6.792-3.047,6.792-6.792-3.047-6.792-6.792-6.792Z" fill="url(#v)" stroke-width="0"/>
      <path d="m256,502.267c-2.209,0-4-1.791-4-4v-24.098c0-2.209,1.791-4,4-4s4,1.791,4,4v24.098c0,2.209-1.791,4-4,4Z" fill="url(#w)" stroke-width="0"/>
      <path d="m267.722,492.626h-23.443c-2.209,0-4-1.791-4-4s1.791-4,4-4h23.443c2.209,0,4,1.791,4,4s-1.791,4-4,4Z" fill="url(#x)" stroke-width="0"/>
    </g>
  </g>
  <g id="y" data-name="TOP TRIANGLE SYMBOL">
    <path d="m256,48.898c-1.341,0-2.593-.672-3.334-1.79l-19.716-29.739c-.814-1.228-.887-2.804-.19-4.102.697-1.299,2.051-2.108,3.524-2.108h39.433c1.473,0,2.828.81,3.524,2.108.697,1.298.624,2.874-.19,4.102l-19.716,29.739c-.741,1.118-1.993,1.79-3.334,1.79Zm-12.265-29.739l12.265,18.5,12.265-18.5h-24.53Z" fill="url(#z)" stroke-width="0"/>
    <path d="m279.759,32.948h-47.518c-2.209,0-4-1.791-4-4s1.791-4,4-4h47.518c2.209,0,4,1.791,4,4s-1.791,4-4,4Z" fill="url(#aa)" stroke-width="0"/>
  </g>
  <g id="ab" data-name="ZODIAC SIGN">
    <path d="m378.36,138.52c-22.38,0-43.08,11.17-55.37,29.87l-16.08,24.47c-8.02,12.21-21.53,19.5-36.14,19.5h-29.54c-14.61,0-28.12-7.29-36.14-19.5l-16.08-24.47c-12.29-18.7-32.99-29.87-55.37-29.87-6.35,0-11.5,5.15-11.5,11.5s5.15,11.5,11.5,11.5c14.61,0,28.12,7.29,36.15,19.5l16.08,24.47c5.51,8.38,12.71,15.25,20.99,20.28-28.6,16.87-47.83,48.01-47.83,83.56,0,53.47,43.5,96.96,96.97,96.96s96.97-43.49,96.97-96.96c0-35.55-19.23-66.69-47.83-83.56,8.28-5.03,15.48-11.9,20.99-20.28l16.08-24.47c8.03-12.21,21.54-19.5,36.15-19.5,6.35,0,11.5-5.14,11.5-11.5s-5.15-11.5-11.5-11.5Zm-48.39,170.81c0,40.78-33.18,73.96-73.97,73.96s-73.97-33.18-73.97-73.96,33.18-73.97,73.97-73.97,73.97,33.18,73.97,73.97Z" fill="url(#ac)" stroke-width="0"/>
  </g>
  <g id="ad" data-name="OUTER CIRCLE">
    <path d="m296.865,497.359c-1.902,0-3.596-1.358-3.942-3.295-.389-2.175,1.048-4.252,3.223-4.641l.217-.035c113.829-19.546,196.447-117.699,196.447-233.388S410.192,42.157,296.363,22.622c-2.177-.374-3.639-2.441-3.266-4.619s2.44-3.64,4.619-3.266c56.207,9.646,107.631,39.01,144.798,82.683,37.592,44.172,58.295,100.489,58.295,158.58s-20.703,114.408-58.295,158.581c-37.167,43.673-88.591,73.04-144.798,82.691-.023.004-.118.019-.142.022-.238.043-.476.063-.71.063Z" fill="url(#ae)" stroke-width="0"/>
    <path d="m215.154,497.361c-.233,0-.47-.021-.708-.063-.012-.002-.116-.018-.128-.02-56.242-9.657-107.666-39.024-144.833-82.697-37.592-44.173-58.295-100.491-58.295-158.581s20.703-114.408,58.295-158.58C106.652,53.747,158.076,24.383,214.283,14.737c2.178-.373,4.245,1.088,4.619,3.266.374,2.178-1.088,4.245-3.266,4.619C101.808,42.157,19.19,140.307,19.19,256s82.618,213.842,196.447,233.388l.217.035c2.175.389,3.623,2.467,3.233,4.642-.346,1.937-2.032,3.297-3.933,3.297Z" fill="url(#af)" stroke-width="0"/>
  </g>
</svg>