<?xml version="1.0" encoding="UTF-8"?>
<svg xmlns="http://www.w3.org/2000/svg" width="512" height="512" xmlns:xlink="http://www.w3.org/1999/xlink" viewBox="0 0 512 512">
  <defs>
    <linearGradient id="d" x1="10.667" y1="8.714" x2="503.71" y2="497.062" gradientUnits="userSpaceOnUse">
      <stop offset="0" stop-color="#fb00ff"/>
      <stop offset="1" stop-color="#741cff"/>
    </linearGradient>
    <linearGradient id="e" x1="-33.605" y1="53.411" x2="459.438" y2="541.759" xlink:href="#d"/>
    <linearGradient id="f" x1="-123.416" y1="144.086" x2="369.627" y2="632.434" xlink:href="#d"/>
    <linearGradient id="g" x1="57.269" y1="-38.336" x2="550.312" y2="450.011" xlink:href="#d"/>
    <linearGradient id="h" x1="146.549" y1="-128.476" x2="639.593" y2="359.872" xlink:href="#d"/>
    <linearGradient id="j" x1="119.09" y1="-100.753" x2="612.134" y2="387.595" xlink:href="#d"/>
    <linearGradient id="k" x1="-93.325" y1="113.705" x2="399.718" y2="602.053" xlink:href="#d"/>
    <linearGradient id="n" x1="82.524" y1="-63.835" x2="575.568" y2="424.513" xlink:href="#d"/>
    <linearGradient id="o" x1="-65.459" y1="85.572" x2="427.584" y2="573.92" xlink:href="#d"/>
    <linearGradient id="q" x1="-103.883" y1="124.365" x2="389.16" y2="612.713" xlink:href="#d"/>
    <linearGradient id="s" x1="116.621" y1="-98.259" x2="609.664" y2="390.089" xlink:href="#d"/>
    <linearGradient id="u" x1="3.724" y1="15.723" x2="496.767" y2="504.071" xlink:href="#d"/>
    <linearGradient id="v" x1="13.061" y1="6.296" x2="506.105" y2="494.644" xlink:href="#d"/>
    <linearGradient id="x" x1="44.052" y1="-24.992" x2="537.095" y2="463.355" xlink:href="#d"/>
    <linearGradient id="y" x1="-27.042" y1="46.785" x2="466.001" y2="535.133" xlink:href="#d"/>
  </defs>
  <g id="c" data-name="CIRCLE LINES">
    <path d="m256,443.536c-105.773,0-191.826-86.053-191.826-191.825S150.227,59.885,256,59.885s191.826,86.053,191.826,191.826-86.053,191.825-191.826,191.825Zm0-375.651c-101.362,0-183.826,82.464-183.826,183.826s82.464,183.825,183.826,183.825,183.826-82.464,183.826-183.825-82.464-183.826-183.826-183.826Z" fill="url(#d)" stroke-width="0"/>
    <path d="m43.865,224.131c-.194,0-.392-.015-.59-.044-2.186-.323-3.695-2.357-3.372-4.542,6.894-46.601,28.2-88.896,61.618-122.313,1.561-1.562,4.094-1.562,5.656,0,1.562,1.562,1.562,4.095,0,5.656-32.193,32.195-52.721,72.939-59.36,117.827-.294,1.987-2.002,3.416-3.952,3.416Z" fill="url(#e)" stroke-width="0"/>
    <path d="m104.35,407.36c-1.023,0-2.047-.391-2.828-1.172-35.084-35.085-57.354-81.511-62.708-130.726-.239-2.196,1.348-4.17,3.544-4.409,2.194-.236,4.17,1.348,4.409,3.544,5.231,48.097,26.122,91.644,60.411,125.935,1.562,1.562,1.562,4.095,0,5.656-.78.781-1.805,1.172-2.828,1.172Z" fill="url(#f)" stroke-width="0"/>
    <path d="m407.65,407.36c-1.023,0-2.047-.391-2.828-1.172-1.562-1.562-1.562-4.095,0-5.656,34.289-34.291,55.18-77.838,60.411-125.935.238-2.196,2.206-3.777,4.409-3.544,2.196.239,3.783,2.213,3.544,4.409-5.354,49.215-27.624,95.641-62.708,130.726-.78.781-1.805,1.172-2.828,1.172Z" fill="url(#g)" stroke-width="0"/>
    <path d="m468.135,224.131c-1.95,0-3.658-1.429-3.952-3.416-6.64-44.888-27.167-85.632-59.36-117.827-1.562-1.562-1.562-4.095,0-5.656,1.561-1.562,4.094-1.562,5.656,0,33.418,33.418,54.725,75.713,61.618,122.313.323,2.185-1.187,4.219-3.372,4.542-.198.029-.396.044-.59.044Z" fill="url(#h)" stroke-width="0"/>
  </g>
  <g id="i" data-name="PLANETS">
    <g>
      <path d="m470.468,260.507c-7.294,0-13.229-5.935-13.229-13.229s5.935-13.229,13.229-13.229,13.229,5.935,13.229,13.229-5.935,13.229-13.229,13.229Zm0-18.457c-2.883,0-5.229,2.346-5.229,5.229s2.346,5.229,5.229,5.229,5.229-2.346,5.229-5.229-2.346-5.229-5.229-5.229Z" fill="url(#j)" stroke-width="0"/>
      <path d="m41.532,260.507c-7.294,0-13.229-5.935-13.229-13.229s5.935-13.229,13.229-13.229,13.229,5.935,13.229,13.229-5.935,13.229-13.229,13.229Zm0-18.457c-2.883,0-5.229,2.346-5.229,5.229s2.346,5.229,5.229,5.229,5.229-2.346,5.229-5.229-2.346-5.229-5.229-5.229Z" fill="url(#k)" stroke-width="0"/>
    </g>
  </g>
  <g id="m" data-name="STARS">
    <g>
      <path d="m256,129.492c-1.755,0-3.306-1.145-3.822-2.821-2.193-7.112-7.748-12.667-14.859-14.86-1.677-.518-2.821-2.067-2.821-3.822s1.145-3.305,2.821-3.822c7.111-2.193,12.666-7.748,14.859-14.859.517-1.677,2.067-2.821,3.822-2.821s3.306,1.145,3.822,2.821c2.193,7.111,7.748,12.666,14.859,14.859,1.677.518,2.821,2.067,2.821,3.822s-1.145,3.305-2.821,3.822c-7.111,2.193-12.666,7.748-14.859,14.86-.517,1.677-2.067,2.821-3.822,2.821Zm-8.31-21.504c3.282,2.204,6.105,5.027,8.31,8.311,2.204-3.283,5.027-6.106,8.31-8.311-3.282-2.204-6.105-5.026-8.31-8.31-2.204,3.283-5.027,6.105-8.31,8.31Z" fill="url(#n)" stroke-width="0"/>
      <path d="m256,425.473c-1.755,0-3.306-1.145-3.822-2.821-2.193-7.112-7.748-12.667-14.859-14.86-1.677-.518-2.821-2.067-2.821-3.822s1.145-3.305,2.821-3.822c7.111-2.193,12.666-7.748,14.859-14.859.518-1.677,2.067-2.821,3.822-2.821s3.305,1.145,3.822,2.821c2.193,7.111,7.748,12.666,14.859,14.859,1.677.518,2.821,2.067,2.821,3.822s-1.145,3.305-2.821,3.822c-7.111,2.193-12.666,7.748-14.859,14.86-.517,1.677-2.067,2.821-3.822,2.821Zm-8.31-21.504c3.282,2.204,6.105,5.027,8.31,8.311,2.204-3.283,5.027-6.106,8.31-8.311-3.282-2.204-6.105-5.027-8.31-8.31-2.204,3.282-5.027,6.105-8.31,8.31Z" fill="url(#o)" stroke-width="0"/>
    </g>
  </g>
  <g id="p" data-name="BELLOW SYMBOL">
    <path d="m254.905,506.16c-10.11,0-19.468-5.895-23.839-15.018-.82-1.712-.324-3.765,1.187-4.913,1.512-1.146,3.62-1.076,5.052.171,1.616,1.411,3.679,2.188,5.808,2.188,4.843,0,10.692-3.947,10.692-8.85s-5.85-8.851-10.692-8.851c-2.128,0-4.19.777-5.808,2.189-1.433,1.247-3.541,1.317-5.052.171-1.511-1.148-2.007-3.201-1.187-4.913,4.371-9.123,13.729-15.019,23.839-15.019,14.568,0,26.421,11.853,26.421,26.422s-11.853,26.421-26.421,26.421Zm-8.211-9.949c2.513,1.257,5.317,1.949,8.211,1.949,10.157,0,18.421-8.264,18.421-18.421s-8.264-18.422-18.421-18.422c-2.894,0-5.698.692-8.211,1.949,7.712,1.601,15.11,8.123,15.11,16.473s-7.397,14.872-15.11,16.472Z" fill="url(#q)" stroke-width="0"/>
  </g>
  <g id="r" data-name="TOP TRIANGLE SYMBOL">
    <path d="m275.717,48.898h-39.434c-1.474,0-2.827-.81-3.524-2.108-.696-1.298-.624-2.874.19-4.102l19.717-29.739c.741-1.118,1.993-1.79,3.334-1.79s2.593.672,3.334,1.79l19.717,29.739c.814,1.228.887,2.804.19,4.102-.697,1.299-2.051,2.108-3.524,2.108Zm-31.982-8h24.531l-12.266-18.5-12.266,18.5Z" fill="url(#s)" stroke-width="0"/>
  </g>
  <g id="t" data-name="ZODIAC SIGN">
    <g>
      <path d="m356.14,199.206c-33.91,0-61.49,27.58-61.49,61.49,0,28.12,18.97,51.9,44.78,59.19-70.19,24.78-181,9.24-182.44,9.04-6.29-.92-12.12,3.44-13.03,9.73-.92,6.28,3.44,12.12,9.73,13.03,3.06.44,37.62,5.3,80.77,5.3,51.71,0,115.74-6.98,152.6-36.92,12.75-10.35,21.58-22.76,26.39-37.06,2.71-6.92,4.19-14.45,4.19-22.31,0-33.91-27.59-61.49-61.5-61.49Zm35.73,75.82c-5.69,14.16-19.56,24.17-35.73,24.17-21.22,0-38.49-17.27-38.49-38.5s17.27-38.49,38.49-38.49c21.1,0,38.28,17.04,38.5,38.09-.35,5.22-1.27,10.12-2.77,14.73Z" fill="url(#u)" stroke-width="0"/>
      <path d="m216.83,251.305c0-28.12-18.97-51.89-44.78-59.18,31.05-10.97,70.06-14.04,104.03-14.04,42.85,0,77.68,4.89,78.41,4.99,6.29.92,12.12-3.44,13.03-9.73.91-6.28-3.44-12.12-9.73-13.03-6.73-.97-165.74-23.3-233.38,31.62-12.83,10.43-21.69,22.94-26.5,37.37-2.63,6.83-4.07,14.25-4.07,22,0,.19,0,.38.01.56.3,33.65,27.77,60.94,61.49,60.94,33.91,0,61.49-27.59,61.49-61.5Zm-99.99.4c.35-5.22,1.27-10.12,2.77-14.73,5.69-14.15,19.56-24.16,35.73-24.16,21.22,0,38.49,17.26,38.49,38.49s-17.27,38.5-38.49,38.5c-21.1,0-38.28-17.05-38.5-38.1Z" fill="url(#v)" stroke-width="0"/>
    </g>
  </g>
  <g id="w" data-name="OUTER CIRCLE">
    <path d="m296.956,497.343c-1.933,0-3.673-1.384-3.995-3.34-.357-2.161,1.033-4.198,3.189-4.581l.21-.034c113.831-19.545,196.449-117.699,196.449-233.388S410.192,42.156,296.363,22.622c-2.177-.374-3.64-2.441-3.266-4.619.373-2.178,2.438-3.64,4.619-3.266,56.207,9.646,107.631,39.01,144.798,82.683,37.592,44.171,58.295,100.489,58.295,158.58s-20.703,114.408-58.295,158.581c-37.167,43.673-88.59,73.04-144.798,82.691-.023.004-.123.02-.147.023-.206.031-.411.047-.613.047Z" fill="url(#x)" stroke-width="0"/>
    <path d="m215.155,497.361c-.232,0-.467-.021-.704-.062-.014-.002-.124-.02-.139-.021-56.237-9.656-107.66-39.023-144.827-82.696-37.592-44.173-58.295-100.491-58.295-158.581s20.703-114.409,58.295-158.58C106.652,53.747,158.076,24.383,214.283,14.737c2.185-.373,4.246,1.088,4.619,3.266.374,2.178-1.089,4.245-3.266,4.619C101.808,42.156,19.19,140.307,19.19,256s82.618,213.843,196.446,233.388l.213.034c2.175.386,3.625,2.462,3.239,4.638-.344,1.938-2.031,3.302-3.934,3.302Z" fill="url(#y)" stroke-width="0"/>
  </g>
</svg>