<?xml version="1.0" encoding="UTF-8"?>
<svg xmlns="http://www.w3.org/2000/svg" width="512" height="512" xmlns:xlink="http://www.w3.org/1999/xlink" viewBox="0 0 512 512">
  <defs>
    <linearGradient id="d" x1="26.25" y1="11.958" x2="491.12" y2="490.914" gradientUnits="userSpaceOnUse">
      <stop offset="0" stop-color="#fff766"/>
      <stop offset="1" stop-color="#ff7c36"/>
    </linearGradient>
    <linearGradient id="e" x1="-50.652" y1="86.599" x2="414.217" y2="565.555" xlink:href="#d"/>
    <linearGradient id="f" x1="33.82" y1="4.611" x2="498.69" y2="483.567" xlink:href="#d"/>
    <linearGradient id="g" x1="95.981" y1="-55.722" x2="560.85" y2="423.235" xlink:href="#d"/>
    <linearGradient id="h" x1="11.082" y1="26.68" x2="475.952" y2="505.636" xlink:href="#d"/>
    <linearGradient id="i" x1="-48.325" y1="84.34" x2="416.544" y2="563.297" xlink:href="#d"/>
    <linearGradient id="j" x1="-124.58" y1="158.352" x2="340.289" y2="637.309" xlink:href="#d"/>
    <linearGradient id="k" x1="102.159" y1="-61.719" x2="567.029" y2="417.238" xlink:href="#d"/>
    <linearGradient id="l" x1="178.584" y1="-135.896" x2="643.454" y2="343.061" xlink:href="#d"/>
    <linearGradient id="n" x1="-71.662" y1="106.99" x2="393.208" y2="585.947" xlink:href="#d"/>
    <linearGradient id="o" x1="-71.168" y1="106.511" x2="393.702" y2="585.467" xlink:href="#d"/>
    <linearGradient id="r" x1="49.798" y1="-10.897" x2="514.668" y2="468.059" xlink:href="#d"/>
    <linearGradient id="s" x1="51.658" y1="-12.702" x2="516.527" y2="466.254" xlink:href="#d"/>
    <linearGradient id="u" x1="-92.83" y1="127.535" x2="372.04" y2="606.492" xlink:href="#d"/>
    <linearGradient id="v" x1="-89.592" y1="124.393" x2="375.278" y2="603.35" xlink:href="#d"/>
    <linearGradient id="x" x1="130.446" y1="-89.173" x2="595.316" y2="389.783" xlink:href="#d"/>
    <linearGradient id="z" x1="2.385" y1="35.121" x2="467.255" y2="514.078" xlink:href="#d"/>
    <linearGradient id="ab" x1="60.194" y1="-20.988" x2="525.064" y2="457.969" xlink:href="#d"/>
    <linearGradient id="ac" x1="-15.077" y1="52.069" x2="449.793" y2="531.026" xlink:href="#d"/>
  </defs>
  <g id="c" data-name="CIRCLE LINES">
    <path d="m256,443.536c-35.742,0-70.617-9.897-100.854-28.622-1.878-1.163-2.458-3.628-1.295-5.506,1.164-1.879,3.629-2.458,5.507-1.295,28.971,17.94,62.39,27.423,96.643,27.423,101.362,0,183.826-82.464,183.826-183.825s-82.464-183.826-183.826-183.826S72.174,150.349,72.174,251.711c0,34.335,9.526,67.823,27.548,96.844,1.166,1.877.589,4.343-1.288,5.509-1.877,1.165-4.343.59-5.508-1.288-18.81-30.289-28.752-65.236-28.752-101.064,0-105.773,86.053-191.826,191.826-191.826s191.826,86.053,191.826,191.826-86.053,191.825-191.826,191.825Z" fill="url(#d)" stroke-width="0"/>
    <path d="m256,415.443c-2.209,0-4-1.791-4-4s1.791-4,4-4c5.35,0,10.741-.282,16.023-.838,2.198-.223,4.165,1.363,4.396,3.56.231,2.197-1.362,4.166-3.56,4.397-5.559.584-11.232.881-16.86.881Z" fill="url(#e)" stroke-width="0"/>
    <path d="m291.177,411.445c-1.82,0-3.466-1.25-3.894-3.1-.498-2.152.843-4.301,2.995-4.799,68.984-15.961,117.164-76.635,117.164-147.547,0-2.209,1.791-4,4-4s4,1.791,4,4c0,36.247-12.493,71.729-35.176,99.908-22.346,27.76-53.664,47.446-88.184,55.434-.304.069-.607.104-.905.104Z" fill="url(#f)" stroke-width="0"/>
    <path d="m240.102,105.36c-2.027,0-3.765-1.535-3.975-3.596-.224-2.197,1.377-4.16,3.575-4.384,5.374-.546,10.857-.823,16.298-.823,2.209,0,4,1.791,4,4s-1.791,4-4,4c-5.172,0-10.383.263-15.488.782-.138.014-.274.021-.41.021Z" fill="url(#g)" stroke-width="0"/>
    <path d="m100.558,260c-2.209,0-4-1.791-4-4,0-36.613,12.069-71.042,34.903-99.566,22.164-27.688,53.266-47.423,87.577-55.568,2.152-.514,4.305.818,4.815,2.968.511,2.149-.818,4.306-2.968,4.815-68.492,16.26-116.327,76.854-116.327,147.352,0,2.209-1.791,4-4,4Z" fill="url(#h)" stroke-width="0"/>
    <path d="m58.896,340.389c-1.551,0-3.027-.907-3.678-2.423-17.036-39.689-21.908-83.207-14.088-125.85,8.005-43.656,28.888-83.383,60.39-114.885,1.562-1.562,4.095-1.562,5.657,0,1.562,1.562,1.562,4.095,0,5.656-61.272,61.271-78.781,152.307-44.607,231.922.871,2.03-.068,4.383-2.098,5.254-.514.221-1.049.325-1.576.325Z" fill="url(#i)" stroke-width="0"/>
    <path d="m72.942,367.54c-1.347,0-2.661-.681-3.416-1.913-1.714-2.8-3.385-5.676-4.968-8.548-1.066-1.936-.362-4.368,1.573-5.434,1.933-1.067,4.367-.362,5.434,1.572,1.524,2.767,3.134,5.536,4.784,8.233,1.153,1.884.561,4.347-1.324,5.5-.651.398-1.372.589-2.084.589Z" fill="url(#j)" stroke-width="0"/>
    <path d="m407.651,407.361c-1.024,0-2.047-.391-2.829-1.172-1.562-1.562-1.562-4.095,0-5.656,73.247-73.247,81.985-191.09,20.325-274.112-1.317-1.773-.947-4.279.827-5.596,1.772-1.317,4.278-.947,5.596.826,30.928,41.643,45.976,93.227,42.371,145.249-3.64,52.538-26.178,102.005-63.462,139.289-.781.781-1.805,1.172-2.829,1.172Z" fill="url(#k)" stroke-width="0"/>
    <path d="m414.965,111.735c-1.089,0-2.174-.442-2.963-1.312-2.317-2.554-4.732-5.089-7.178-7.534-1.562-1.562-1.562-4.095,0-5.657,1.561-1.562,4.095-1.562,5.657,0,2.538,2.538,5.043,5.168,7.447,7.817,1.484,1.636,1.361,4.166-.275,5.65-.766.694-1.728,1.037-2.687,1.037Z" fill="url(#l)" stroke-width="0"/>
  </g>
  <g id="m" data-name="PLANETS">
    <path d="m205.921,406.207c-3.387,0-6.775-1.289-9.354-3.867-2.499-2.499-3.875-5.821-3.875-9.354s1.376-6.855,3.875-9.354,5.82-3.874,9.354-3.874,6.855,1.376,9.354,3.875c5.158,5.157,5.158,13.55,0,18.707-2.579,2.579-5.967,3.868-9.354,3.868Zm0-18.45c-1.397,0-2.71.544-3.697,1.531-.988.987-1.532,2.301-1.532,3.697s.544,2.71,1.531,3.696c2.04,2.04,5.356,2.038,7.395,0,2.038-2.038,2.038-5.354,0-7.394-.987-.987-2.3-1.531-3.697-1.531Z" fill="url(#n)" stroke-width="0"/>
    <path d="m116.16,312.737c-3.388,0-6.775-1.289-9.354-3.867,0,0,0,0,0,0-2.499-2.499-3.875-5.82-3.875-9.354s1.376-6.855,3.875-9.354,5.82-3.874,9.354-3.874,6.855,1.376,9.354,3.875c5.157,5.156,5.157,13.549,0,18.707-2.579,2.579-5.967,3.868-9.354,3.868Zm-3.697-9.525c2.04,2.039,5.356,2.039,7.395,0,2.038-2.038,2.038-5.355,0-7.394-.987-.987-2.3-1.531-3.697-1.531s-2.71.544-3.697,1.531c-.988.987-1.532,2.301-1.532,3.697s.544,2.709,1.531,3.697h0Z" fill="url(#o)" stroke-width="0"/>
  </g>
  <g id="q" data-name="STARS">
    <path d="m221.455,187.464c-1.755,0-3.305-1.145-3.822-2.821-2.193-7.111-7.749-12.666-14.86-14.859-1.677-.517-2.821-2.067-2.821-3.822s1.144-3.306,2.821-3.822c7.111-2.193,12.667-7.748,14.86-14.859.517-1.677,2.067-2.821,3.822-2.821s3.305,1.145,3.822,2.821c2.193,7.111,7.749,12.666,14.86,14.859,1.677.518,2.821,2.067,2.821,3.822s-1.144,3.305-2.821,3.822c-7.111,2.193-12.667,7.748-14.86,14.859-.517,1.677-2.067,2.821-3.822,2.821Zm-8.31-21.503c3.283,2.204,6.106,5.027,8.31,8.31,2.204-3.282,5.027-6.105,8.31-8.31-3.283-2.204-6.106-5.027-8.31-8.31-2.204,3.282-5.027,6.105-8.31,8.31Z" fill="url(#r)" stroke-width="0"/>
    <path d="m344.218,310.228c-1.755,0-3.305-1.144-3.822-2.821-2.194-7.112-7.749-12.667-14.86-14.86-1.677-.518-2.821-2.067-2.821-3.822s1.144-3.305,2.821-3.822c7.111-2.193,12.667-7.748,14.86-14.859.517-1.677,2.067-2.821,3.822-2.821h0c1.755,0,3.305,1.145,3.822,2.821,2.193,7.111,7.748,12.666,14.859,14.859,1.677.518,2.821,2.067,2.821,3.822s-1.144,3.305-2.821,3.822c-7.111,2.193-12.666,7.748-14.859,14.86-.517,1.677-2.067,2.821-3.822,2.821Zm-8.31-21.504c3.283,2.204,6.106,5.027,8.31,8.311,2.204-3.283,5.027-6.106,8.31-8.311-3.283-2.204-6.106-5.027-8.31-8.31-2.204,3.282-5.027,6.105-8.31,8.31Z" fill="url(#s)" stroke-width="0"/>
  </g>
  <g id="t" data-name="BELLOW SYMBOL">
    <g>
      <path d="m273.215,492.114h-34.431c-2.209,0-4-1.791-4-4s1.791-4,4-4c5.197,0,9.424-5.565,9.424-12.407s-4.228-12.407-9.424-12.407c-2.209,0-4-1.791-4-4s1.791-4,4-4c9.608,0,17.424,9.154,17.424,20.407,0,4.663-1.343,8.967-3.599,12.407h20.605c2.209,0,4,1.791,4,4s-1.791,4-4,4Z" fill="url(#u)" stroke-width="0"/>
      <path d="m265.574,507.839c-2.209,0-4-1.791-4-4v-27.035c0-2.209,1.791-4,4-4s4,1.791,4,4v27.035c0,2.209-1.791,4-4,4Z" fill="url(#v)" stroke-width="0"/>
    </g>
  </g>
  <g id="w" data-name="TOP TRIANGLE SYMBOL">
    <path d="m275.716,48.898h-39.433c-1.473,0-2.828-.81-3.524-2.108-.697-1.298-.624-2.874.19-4.102l19.716-29.739c.741-1.118,1.993-1.79,3.334-1.79s2.593.672,3.334,1.79l19.716,29.739c.814,1.228.887,2.804.19,4.102-.697,1.299-2.051,2.108-3.524,2.108Zm-31.981-8h24.53l-12.265-18.5-12.265,18.5Z" fill="url(#x)" stroke-width="0"/>
  </g>
  <g id="y" data-name="ZODIAC SIGN">
    <path d="m375.107,144.058c-.001-.364-.019-.727-.055-1.09-.017-.176-.05-.347-.075-.521-.029-.198-.051-.395-.09-.592-.039-.197-.093-.387-.142-.581-.043-.17-.08-.342-.131-.511-.057-.188-.127-.369-.193-.552-.061-.171-.117-.343-.187-.511-.071-.17-.154-.334-.232-.5-.082-.174-.159-.349-.25-.519-.085-.159-.182-.311-.275-.465-.1-.167-.195-.337-.304-.5-.113-.169-.239-.328-.361-.491-.103-.138-.199-.279-.309-.413-.23-.281-.474-.549-.729-.807-.011-.011-.021-.024-.032-.036-.011-.01-.022-.019-.033-.03-.258-.256-.528-.5-.809-.731-.134-.11-.275-.206-.413-.309-.163-.122-.322-.248-.492-.361-.162-.109-.331-.203-.497-.302-.156-.093-.308-.191-.469-.277-.168-.09-.34-.166-.511-.246-.169-.08-.336-.165-.51-.237-.163-.068-.33-.122-.496-.182-.188-.068-.375-.14-.567-.198-.163-.049-.328-.085-.493-.127-.199-.051-.396-.106-.599-.146-.185-.037-.372-.058-.558-.085-.185-.027-.368-.062-.555-.08-.32-.031-.64-.044-.961-.049-.057,0-.112-.009-.169-.009h-87.177c-6.351,0-11.5,5.148-11.5,11.5s5.149,11.5,11.5,11.5h59.413l-96.191,96.191-28.646-28.646c-4.492-4.491-11.772-4.491-16.264,0-4.491,4.491-4.491,11.772,0,16.264l28.646,28.646-127.174,127.174c-4.491,4.491-4.491,11.772,0,16.264,2.246,2.245,5.189,3.368,8.132,3.368s5.886-1.123,8.132-3.368l127.174-127.174,28.646,28.646c2.246,2.246,5.188,3.368,8.132,3.368s5.886-1.123,8.132-3.368c4.491-4.491,4.491-11.772,0-16.264l-28.646-28.646,96.191-96.191v59.413c0,6.352,5.149,11.5,11.5,11.5s11.5-5.148,11.5-11.5v-87.177c0-.015-.002-.029-.002-.044Z" fill="url(#z)" stroke-width="0"/>
  </g>
  <g id="aa" data-name="OUTER CIRCLE">
    <path d="m296.865,497.359c-1.902,0-3.596-1.358-3.942-3.295-.389-2.175,1.048-4.252,3.223-4.641l.217-.035c113.829-19.546,196.447-117.699,196.447-233.388S410.192,42.157,296.363,22.622c-2.177-.374-3.639-2.441-3.266-4.619s2.439-3.638,4.619-3.266c56.207,9.646,107.631,39.01,144.798,82.683,37.592,44.172,58.295,100.489,58.295,158.58s-20.703,114.408-58.295,158.581c-37.167,43.673-88.591,73.04-144.798,82.691-.023.004-.118.019-.142.022-.238.043-.476.063-.71.063Z" fill="url(#ab)" stroke-width="0"/>
    <path d="m215.154,497.361c-.233,0-.47-.021-.708-.063-.012-.002-.116-.018-.128-.02-56.242-9.657-107.666-39.024-144.833-82.697-37.592-44.173-58.295-100.491-58.295-158.581s20.703-114.408,58.295-158.58C106.652,53.747,158.076,24.383,214.283,14.737c2.177-.371,4.245,1.088,4.619,3.266.374,2.178-1.088,4.245-3.266,4.619C101.808,42.157,19.19,140.307,19.19,256s82.618,213.842,196.447,233.388l.217.035c2.175.389,3.623,2.467,3.233,4.642-.346,1.937-2.032,3.297-3.933,3.297Z" fill="url(#ac)" stroke-width="0"/>
  </g>
</svg>