<?xml version="1.0" encoding="UTF-8"?>
<svg xmlns="http://www.w3.org/2000/svg" width="512" height="512" xmlns:xlink="http://www.w3.org/1999/xlink" viewBox="0 0 512 512">
  <defs>
    <linearGradient id="d" x1="-113.028" y1="129.065" x2="378.45" y2="622.108" gradientUnits="userSpaceOnUse">
      <stop offset="0" stop-color="#fff766"/>
      <stop offset="1" stop-color="#ff7c36"/>
    </linearGradient>
    <linearGradient id="e" x1="2.919" y1="13.486" x2="494.397" y2="506.529" xlink:href="#d"/>
    <linearGradient id="f" x1="-31.544" y1="47.839" x2="459.934" y2="540.882" xlink:href="#d"/>
    <linearGradient id="g" x1="18.274" y1="-1.82" x2="509.752" y2="491.223" xlink:href="#d"/>
    <linearGradient id="h" x1="-75.007" y1="91.164" x2="416.471" y2="584.207" xlink:href="#d"/>
    <linearGradient id="i" x1="-81.379" y1="97.515" x2="410.1" y2="590.559" xlink:href="#d"/>
    <linearGradient id="j" x1="25.113" y1="-8.638" x2="516.591" y2="484.406" xlink:href="#d"/>
    <linearGradient id="k" x1="134.54" y1="-117.717" x2="626.018" y2="375.326" xlink:href="#d"/>
    <linearGradient id="l" x1="6.351" y1="10.064" x2="497.829" y2="503.108" xlink:href="#d"/>
    <linearGradient id="m" x1="-32.811" y1="49.102" x2="458.667" y2="542.146" xlink:href="#d"/>
    <linearGradient id="n" x1="-133.71" y1="149.68" x2="357.769" y2="642.724" xlink:href="#d"/>
    <linearGradient id="o" x1="15.167" y1="1.277" x2="506.645" y2="494.32" xlink:href="#d"/>
    <linearGradient id="p" x1="54.275" y1="-37.707" x2="545.753" y2="455.336" xlink:href="#d"/>
    <linearGradient id="q" x1="159.11" y1="-142.21" x2="650.588" y2="350.834" xlink:href="#d"/>
    <linearGradient id="s" x1="162.642" y1="-145.73" x2="654.12" y2="347.313" xlink:href="#d"/>
    <linearGradient id="t" x1="-142.677" y1="158.619" x2="348.801" y2="651.663" xlink:href="#d"/>
    <linearGradient id="w" x1="106.583" y1="-89.849" x2="598.061" y2="403.194" xlink:href="#d"/>
    <linearGradient id="x" x1="96.303" y1="-79.602" x2="587.781" y2="413.442" xlink:href="#d"/>
    <linearGradient id="y" x1="43.289" y1="-26.757" x2="534.767" y2="466.287" xlink:href="#d"/>
    <linearGradient id="z" x1="25.101" y1="-8.627" x2="516.58" y2="484.417" xlink:href="#d"/>
    <linearGradient id="aa" x1="60.243" y1="-43.657" x2="551.721" y2="449.387" xlink:href="#d"/>
    <linearGradient id="ac" x1="-111.98" y1="128.02" x2="379.498" y2="621.063" xlink:href="#d"/>
    <linearGradient id="ad" x1="-84.417" y1="100.544" x2="407.061" y2="593.588" xlink:href="#d"/>
    <linearGradient id="ae" x1="-98.199" y1="114.282" x2="393.28" y2="607.325" xlink:href="#d"/>
    <linearGradient id="af" x1="-97.661" y1="113.746" x2="393.817" y2="606.79" xlink:href="#d"/>
    <linearGradient id="ag" x1="-109.771" y1="125.818" x2="381.707" y2="618.861" xlink:href="#d"/>
    <linearGradient id="ai" x1="116.646" y1="-99.88" x2="608.124" y2="393.163" xlink:href="#d"/>
    <linearGradient id="aj" x1="121.591" y1="-104.81" x2="613.069" y2="388.234" xlink:href="#d"/>
    <linearGradient id="al" x1="31.224" y1="-14.73" x2="522.703" y2="478.313" xlink:href="#d"/>
    <linearGradient id="am" x1="31.224" y1="-14.73" x2="522.703" y2="478.313" xlink:href="#d"/>
    <linearGradient id="an" x1="-2.082" y1="18.471" x2="489.396" y2="511.514" xlink:href="#d"/>
    <linearGradient id="ao" x1="-2.082" y1="18.471" x2="489.396" y2="511.514" xlink:href="#d"/>
    <linearGradient id="aq" x1="48.077" y1="-31.53" x2="539.556" y2="461.514" xlink:href="#d"/>
    <linearGradient id="ar" x1="-27.628" y1="43.935" x2="463.85" y2="536.979" xlink:href="#d"/>
  </defs>
  <g id="c" data-name="CIRCLE LINES">
    <path d="m208.883,437.571c-.331,0-.668-.041-1.003-.128-58.229-15.036-106.623-57.301-129.452-113.058-.837-2.044.143-4.38,2.187-5.218,2.044-.837,4.379.142,5.218,2.187,21.877,53.433,68.25,93.935,124.048,108.343,2.139.553,3.425,2.734,2.873,4.873-.466,1.804-2.09,3.001-3.87,3.001Z" fill="url(#d)" stroke-width="0"/>
    <path d="m303.117,437.571c-1.78,0-3.404-1.197-3.87-3.001-.552-2.139.734-4.32,2.873-4.873,55.798-14.408,102.171-54.91,124.048-108.343.838-2.044,3.174-3.023,5.218-2.187,2.044.838,3.023,3.174,2.187,5.218-22.829,55.757-71.223,98.021-129.452,113.058-.335.087-.672.128-1.003.128Z" fill="url(#e)" stroke-width="0"/>
    <g>
      <path d="m256,404.927c-2.209,0-4-1.791-4-4s1.791-4,4-4c32.843,0,63.214-14.921,83.325-40.937,1.351-1.748,3.862-2.069,5.611-.719,1.748,1.352,2.069,3.863.719,5.611-21.639,27.99-54.316,44.044-89.655,44.044Z" fill="url(#f)" stroke-width="0"/>
      <path d="m353.989,344.042c-.596,0-1.2-.134-1.771-.416-1.98-.979-2.791-3.378-1.812-5.358,1.086-2.196,2.107-4.459,3.035-6.727.837-2.043,3.17-3.022,5.218-2.187,2.044.837,3.023,3.173,2.187,5.218-1,2.441-2.1,4.878-3.27,7.242-.697,1.41-2.114,2.228-3.588,2.228Z" fill="url(#g)" stroke-width="0"/>
    </g>
    <g>
      <path d="m256.465,404.927c-35.339,0-68.017-16.054-89.655-44.044-1.351-1.748-1.029-4.26.719-5.611,1.747-1.35,4.26-1.028,5.611.719,20.111,26.016,50.482,40.937,83.325,40.937,2.209,0,4,1.791,4,4s-1.791,4-4,4Z" fill="url(#h)" stroke-width="0"/>
      <path d="m158.475,344.042c-1.474,0-2.892-.818-3.589-2.229-1.17-2.368-2.27-4.805-3.268-7.241-.837-2.045.143-4.381,2.187-5.218,2.048-.835,4.382.144,5.218,2.187.927,2.264,1.947,4.527,3.035,6.728.979,1.98.167,4.38-1.813,5.358-.57.281-1.174.415-1.77.415Z" fill="url(#i)" stroke-width="0"/>
    </g>
    <path d="m90.496,166.831c-.64,0-1.288-.154-1.892-.479-1.945-1.047-2.674-3.473-1.627-5.418,25.311-47.033,69.377-81.647,120.901-94.968,2.141-.546,4.32.732,4.874,2.872.553,2.139-.733,4.32-2.872,4.874-49.372,12.763-91.602,45.936-115.858,91.013-.723,1.343-2.102,2.105-3.526,2.105Z" fill="url(#j)" stroke-width="0"/>
    <path d="m421.504,166.831c-1.425,0-2.804-.763-3.526-2.105-24.257-45.077-66.486-78.25-115.858-91.013-2.139-.554-3.425-2.735-2.872-4.874.554-2.141,2.737-3.427,4.874-2.872,51.524,13.32,95.591,47.935,120.901,94.968,1.047,1.945.318,4.371-1.627,5.418-.603.324-1.252.479-1.892.479Z" fill="url(#k)" stroke-width="0"/>
    <g>
      <path d="m96.27,112.584c-.952,0-1.907-.338-2.671-1.023-1.644-1.476-1.78-4.004-.305-5.648,2.641-2.942,5.408-5.863,8.227-8.681,1.561-1.562,4.096-1.562,5.656,0,1.562,1.562,1.562,4.095,0,5.656-2.716,2.717-5.384,5.532-7.93,8.368-.79.88-1.882,1.328-2.978,1.328Z" fill="url(#l)" stroke-width="0"/>
      <path d="m54.57,181.924c-.456,0-.92-.078-1.373-.244-2.075-.759-3.143-3.056-2.384-5.13,7.116-19.466,16.975-37.793,29.301-54.474,1.312-1.778,3.817-2.153,5.594-.84,1.777,1.312,2.153,3.817.84,5.594-11.872,16.066-21.366,33.719-28.221,52.466-.593,1.622-2.125,2.628-3.757,2.628Z" fill="url(#m)" stroke-width="0"/>
      <path d="m96.268,399.137c-1.094,0-2.183-.446-2.973-1.322-19.139-21.242-33.754-46.012-43.439-73.62-.731-2.085.365-4.367,2.45-5.099,2.087-.727,4.368.365,5.099,2.45,9.333,26.604,23.408,50.463,41.834,70.913,1.479,1.642,1.347,4.171-.294,5.649-.765.688-1.723,1.028-2.677,1.028Z" fill="url(#n)" stroke-width="0"/>
      <path d="m407.651,407.361c-1.024,0-2.048-.391-2.829-1.172-1.562-1.562-1.562-4.096,0-5.657,2.723-2.722,5.401-5.549,7.963-8.404,1.476-1.645,4.005-1.782,5.648-.307,1.645,1.475,1.782,4.004.307,5.648-2.657,2.963-5.438,5.896-8.262,8.721-.781.78-1.805,1.171-2.828,1.171Z" fill="url(#o)" stroke-width="0"/>
      <path d="m427.078,385.088c-.842,0-1.691-.265-2.414-.812-1.76-1.335-2.105-3.844-.771-5.604,13.165-17.363,23.495-36.582,30.701-57.122.731-2.084,3.013-3.181,5.099-2.45,2.085.731,3.182,3.014,2.45,5.099-7.482,21.326-18.207,41.28-31.875,59.308-.787,1.037-1.981,1.583-3.19,1.583Z" fill="url(#p)" stroke-width="0"/>
      <path d="m446.325,156.724c-1.444,0-2.838-.784-3.551-2.154-8.486-16.304-19.137-31.482-31.657-45.114-1.494-1.627-1.387-4.157.24-5.652,1.628-1.493,4.157-1.386,5.652.24,12.995,14.149,24.051,29.906,32.86,46.833,1.021,1.96.259,4.375-1.701,5.395-.59.308-1.222.453-1.844.453Z" fill="url(#q)" stroke-width="0"/>
    </g>
  </g>
  <g id="r" data-name="PLANETS">
    <path d="m407.651,113.287c-3.533,0-6.855-1.375-9.354-3.874-5.158-5.157-5.158-13.551,0-18.708,5.156-5.158,13.551-5.158,18.707,0,5.157,5.158,5.157,13.55,0,18.708-2.499,2.499-5.821,3.874-9.354,3.874Zm0-18.454c-1.339,0-2.678.509-3.697,1.528-2.038,2.039-2.038,5.356,0,7.396,2.039,2.037,5.355,2.037,7.395,0,2.038-2.039,2.038-5.356,0-7.396-1.019-1.019-2.357-1.528-3.696-1.528Z" fill="url(#s)" stroke-width="0"/>
    <path d="m100.961,416.256c-3.387,0-6.774-1.289-9.353-3.868-2.499-2.498-3.875-5.82-3.875-9.354s1.376-6.855,3.874-9.354h0c2.498-2.499,5.82-3.875,9.354-3.875s6.855,1.376,9.354,3.875c5.157,5.156,5.157,13.549,0,18.707-2.58,2.579-5.968,3.868-9.355,3.868Zm0-18.45c-1.396,0-2.709.544-3.696,1.531t0,0c-.987.987-1.531,2.3-1.531,3.696s.544,2.709,1.531,3.697c2.039,2.037,5.355,2.038,7.395,0s2.038-5.355,0-7.394c-.988-.987-2.301-1.531-3.697-1.531Zm-6.525-1.297h.01-.01Z" fill="url(#t)" stroke-width="0"/>
  </g>
  <g id="v" data-name="STARS">
    <g>
      <g>
        <g>
          <path d="m314.39,132.041c-1.023,0-2.048-.391-2.828-1.172-1.562-1.562-1.562-4.095,0-5.656l9.407-9.407c1.561-1.562,4.096-1.562,5.656,0,1.562,1.562,1.562,4.095,0,5.656l-9.407,9.407c-.78.781-1.805,1.172-2.828,1.172Z" fill="url(#w)" stroke-width="0"/>
          <path d="m333.628,155.806h-13.305c-2.209,0-4-1.791-4-4s1.791-4,4-4h13.305c2.209,0,4,1.791,4,4s-1.791,4-4,4Z" fill="url(#x)" stroke-width="0"/>
        </g>
        <g>
          <path d="m197.61,132.041c-1.023,0-2.048-.391-2.828-1.172l-9.407-9.407c-1.562-1.562-1.562-4.095,0-5.656,1.561-1.562,4.096-1.562,5.656,0l9.407,9.407c1.562,1.562,1.562,4.095,0,5.656-.78.781-1.805,1.172-2.828,1.172Z" fill="url(#y)" stroke-width="0"/>
          <path d="m191.677,155.806h-13.305c-2.209,0-4-1.791-4-4s1.791-4,4-4h13.305c2.209,0,4,1.791,4,4s-1.791,4-4,4Z" fill="url(#z)" stroke-width="0"/>
        </g>
      </g>
      <path d="m256,174.227c-1.755,0-3.306-1.145-3.822-2.821-2.193-7.111-7.748-12.666-14.859-14.859-1.677-.518-2.821-2.067-2.821-3.822s1.145-3.305,2.821-3.822c7.111-2.193,12.666-7.748,14.859-14.86.517-1.677,2.067-2.821,3.822-2.821s3.306,1.145,3.822,2.821c2.193,7.112,7.748,12.667,14.859,14.86,1.677.518,2.821,2.067,2.821,3.822s-1.145,3.305-2.821,3.822c-7.111,2.193-12.666,7.748-14.859,14.859-.517,1.677-2.067,2.821-3.822,2.821Zm-8.31-21.503c3.282,2.204,6.105,5.026,8.31,8.31,2.204-3.283,5.027-6.105,8.31-8.31-3.282-2.204-6.105-5.027-8.31-8.311-2.204,3.283-5.027,6.106-8.31,8.311Z" fill="url(#aa)" stroke-width="0"/>
    </g>
  </g>
  <g id="ab" data-name="BELLOW SYMBOL">
    <g>
      <g>
        <path d="m225.499,490.966c-2.209,0-4-1.791-4-4s1.791-4,4-4c6.459,0,11.713-5.992,11.713-13.357s-5.254-13.357-11.713-13.357c-2.209,0-4-1.791-4-4s1.791-4,4-4c10.87,0,19.713,9.581,19.713,21.357s-8.843,21.357-19.713,21.357Z" fill="url(#ac)" stroke-width="0"/>
        <path d="m286.501,490.966c-10.87,0-19.713-9.581-19.713-21.357s8.843-21.357,19.713-21.357c2.209,0,4,1.791,4,4s-1.791,4-4,4c-6.459,0-11.713,5.992-11.713,13.357s5.254,13.357,11.713,13.357c2.209,0,4,1.791,4,4s-1.791,4-4,4Z" fill="url(#ad)" stroke-width="0"/>
        <path d="m270.045,473.609h-28.09c-2.209,0-4-1.791-4-4s1.791-4,4-4h28.09c2.209,0,4,1.791,4,4s-1.791,4-4,4Z" fill="url(#ae)" stroke-width="0"/>
        <path d="m256,489.891c-2.209,0-4-1.791-4-4v-34.715c0-2.209,1.791-4,4-4s4,1.791,4,4v34.715c0,2.209-1.791,4-4,4Z" fill="url(#af)" stroke-width="0"/>
      </g>
      <path d="m256,503.616c-5.989,0-10.862-4.873-10.862-10.863s4.873-10.862,10.862-10.862,10.862,4.873,10.862,10.862-4.873,10.863-10.862,10.863Zm0-13.726c-1.578,0-2.862,1.284-2.862,2.862s1.284,2.863,2.862,2.863,2.862-1.284,2.862-2.863-1.284-2.862-2.862-2.862Z" fill="url(#ag)" stroke-width="0"/>
    </g>
  </g>
  <g id="ah" data-name="TOP TRIANGLE SYMBOL">
    <path d="m275.717,48.898h-39.434c-1.474,0-2.827-.81-3.524-2.108-.696-1.298-.624-2.874.19-4.102l19.717-29.739c.741-1.118,1.993-1.79,3.334-1.79s2.593.672,3.334,1.79l19.717,29.739c.814,1.228.887,2.804.19,4.102-.697,1.299-2.051,2.108-3.524,2.108Zm-31.982-8h24.531l-12.266-18.5-12.266,18.5Z" fill="url(#ai)" stroke-width="0"/>
    <path d="m279.759,34.027h-47.518c-2.209,0-4-1.791-4-4s1.791-4,4-4h47.518c2.209,0,4,1.791,4,4s-1.791,4-4,4Z" fill="url(#aj)" stroke-width="0"/>
  </g>
  <g id="ak" data-name="ZODIAC SIGN">
    <g>
      <g>
        <path d="m386.594,246.125c-20.081,0-30.814-7.845-39.439-14.147-7.718-5.641-13.295-9.717-25.866-9.717s-18.145,4.075-25.862,9.716c-8.623,6.304-19.355,14.148-39.436,14.148s-30.812-7.845-39.436-14.147c-7.718-5.642-13.293-9.717-25.863-9.717s-18.146,4.075-25.862,9.717c-8.623,6.303-19.355,14.147-39.434,14.147s-30.812-7.845-39.435-14.148c-7.717-5.641-13.293-9.716-25.861-9.716-6.352,0-11.5-5.148-11.5-11.5s5.148-11.5,11.5-11.5c20.078,0,30.811,7.845,39.434,14.147,7.717,5.642,13.293,9.717,25.862,9.717s18.145-4.075,25.861-9.716c8.623-6.304,19.355-14.148,39.435-14.148s30.812,7.845,39.436,14.147c7.718,5.642,13.293,9.717,25.863,9.717s18.146-4.075,25.863-9.717c8.623-6.303,19.355-14.147,39.435-14.147s30.813,7.845,39.438,14.147c7.719,5.641,13.296,9.717,25.868,9.717s18.149-4.076,25.868-9.717c8.624-6.303,19.357-14.147,39.438-14.147,6.352,0,11.5,5.148,11.5,11.5s-5.148,11.5-11.5,11.5c-12.572,0-18.149,4.076-25.868,9.717-8.624,6.303-19.357,14.147-39.438,14.147Z" fill="url(#al)" stroke-width="0"/>
        <path d="m386.594,246.125c-20.081,0-30.814-7.845-39.439-14.147-7.718-5.641-13.295-9.717-25.866-9.717s-18.145,4.075-25.862,9.716c-8.623,6.304-19.355,14.148-39.436,14.148s-30.812-7.845-39.436-14.147c-7.718-5.642-13.293-9.717-25.863-9.717s-18.146,4.075-25.862,9.717c-8.623,6.303-19.355,14.147-39.434,14.147s-30.812-7.845-39.435-14.148c-7.717-5.641-13.293-9.716-25.861-9.716-6.352,0-11.5-5.148-11.5-11.5s5.148-11.5,11.5-11.5c20.078,0,30.811,7.845,39.434,14.147,7.717,5.642,13.293,9.717,25.862,9.717s18.145-4.075,25.861-9.716c8.623-6.304,19.355-14.148,39.435-14.148s30.812,7.845,39.436,14.147c7.718,5.642,13.293,9.717,25.863,9.717s18.146-4.075,25.863-9.717c8.623-6.303,19.355-14.147,39.435-14.147s30.813,7.845,39.438,14.147c7.719,5.641,13.296,9.717,25.868,9.717s18.149-4.076,25.868-9.717c8.624-6.303,19.357-14.147,39.438-14.147,6.352,0,11.5,5.148,11.5,11.5s-5.148,11.5-11.5,11.5c-12.572,0-18.149,4.076-25.868,9.717-8.624,6.303-19.357,14.147-39.438,14.147Z" fill="url(#am)" stroke-width="0"/>
      </g>
      <g>
        <path d="m386.594,312.739c-20.081,0-30.814-7.845-39.439-14.147-7.718-5.641-13.295-9.717-25.866-9.717s-18.145,4.075-25.862,9.716c-8.623,6.304-19.355,14.148-39.436,14.148s-30.812-7.845-39.436-14.147c-7.718-5.642-13.293-9.717-25.863-9.717s-18.146,4.075-25.862,9.717c-8.623,6.303-19.355,14.147-39.434,14.147s-30.812-7.845-39.435-14.148c-7.717-5.641-13.293-9.716-25.861-9.716-6.352,0-11.5-5.148-11.5-11.5s5.148-11.5,11.5-11.5c20.078,0,30.811,7.845,39.434,14.147,7.717,5.642,13.293,9.717,25.862,9.717s18.145-4.075,25.861-9.716c8.623-6.304,19.355-14.148,39.435-14.148s30.812,7.845,39.436,14.147c7.718,5.642,13.293,9.717,25.863,9.717s18.146-4.075,25.863-9.717c8.623-6.303,19.355-14.147,39.435-14.147s30.813,7.845,39.438,14.147c7.719,5.641,13.296,9.717,25.868,9.717s18.149-4.076,25.868-9.717c8.624-6.303,19.357-14.147,39.438-14.147,6.352,0,11.5,5.148,11.5,11.5s-5.148,11.5-11.5,11.5c-12.572,0-18.149,4.076-25.868,9.717-8.624,6.303-19.357,14.147-39.438,14.147Z" fill="url(#an)" stroke-width="0"/>
        <path d="m386.594,312.739c-20.081,0-30.814-7.845-39.439-14.147-7.718-5.641-13.295-9.717-25.866-9.717s-18.145,4.075-25.862,9.716c-8.623,6.304-19.355,14.148-39.436,14.148s-30.812-7.845-39.436-14.147c-7.718-5.642-13.293-9.717-25.863-9.717s-18.146,4.075-25.862,9.717c-8.623,6.303-19.355,14.147-39.434,14.147s-30.812-7.845-39.435-14.148c-7.717-5.641-13.293-9.716-25.861-9.716-6.352,0-11.5-5.148-11.5-11.5s5.148-11.5,11.5-11.5c20.078,0,30.811,7.845,39.434,14.147,7.717,5.642,13.293,9.717,25.862,9.717s18.145-4.075,25.861-9.716c8.623-6.304,19.355-14.148,39.435-14.148s30.812,7.845,39.436,14.147c7.718,5.642,13.293,9.717,25.863,9.717s18.146-4.075,25.863-9.717c8.623-6.303,19.355-14.147,39.435-14.147s30.813,7.845,39.438,14.147c7.719,5.641,13.296,9.717,25.868,9.717s18.149-4.076,25.868-9.717c8.624-6.303,19.357-14.147,39.438-14.147,6.352,0,11.5,5.148,11.5,11.5s-5.148,11.5-11.5,11.5c-12.572,0-18.149,4.076-25.868,9.717-8.624,6.303-19.357,14.147-39.438,14.147Z" fill="url(#ao)" stroke-width="0"/>
      </g>
    </g>
  </g>
  <g id="ap" data-name="OUTER CIRCLE">
    <path d="m307.842,495.219c-1.838,0-3.493-1.274-3.903-3.144-.474-2.158.893-4.291,3.05-4.765,107.672-23.624,185.821-120.904,185.821-231.311,0-115.693-82.617-213.844-196.446-233.378-2.177-.374-3.64-2.441-3.266-4.619.373-2.178,2.437-3.638,4.619-3.266,56.207,9.646,107.631,39.01,144.798,82.683,37.592,44.172,58.295,100.489,58.295,158.58,0,56.14-19.479,110.988-54.85,154.442-34.87,42.839-83.615,72.913-137.257,84.683-.289.063-.577.094-.861.094Z" fill="url(#aq)" stroke-width="0"/>
    <path d="m201.966,494.728c-.296,0-.597-.033-.897-.103-53.114-12.178-101.314-42.379-135.723-85.04-34.923-43.3-54.155-97.844-54.155-153.585,0-58.091,20.703-114.408,58.295-158.58C106.652,53.747,158.076,24.383,214.283,14.737c2.184-.371,4.246,1.088,4.619,3.266.374,2.178-1.089,4.245-3.266,4.619C101.808,42.156,19.19,140.307,19.19,256c0,111.113,75.526,206.033,183.665,230.828,2.153.493,3.499,2.639,3.005,4.792-.425,1.853-2.072,3.107-3.895,3.107Z" fill="url(#ar)" stroke-width="0"/>
  </g>
</svg>