<?xml version="1.0" encoding="UTF-8"?>
<svg xmlns="http://www.w3.org/2000/svg" width="512" height="512" xmlns:xlink="http://www.w3.org/1999/xlink" viewBox="0 0 512 512">
  <defs>
    <linearGradient id="d" x1="16.725" y1="11.283" x2="503.899" y2="500.805" gradientUnits="userSpaceOnUse">
      <stop offset="0" stop-color="#fff766"/>
      <stop offset="1" stop-color="#ff7c36"/>
    </linearGradient>
    <linearGradient id="e" x1="-77.738" y1="105.293" x2="409.436" y2="594.815" xlink:href="#d"/>
    <linearGradient id="f" x1="-36.809" y1="64.561" x2="450.365" y2="554.082" xlink:href="#d"/>
    <linearGradient id="g" x1="-120.551" y1="147.901" x2="366.623" y2="637.422" xlink:href="#d"/>
    <linearGradient id="h" x1="68.017" y1="-39.763" x2="555.191" y2="449.759" xlink:href="#d"/>
    <linearGradient id="i" x1="152.219" y1="-123.561" x2="639.393" y2="365.96" xlink:href="#d"/>
    <linearGradient id="j" x1="-121.341" y1="148.687" x2="365.832" y2="638.209" xlink:href="#d"/>
    <linearGradient id="k" x1="155.605" y1="-126.931" x2="642.779" y2="362.59" xlink:href="#d"/>
    <linearGradient id="m" x1="131.53" y1="-102.971" x2="618.704" y2="386.55" xlink:href="#d"/>
    <linearGradient id="n" x1="17.09" y1="10.92" x2="504.264" y2="500.442" xlink:href="#d"/>
    <linearGradient id="o" x1="16.181" y1="11.824" x2="503.355" y2="501.346" xlink:href="#d"/>
    <linearGradient id="p" x1="-102.971" y1="130.405" x2="384.203" y2="619.927" xlink:href="#d"/>
    <linearGradient id="r" x1="115.624" y1="-87.141" x2="602.798" y2="402.381" xlink:href="#d"/>
    <linearGradient id="s" x1="105.35" y1="-76.917" x2="592.524" y2="412.605" xlink:href="#d"/>
    <linearGradient id="u" x1="98.829" y1="-70.427" x2="586.003" y2="419.095" xlink:href="#d"/>
    <linearGradient id="v" x1="-51.696" y1="79.376" x2="435.477" y2="568.898" xlink:href="#d"/>
    <linearGradient id="x" x1="-102.83" y1="130.264" x2="384.344" y2="619.786" xlink:href="#d"/>
    <linearGradient id="y" x1="-95.553" y1="123.022" x2="391.621" y2="612.544" xlink:href="#d"/>
    <linearGradient id="z" x1="-103.807" y1="131.237" x2="383.367" y2="620.759" xlink:href="#d"/>
    <linearGradient id="ab" x1="128.105" y1="-99.563" x2="615.279" y2="389.959" xlink:href="#d"/>
    <linearGradient id="ac" x1="132.518" y1="-103.955" x2="619.692" y2="385.567" xlink:href="#d"/>
    <linearGradient id="ae" x1="20.06" y1="7.964" x2="507.234" y2="497.486" xlink:href="#d"/>
    <linearGradient id="ag" x1="50.85" y1="-22.678" x2="538.024" y2="466.844" xlink:href="#d"/>
    <linearGradient id="ah" x1="-21.743" y1="49.567" x2="465.431" y2="539.088" xlink:href="#d"/>
  </defs>
  <g id="c" data-name="CIRCLE LINES">
    <path d="m256,443.536c-105.773,0-191.826-86.053-191.826-191.825S150.227,59.885,256,59.885s191.826,86.053,191.826,191.826-86.053,191.825-191.826,191.825Zm0-375.651c-101.362,0-183.826,82.464-183.826,183.826s82.464,183.825,183.826,183.825,183.826-82.464,183.826-183.825-82.464-183.826-183.826-183.826Z" fill="url(#d)" stroke-width="0"/>
    <path d="m256,412.743c-46.275,0-89.951-20.301-119.829-55.696-1.425-1.688-1.211-4.212.477-5.637,1.687-1.425,4.211-1.212,5.637.477,28.354,33.591,69.802,52.856,113.715,52.856,2.209,0,4,1.791,4,4s-1.791,4-4,4Z" fill="url(#e)" stroke-width="0"/>
    <g>
      <path d="m42.034,241.1c-.091,0-.182-.003-.274-.009-2.204-.149-3.87-2.058-3.721-4.262,3.338-49.303,23.584-96.481,57.008-132.845,1.496-1.625,4.026-1.732,5.652-.238,1.626,1.495,1.733,4.025.238,5.652-32.197,35.028-51.7,80.477-54.916,127.972-.143,2.111-1.901,3.729-3.987,3.729Z" fill="url(#f)" stroke-width="0"/>
      <path d="m104.35,407.36c-1.024,0-2.047-.391-2.829-1.172-33.315-33.315-54.604-75.474-61.566-121.916-.327-2.185,1.178-4.221,3.363-4.549,2.18-.328,4.221,1.178,4.549,3.363,6.705,44.736,27.215,85.349,59.311,117.445,1.562,1.562,1.562,4.095,0,5.656-.781.781-1.805,1.172-2.829,1.172Z" fill="url(#g)" stroke-width="0"/>
      <path d="m414.179,400.542c-.968,0-1.938-.35-2.707-1.057-1.626-1.495-1.731-4.025-.236-5.651,30.473-33.126,49.149-74.401,54.007-119.364.238-2.195,2.208-3.778,4.407-3.547,2.196.237,3.785,2.21,3.547,4.406-5.044,46.676-24.434,89.527-56.074,123.921-.789.857-1.865,1.292-2.945,1.292Z" fill="url(#h)" stroke-width="0"/>
      <path d="m469.117,231.91c-2.01,0-3.741-1.511-3.97-3.555-5.302-47.309-26.726-91.867-60.326-125.468-1.562-1.562-1.562-4.095,0-5.656,1.563-1.562,4.096-1.561,5.657,0,34.877,34.877,57.115,81.129,62.619,130.233.246,2.195-1.334,4.175-3.53,4.421-.151.017-.302.024-.45.024Z" fill="url(#i)" stroke-width="0"/>
    </g>
    <g>
      <path d="m215.152,466.275c-.251,0-.506-.024-.762-.073-32.34-6.242-62.117-19.351-88.504-38.963-1.773-1.317-2.142-3.823-.824-5.596,1.318-1.775,3.823-2.144,5.597-.824,25.415,18.889,54.097,31.516,85.248,37.527,2.169.419,3.588,2.517,3.17,4.686-.37,1.913-2.045,3.243-3.923,3.243Z" fill="url(#j)" stroke-width="0"/>
      <path d="m407.65,104.06c-1.024,0-2.047-.391-2.829-1.172-29.893-29.893-67.54-49.895-108.871-57.844-2.169-.417-3.59-2.514-3.173-4.684.417-2.169,2.511-3.597,4.684-3.172,42.909,8.252,81.989,29.015,113.018,60.043,1.562,1.562,1.562,4.095,0,5.656-.781.781-1.805,1.172-2.829,1.172Z" fill="url(#k)" stroke-width="0"/>
    </g>
  </g>
  <g id="l" data-name="PLANETS">
    <path d="m469.97,250.328c-3.533,0-6.855-1.376-9.354-3.875-5.157-5.156-5.157-13.549,0-18.707h0c5.158-5.156,13.551-5.156,18.708,0,2.499,2.5,3.875,5.821,3.875,9.354s-1.376,6.855-3.875,9.354-5.82,3.874-9.354,3.874Zm-3.697-16.926c-2.038,2.039-2.038,5.356,0,7.395.987.987,2.3,1.531,3.697,1.531s2.71-.544,3.697-1.531c.988-.987,1.532-2.301,1.532-3.697s-.544-2.709-1.532-3.697c-2.038-2.037-5.355-2.037-7.394,0Z" fill="url(#m)" stroke-width="0"/>
    <path d="m407.65,416.584c-3.387,0-6.774-1.289-9.354-3.867-5.158-5.159-5.158-13.551,0-18.709,0,0,0,0,0,0,5.158-5.157,13.55-5.156,18.708,0,5.157,5.158,5.157,13.55,0,18.708-2.579,2.579-5.966,3.868-9.354,3.868Zm-3.697-16.92c-2.038,2.039-2.038,5.356,0,7.396,2.038,2.037,5.355,2.037,7.394,0,2.039-2.039,2.039-5.356,0-7.396-2.038-2.037-5.355-2.036-7.394,0h0Z" fill="url(#n)" stroke-width="0"/>
    <path d="m105.941,115.238c-3.388,0-6.775-1.289-9.354-3.867-2.499-2.5-3.875-5.821-3.875-9.354s1.376-6.855,3.875-9.354h0s0,0,0,0c2.499-2.498,5.82-3.874,9.354-3.874s6.855,1.376,9.354,3.875c5.157,5.156,5.157,13.549,0,18.707-2.579,2.579-5.967,3.868-9.354,3.868Zm0-18.45c-1.397,0-2.71.544-3.697,1.531,0,0,0,0,0,0-.987.986-1.531,2.3-1.531,3.696s.544,2.709,1.532,3.697c2.039,2.037,5.356,2.038,7.395,0,2.038-2.038,2.038-5.355,0-7.394-.987-.987-2.3-1.531-3.697-1.531Zm-6.526-1.297h.01-.01Z" fill="url(#o)" stroke-width="0"/>
    <path d="m40.83,288.122c-3.387,0-6.774-1.289-9.354-3.868-5.157-5.158-5.157-13.55,0-18.708h0c5.158-5.157,13.549-5.156,18.708,0,5.158,5.159,5.158,13.551,0,18.709-2.579,2.579-5.967,3.868-9.354,3.868Zm-3.696-16.92c-2.039,2.039-2.039,5.356,0,7.396,2.039,2.038,5.356,2.038,7.394,0,2.038-2.038,2.038-5.355,0-7.395-2.038-2.037-5.355-2.037-7.394,0h0Z" fill="url(#p)" stroke-width="0"/>
  </g>
  <g id="q" data-name="SPARKS">
    <g>
      <path d="m331.357,143.062c-1.024,0-2.047-.391-2.829-1.172-1.562-1.562-1.562-4.095,0-5.656l9.407-9.407c1.562-1.562,4.095-1.562,5.657,0,1.562,1.562,1.562,4.095,0,5.656l-9.407,9.407c-.781.781-1.805,1.172-2.829,1.172Z" fill="url(#r)" stroke-width="0"/>
      <path d="m350.595,166.826h-13.305c-2.209,0-4-1.791-4-4s1.791-4,4-4h13.305c2.209,0,4,1.791,4,4s-1.791,4-4,4Z" fill="url(#s)" stroke-width="0"/>
    </g>
  </g>
  <g id="t" data-name="STARS">
    <path d="m373.394,226.964c-1.755,0-3.305-1.144-3.822-2.821-2.193-7.111-7.749-12.666-14.86-14.859-1.677-.517-2.821-2.067-2.821-3.822s1.144-3.305,2.821-3.822c7.112-2.194,12.667-7.749,14.86-14.86.517-1.677,2.067-2.821,3.822-2.821h0c1.755,0,3.305,1.145,3.822,2.821,2.193,7.111,7.748,12.666,14.86,14.86,1.677.518,2.821,2.067,2.821,3.822s-1.144,3.306-2.821,3.822c-7.111,2.193-12.667,7.748-14.859,14.859-.517,1.677-2.067,2.821-3.822,2.821Zm-8.311-21.503c3.283,2.203,6.106,5.027,8.311,8.31,2.204-3.282,5.027-6.106,8.31-8.31-3.283-2.205-6.106-5.027-8.31-8.311-2.204,3.282-5.028,6.106-8.311,8.311Z" fill="url(#u)" stroke-width="0"/>
    <path d="m139.228,292.724c-1.755,0-3.305-1.145-3.822-2.821-2.193-7.111-7.749-12.666-14.86-14.859-1.677-.517-2.821-2.067-2.821-3.822s1.144-3.306,2.821-3.822c7.111-2.193,12.667-7.748,14.86-14.859.517-1.677,2.067-2.821,3.822-2.821s3.305,1.145,3.822,2.821c2.193,7.111,7.749,12.666,14.86,14.859,1.677.518,2.821,2.067,2.821,3.822s-1.144,3.305-2.821,3.822c-7.111,2.193-12.667,7.748-14.86,14.859-.517,1.677-2.067,2.821-3.822,2.821Zm-8.31-21.503c3.283,2.204,6.106,5.027,8.31,8.31,2.204-3.282,5.027-6.105,8.31-8.31-3.283-2.204-6.106-5.027-8.31-8.31-2.204,3.282-5.027,6.105-8.31,8.31Z" fill="url(#v)" stroke-width="0"/>
  </g>
  <g id="w" data-name="BELLOW SYMBOL">
    <g>
      <path d="m244.925,507.782c-2.209,0-4-1.791-4-4v-48.174c0-2.209,1.791-4,4-4s4,1.791,4,4v48.174c0,2.209-1.791,4-4,4Z" fill="url(#x)" stroke-width="0"/>
      <path d="m256.6,469.141h-23.349c-2.209,0-4-1.791-4-4s1.791-4,4-4h23.349c2.209,0,4,1.791,4,4s-1.791,4-4,4Z" fill="url(#y)" stroke-width="0"/>
      <path d="m271.962,507.782c-5.948,0-10.787-4.839-10.787-10.787v-7.175c0-3.377-2.748-6.125-6.125-6.125s-6.125,2.748-6.125,6.125v13.962c0,2.209-1.791,4-4,4s-4-1.791-4-4v-13.962c0-7.788,6.336-14.125,14.125-14.125s14.125,6.337,14.125,14.125v7.175c0,1.537,1.25,2.787,2.787,2.787s2.787-1.25,2.787-2.787v-3.49c0-2.209,1.791-4,4-4s4,1.791,4,4v3.49c0,5.948-4.839,10.787-10.787,10.787Z" fill="url(#z)" stroke-width="0"/>
    </g>
  </g>
  <g id="aa" data-name="TOP TRIANGLE SYMBOL">
    <path d="m279.759,32.948h-47.518c-2.209,0-4-1.791-4-4s1.791-4,4-4h47.518c2.209,0,4,1.791,4,4s-1.791,4-4,4Z" fill="url(#ab)" stroke-width="0"/>
    <path d="m256,48.898c-1.341,0-2.593-.672-3.334-1.79l-19.716-29.739c-.814-1.228-.887-2.804-.19-4.102.697-1.299,2.051-2.108,3.524-2.108h39.433c1.473,0,2.828.81,3.524,2.108.697,1.298.624,2.874-.19,4.102l-19.716,29.739c-.741,1.118-1.993,1.79-3.334,1.79Zm-12.265-29.739l12.265,18.5,12.265-18.5h-24.53Z" fill="url(#ac)" stroke-width="0"/>
  </g>
  <g id="ad" data-name="ZODIAC SIGN">
    <path d="m340.75,286.51c-8.17,0-15.85,2.17-22.48,5.95v-104.04c0-29.71-24.16-53.88-53.87-53.88-17.18,0-32.51,8.08-42.37,20.65-.003.004-.006.009-.01.013-9.872-12.564-25.188-20.658-42.369-20.658-29.707,0-53.875,24.168-53.875,53.874,0,6.352,5.149,11.5,11.5,11.5s11.5-5.148,11.5-11.5c0-17.024,13.85-30.874,30.875-30.874s30.874,13.85,30.874,30.874v147.59c0,3.6,1.656,6.81,4.245,8.919,1.979,1.613,4.504,2.582,7.259,2.582,6.35,0,11.5-5.15,11.5-11.5v-147.59c0-17.03,13.85-30.88,30.87-30.88s30.87,13.85,30.87,30.88v147.59c0,10.16-4.68,13.81-8.21,15.67-4.67,2.47-9.74,2.74-10.51,2.78l-.09,23h.07c2.16,0,18.69-.41,30.57-12.24.44-.44.86-.88,1.27-1.34,8.25,8.38,19.72,13.58,32.38,13.58,25.07,0,45.47-20.4,45.47-45.48s-20.4-45.47-45.47-45.47Zm0,67.95c-12.39,0-22.48-10.09-22.48-22.48s10.09-22.47,22.48-22.47,22.47,10.08,22.47,22.47-10.08,22.48-22.47,22.48Z" fill="url(#ae)" stroke-width="0"/>
  </g>
  <g id="af" data-name="OUTER CIRCLE">
    <path d="m296.865,497.359c-1.902,0-3.596-1.358-3.942-3.295-.389-2.175,1.048-4.252,3.223-4.641l.217-.035c113.829-19.546,196.447-117.699,196.447-233.388S410.192,42.157,296.363,22.622c-2.177-.374-3.639-2.441-3.266-4.619s2.44-3.638,4.619-3.266c56.207,9.646,107.631,39.01,144.798,82.683,37.592,44.172,58.295,100.489,58.295,158.58s-20.703,114.408-58.295,158.581c-37.167,43.673-88.591,73.04-144.798,82.691-.023.004-.118.019-.142.022-.238.043-.476.063-.71.063Z" fill="url(#ag)" stroke-width="0"/>
    <path d="m215.154,497.361c-.233,0-.47-.021-.708-.063-.012-.002-.116-.018-.128-.02-56.242-9.657-107.666-39.024-144.833-82.697-37.592-44.173-58.295-100.491-58.295-158.581s20.703-114.408,58.295-158.58C106.652,53.747,158.076,24.383,214.283,14.737c2.178-.371,4.245,1.088,4.619,3.266.374,2.178-1.088,4.245-3.266,4.619C101.808,42.157,19.19,140.307,19.19,256s82.618,213.842,196.447,233.388l.217.035c2.175.389,3.623,2.467,3.233,4.642-.346,1.937-2.032,3.297-3.933,3.297Z" fill="url(#ah)" stroke-width="0"/>
  </g>
</svg>