<?xml version="1.0" encoding="UTF-8"?>
<svg xmlns="http://www.w3.org/2000/svg" width="512" height="512" xmlns:xlink="http://www.w3.org/1999/xlink" viewBox="0 0 512 512">
  <defs>
    <linearGradient id="d" x1="28.693" y1="19.918" x2="498.258" y2="498.875" gradientUnits="userSpaceOnUse">
      <stop offset="0" stop-color="#fff766"/>
      <stop offset="1" stop-color="#ff7c36"/>
    </linearGradient>
    <linearGradient id="e" x1="-22.934" y1="70.533" x2="446.631" y2="549.49" xlink:href="#d"/>
    <linearGradient id="f" x1="-108.005" y1="153.936" x2="361.56" y2="632.892" xlink:href="#d"/>
    <linearGradient id="g" x1="78.046" y1="-28.467" x2="547.611" y2="450.49" xlink:href="#d"/>
    <linearGradient id="h" x1="163.499" y1="-112.245" x2="633.064" y2="366.712" xlink:href="#d"/>
    <linearGradient id="l" x1="28.294" y1="20.309" x2="497.859" y2="499.266" xlink:href="#d"/>
    <linearGradient id="m" x1="-71.593" y1="118.237" x2="397.973" y2="597.194" xlink:href="#d"/>
    <linearGradient id="o" x1="-90.308" y1="136.586" x2="379.257" y2="615.543" xlink:href="#d"/>
    <linearGradient id="p" x1="-73.74" y1="120.343" x2="395.825" y2="599.299" xlink:href="#d"/>
    <linearGradient id="q" x1="-73.74" y1="120.343" x2="395.825" y2="599.299" xlink:href="#d"/>
    <linearGradient id="r" x1="-69.268" y1="115.958" x2="400.298" y2="594.915" xlink:href="#d"/>
    <linearGradient id="t" x1="134.516" y1="-83.83" x2="604.081" y2="395.126" xlink:href="#d"/>
    <linearGradient id="v" x1="37.822" y1="10.968" x2="507.387" y2="489.925" xlink:href="#d"/>
    <linearGradient id="x" x1="63.647" y1="-14.35" x2="533.212" y2="464.606" xlink:href="#d"/>
    <linearGradient id="y" x1="-10.544" y1="58.386" x2="459.021" y2="537.342" xlink:href="#d"/>
  </defs>
  <g id="c" data-name="CIRCLE LINES">
    <path d="m351.363,408.577c-6.407,0-12.881-1.392-19.028-4.231-16.244-7.504-26.335-23.257-26.335-41.113v-54.705c0-2.209,1.791-4,4-4s4,1.791,4,4v54.705c0,14.7,8.311,27.671,21.69,33.852,13.248,6.119,28.351,4.068,39.417-5.354,41.132-35.019,64.723-86.055,64.723-140.021,0-101.364-82.466-183.83-183.83-183.83S72.337,150.207,72.17,251.401c-.089,54.013,23.448,105.115,64.576,140.205,11.122,9.488,26.292,11.57,39.594,5.437,13.36-6.163,21.66-19.12,21.66-33.815v-54.699c0-2.209,1.791-4,4-4s4,1.791,4,4v54.699c0,17.854-10.081,33.594-26.309,41.08-16.171,7.457-34.614,4.923-48.138-6.615-42.916-36.615-67.477-89.941-67.383-146.305.084-51.304,20.043-99.437,56.201-135.533,36.157-36.095,84.324-55.974,135.629-55.974,105.775,0,191.83,86.055,191.83,191.83,0,56.314-24.616,109.57-67.537,146.112-8.331,7.093-18.542,10.755-28.931,10.755Z" fill="url(#d)" stroke-width="0"/>
    <path d="m42.034,241.1c-.091,0-.182-.003-.274-.009-2.204-.149-3.87-2.058-3.721-4.262,3.565-52.648,26.11-102.226,63.482-139.598,1.562-1.562,4.094-1.562,5.657,0,1.562,1.562,1.562,4.095,0,5.656-36.004,36.004-57.724,83.764-61.158,134.482-.143,2.111-1.901,3.729-3.987,3.729Z" fill="url(#e)" stroke-width="0"/>
    <path d="m104.35,407.36c-1.024,0-2.047-.391-2.829-1.172-35.121-35.121-57.395-81.595-62.719-130.859-.237-2.196,1.351-4.169,3.547-4.406,2.202-.231,4.169,1.351,4.407,3.547,5.128,47.456,26.586,92.227,60.422,126.062,1.562,1.562,1.562,4.095,0,5.656-.781.781-1.805,1.172-2.829,1.172Z" fill="url(#f)" stroke-width="0"/>
    <path d="m407.65,407.36c-1.024,0-2.047-.391-2.829-1.172-1.562-1.562-1.562-4.095,0-5.656,33.835-33.836,55.294-78.606,60.422-126.062.238-2.195,2.208-3.777,4.407-3.547,2.196.237,3.785,2.21,3.547,4.406-5.324,49.265-27.598,95.738-62.719,130.859-.781.781-1.805,1.172-2.829,1.172Z" fill="url(#g)" stroke-width="0"/>
    <path d="m469.966,241.1c-2.086,0-3.844-1.617-3.987-3.729-3.435-50.719-25.154-98.479-61.158-134.482-1.562-1.562-1.562-4.095,0-5.656,1.563-1.562,4.095-1.562,5.657,0,37.372,37.372,59.917,86.949,63.482,139.598.149,2.204-1.517,4.112-3.721,4.262-.092.006-.183.009-.274.009Z" fill="url(#h)" stroke-width="0"/>
  </g>
  <g id="k" data-name="STARS">
    <g>
      <path d="m353.947,373.979c-1.755,0-3.305-1.145-3.822-2.821-2.193-7.111-7.748-12.666-14.86-14.859-1.677-.517-2.821-2.067-2.821-3.822s1.144-3.306,2.821-3.822c7.112-2.193,12.667-7.748,14.86-14.86.517-1.677,2.067-2.821,3.822-2.821s3.305,1.145,3.822,2.821c2.193,7.112,7.748,12.667,14.86,14.86,1.677.518,2.821,2.067,2.821,3.822s-1.144,3.305-2.821,3.822c-7.112,2.193-12.667,7.748-14.86,14.859-.517,1.677-2.067,2.821-3.822,2.821Zm-8.31-21.503c3.283,2.204,6.106,5.026,8.31,8.31,2.204-3.283,5.027-6.105,8.31-8.31-3.283-2.204-6.106-5.027-8.31-8.311-2.204,3.283-5.027,6.106-8.31,8.311Z" fill="url(#l)" stroke-width="0"/>
      <path d="m158.053,373.979c-1.755,0-3.305-1.145-3.822-2.821-2.193-7.111-7.748-12.666-14.86-14.859-1.677-.518-2.821-2.067-2.821-3.822s1.144-3.305,2.821-3.822c7.112-2.193,12.667-7.748,14.86-14.86.517-1.677,2.067-2.821,3.822-2.821s3.305,1.145,3.822,2.821c2.193,7.112,7.748,12.667,14.86,14.86,1.677.517,2.821,2.067,2.821,3.822s-1.144,3.306-2.821,3.822c-7.112,2.193-12.667,7.748-14.86,14.859-.517,1.677-2.067,2.821-3.822,2.821Zm-8.31-21.503c3.283,2.204,6.106,5.026,8.31,8.31,2.204-3.283,5.027-6.105,8.31-8.31-3.283-2.204-6.106-5.027-8.31-8.311-2.204,3.283-5.027,6.106-8.31,8.311Z" fill="url(#m)" stroke-width="0"/>
    </g>
  </g>
  <g id="n" data-name="BELLOW SYMBOL">
    <g>
      <g>
        <path d="m248.89,497.353c-3.788,0-7.576-1.441-10.459-4.324-5.768-5.769-5.768-15.152,0-20.92s15.152-5.768,20.92,0,5.768,15.151,0,20.919c-2.884,2.884-6.672,4.325-10.46,4.325Zm0-21.574c-1.739,0-3.479.662-4.803,1.986-2.648,2.648-2.648,6.958,0,9.606,2.648,2.647,6.958,2.648,9.606,0,2.648-2.647,2.648-6.957,0-9.605-1.324-1.324-3.063-1.986-4.803-1.986Z" fill="url(#o)" stroke-width="0"/>
        <g>
          <line x1="256.521" y1="474.936" x2="274.073" y2="457.385" fill="url(#p)" stroke-width="0"/>
          <path d="m256.521,478.937c-1.024,0-2.047-.391-2.829-1.172-1.562-1.562-1.562-4.095,0-5.656l17.552-17.552c1.562-1.562,4.095-1.562,5.657,0,1.562,1.562,1.562,4.095,0,5.656l-17.552,17.552c-.781.781-1.805,1.172-2.829,1.172Z" fill="url(#q)" stroke-width="0"/>
        </g>
      </g>
      <path d="m274.158,478.937c-2.209,0-4-1.791-4-4v-13.723h-13.722c-2.209,0-4-1.791-4-4s1.791-4,4-4h17.722c2.209,0,4,1.791,4,4v17.723c0,2.209-1.791,4-4,4Z" fill="url(#r)" stroke-width="0"/>
    </g>
  </g>
  <g id="s" data-name="TOP TRIANGLE SYMBOL">
    <path d="m275.716,48.898h-39.433c-1.473,0-2.828-.81-3.524-2.108-.697-1.298-.624-2.874.19-4.102l19.716-29.739c.741-1.118,1.993-1.79,3.334-1.79s2.593.672,3.334,1.79l19.716,29.739c.814,1.228.887,2.804.19,4.102-.697,1.299-2.051,2.108-3.524,2.108Zm-31.981-8h24.53l-12.265-18.5-12.265,18.5Z" fill="url(#t)" stroke-width="0"/>
  </g>
  <g id="u" data-name="ZODIAC SIGN">
    <path d="m394.662,164.667c-5.74-11.047-14.612-19.919-25.658-25.658-24.762-12.865-51.742-12.481-74.027,1.054-21.647,13.147-34.571,36.102-34.571,61.403v207.012c0,2.359-1.919,4.278-4.278,4.278h-.256c-2.359,0-4.278-1.919-4.278-4.278v-207.012c0-25.301-12.924-48.256-34.571-61.403-22.285-13.534-49.266-13.919-74.026-1.054-11.046,5.739-19.918,14.611-25.658,25.658-12.865,24.761-12.48,51.742,1.054,74.026,13.147,21.647,36.102,34.571,61.403,34.571,6.351,0,11.5-5.149,11.5-11.5s-5.149-11.5-11.5-11.5c-17.198,0-32.804-8.789-41.745-23.511-9.266-15.255-9.376-34.02-.303-51.483,3.546-6.825,9.028-12.306,15.853-15.852,17.462-9.073,36.228-8.962,51.483.303,14.722,8.941,23.511,24.547,23.511,41.745v207.012c0,15.041,12.237,27.278,27.278,27.278h.256c15.041,0,27.278-12.237,27.278-27.278v-207.012c0-17.198,8.789-32.804,23.511-41.745,15.255-9.265,34.02-9.376,51.483-.302,6.824,3.545,12.306,9.027,15.852,15.852,9.073,17.462,8.962,36.227-.303,51.482-8.941,14.722-24.547,23.511-41.746,23.511-6.351,0-11.5,5.149-11.5,11.5s5.149,11.5,11.5,11.5c25.302,0,48.256-12.924,61.404-34.571,13.535-22.285,13.918-49.266,1.054-74.026Z" fill="url(#v)" stroke-width="0"/>
  </g>
  <g id="w" data-name="OUTER CIRCLE">
    <path d="m296.865,497.359c-1.902,0-3.596-1.358-3.942-3.295-.389-2.175,1.048-4.252,3.223-4.641l.217-.035c113.829-19.546,196.447-117.699,196.447-233.388S410.192,42.157,296.363,22.622c-2.177-.374-3.639-2.441-3.266-4.619s2.439-3.64,4.619-3.266c56.207,9.646,107.631,39.01,144.798,82.683,37.592,44.172,58.295,100.489,58.295,158.58s-20.703,114.408-58.295,158.581c-37.167,43.673-88.591,73.04-144.798,82.691-.023.004-.118.019-.142.022-.238.043-.476.063-.71.063Z" fill="url(#x)" stroke-width="0"/>
    <path d="m215.154,497.361c-.233,0-.47-.021-.708-.063-.012-.002-.116-.018-.128-.02-56.242-9.657-107.666-39.024-144.833-82.697-37.592-44.173-58.295-100.491-58.295-158.581s20.703-114.408,58.295-158.58C106.652,53.747,158.076,24.383,214.283,14.737c2.177-.373,4.245,1.088,4.619,3.266.374,2.178-1.088,4.245-3.266,4.619C101.808,42.157,19.19,140.307,19.19,256s82.618,213.842,196.447,233.388l.217.035c2.175.389,3.623,2.467,3.233,4.642-.346,1.937-2.032,3.297-3.933,3.297Z" fill="url(#y)" stroke-width="0"/>
  </g>
</svg>