<?xml version="1.0" encoding="UTF-8"?>
<svg xmlns="http://www.w3.org/2000/svg" width="512" height="512" xmlns:xlink="http://www.w3.org/1999/xlink" viewBox="0 0 512 512">
  <defs>
    <linearGradient id="d" x1="-17.446" y1="51.908" x2="461.51" y2="537.908" gradientUnits="userSpaceOnUse">
      <stop offset="0" stop-color="#fff766"/>
      <stop offset="1" stop-color="#ff7c36"/>
    </linearGradient>
    <linearGradient id="e" x1="45.465" y1="-10.091" x2="524.422" y2="475.909" xlink:href="#d"/>
    <linearGradient id="f" x1="-31.867" y1="66.12" x2="447.09" y2="552.12" xlink:href="#d"/>
    <linearGradient id="g" x1="-123.222" y1="156.152" x2="355.734" y2="642.152" xlink:href="#d"/>
    <linearGradient id="h" x1="60.89" y1="-25.292" x2="539.846" y2="460.708" xlink:href="#d"/>
    <linearGradient id="i" x1="156.522" y1="-119.539" x2="635.479" y2="366.461" xlink:href="#d"/>
    <linearGradient id="j" x1="72.728" y1="-36.959" x2="551.685" y2="449.041" xlink:href="#d"/>
    <linearGradient id="k" x1="-23.32" y1="57.697" x2="455.637" y2="543.697" xlink:href="#d"/>
    <linearGradient id="l" x1="132.212" y1="-95.581" x2="611.169" y2="390.419" xlink:href="#d"/>
    <linearGradient id="n" x1="174.484" y1="-137.24" x2="653.441" y2="348.76" xlink:href="#d"/>
    <linearGradient id="o" x1="-130.456" y1="163.281" x2="348.5" y2="649.281" xlink:href="#d"/>
    <linearGradient id="p" x1="23.409" y1="11.646" x2="502.365" y2="497.646" xlink:href="#d"/>
    <linearGradient id="q" x1="20.619" y1="14.395" x2="499.575" y2="500.395" xlink:href="#d"/>
    <linearGradient id="t" x1="114.216" y1="-77.846" x2="593.173" y2="408.154" xlink:href="#d"/>
    <linearGradient id="u" x1="-28.695" y1="62.994" x2="450.261" y2="548.994" xlink:href="#d"/>
    <linearGradient id="v" x1="-5.387" y1="40.024" x2="473.57" y2="526.024" xlink:href="#d"/>
    <linearGradient id="x" x1="-85.969" y1="119.438" x2="392.988" y2="605.438" xlink:href="#d"/>
    <linearGradient id="y" x1="-97.388" y1="130.692" x2="381.569" y2="616.692" xlink:href="#d"/>
    <linearGradient id="z" x1="-98.592" y1="131.878" x2="380.365" y2="617.878" xlink:href="#d"/>
    <linearGradient id="ab" x1="127.211" y1="-90.652" x2="606.167" y2="395.348" xlink:href="#d"/>
    <linearGradient id="ad" x1="18.278" y1="16.702" x2="497.235" y2="502.702" xlink:href="#d"/>
    <linearGradient id="ae" x1="-6.75" y1="41.367" x2="472.207" y2="527.367" xlink:href="#d"/>
    <linearGradient id="af" x1="-2.065" y1="36.75" x2="476.892" y2="522.75" xlink:href="#d"/>
    <linearGradient id="ah" x1="56.046" y1="-20.519" x2="535.003" y2="465.481" xlink:href="#d"/>
    <linearGradient id="ai" x1="-17.606" y1="52.066" x2="461.35" y2="538.066" xlink:href="#d"/>
  </defs>
  <g id="c" data-name="CIRCLE LINES">
    <path d="m256,443.54c-39.787,0-77.949-12.072-110.362-34.913-31.691-22.331-55.631-53.234-69.231-89.368-.777-2.067.268-4.375,2.335-5.152,2.066-.782,4.374.267,5.152,2.334,26.812,71.237,95.976,119.1,172.106,119.1s145.295-47.862,172.106-119.1c.776-2.066,3.083-3.115,5.152-2.334,2.067.777,3.112,3.085,2.335,5.152-13.601,36.134-37.54,67.037-69.231,89.368-32.413,22.841-70.575,34.913-110.362,34.913Z" fill="url(#d)" stroke-width="0"/>
    <path d="m442.925,237.28c-2.034,0-3.775-1.546-3.977-3.612-9.194-94.515-87.846-165.788-182.948-165.788S82.246,139.153,73.052,233.668c-.214,2.198-2.17,3.81-4.369,3.594-2.198-.214-3.808-2.17-3.594-4.369,4.59-47.179,26.485-90.833,61.652-122.922,35.4-32.302,81.305-50.091,129.259-50.091s93.858,17.789,129.259,50.091c35.167,32.089,57.062,75.743,61.652,122.922.214,2.199-1.396,4.155-3.594,4.369-.132.013-.263.019-.393.019Z" fill="url(#e)" stroke-width="0"/>
    <path d="m42.325,237.28c-.115,0-.23-.005-.347-.015-2.201-.188-3.832-2.126-3.644-4.327,4.179-48.704,23.904-93.421,57.045-129.315,1.497-1.623,4.028-1.725,5.652-.225,1.623,1.498,1.724,4.028.225,5.652-31.924,34.577-50.926,77.653-54.951,124.571-.179,2.085-1.927,3.658-3.98,3.658Z" fill="url(#f)" stroke-width="0"/>
    <path d="m97.136,399.791c-1.088,0-2.172-.441-2.962-1.311-20.999-23.115-36.488-49.83-46.04-79.401-.679-2.103.475-4.356,2.577-5.036,2.103-.676,4.357.476,5.036,2.577,9.198,28.481,24.12,54.213,44.349,76.481,1.485,1.635,1.364,4.165-.271,5.65-.766.696-1.729,1.039-2.688,1.039Z" fill="url(#g)" stroke-width="0"/>
    <path d="m414.858,399.781c-.955,0-1.912-.339-2.677-1.028-1.641-1.479-1.772-4.008-.294-5.649,20.05-22.25,35.392-48.697,44.365-76.483.679-2.102,2.931-3.253,5.036-2.577,2.103.68,3.256,2.934,2.577,5.036-9.318,28.85-25.236,56.299-46.035,79.38-.79.876-1.88,1.322-2.973,1.322Z" fill="url(#h)" stroke-width="0"/>
    <path d="m469.675,237.28c-2.055,0-3.802-1.573-3.98-3.658-4.02-46.853-22.979-89.882-54.827-124.437-1.497-1.624-1.394-4.155.23-5.652,1.625-1.495,4.154-1.394,5.652.23,33.062,35.871,52.742,80.538,56.915,129.175.188,2.201-1.442,4.139-3.644,4.327-.116.01-.231.015-.347.015Z" fill="url(#i)" stroke-width="0"/>
    <path d="m354.965,155.306c-1.357,0-2.682-.691-3.433-1.94-20.357-33.866-56.071-54.085-95.532-54.085s-75.175,20.219-95.532,54.085c-1.139,1.895-3.598,2.506-5.489,1.368-1.894-1.139-2.506-3.597-1.368-5.489,10.431-17.351,25.201-31.875,42.717-42.003,18.058-10.441,38.692-15.961,59.673-15.961s41.615,5.52,59.673,15.961c17.516,10.128,32.286,24.652,42.717,42.003,1.138,1.893.525,4.351-1.368,5.489-.645.388-1.355.572-2.057.572Z" fill="url(#j)" stroke-width="0"/>
    <path d="m256,398.852c-20.98,0-41.615-5.52-59.673-15.961-17.516-10.128-32.286-24.652-42.717-42.003-1.138-1.894-.525-4.351,1.368-5.489,1.892-1.138,4.351-.526,5.489,1.368,20.357,33.866,56.071,54.085,95.532,54.085s75.175-20.219,95.532-54.085c1.139-1.895,3.597-2.506,5.489-1.368,1.894,1.139,2.506,3.596,1.368,5.489-10.431,17.351-25.201,31.875-42.717,42.003-18.058,10.441-38.692,15.961-59.673,15.961Z" fill="url(#k)" stroke-width="0"/>
    <path d="m279.759,34.027h-47.518c-2.209,0-4-1.791-4-4s1.791-4,4-4h47.518c2.209,0,4,1.791,4,4s-1.791,4-4,4Z" fill="url(#l)" stroke-width="0"/>
  </g>
  <g id="m" data-name="PLANETS">
    <g>
      <path d="m407.651,112.584c-3.533,0-6.855-1.375-9.354-3.874-5.158-5.157-5.158-13.551,0-18.708,5.156-5.158,13.551-5.158,18.707,0,5.157,5.158,5.157,13.55,0,18.708-2.499,2.499-5.821,3.874-9.354,3.874Zm0-18.454c-1.339,0-2.678.509-3.697,1.528-2.038,2.039-2.038,5.356,0,7.396,2.039,2.037,5.355,2.037,7.395,0,2.038-2.039,2.038-5.356,0-7.396-1.019-1.019-2.357-1.528-3.696-1.528Z" fill="url(#n)" stroke-width="0"/>
      <path d="m104.349,414.767c-3.533,0-6.855-1.376-9.354-3.875h0c-4.752-4.752-5.19-12.303-1.019-17.563.313-.396.657-.781,1.02-1.144,5.156-5.158,13.551-5.158,18.707,0,2.499,2.498,3.875,5.82,3.875,9.354s-1.376,6.855-3.875,9.354-5.819,3.874-9.354,3.874Zm0-18.454c-1.339,0-2.678.51-3.697,1.528-.146.146-.281.299-.406.457-1.647,2.076-1.472,5.059.406,6.938h0c.987.987,2.3,1.531,3.696,1.531s2.709-.544,3.696-1.531,1.532-2.301,1.532-3.697-.544-2.709-1.531-3.697c-1.02-1.019-2.358-1.528-3.697-1.528Z" fill="url(#o)" stroke-width="0"/>
    </g>
    <path d="m407.651,414.767c-3.534,0-6.855-1.376-9.354-3.875s-3.874-5.819-3.874-9.354,1.376-6.855,3.875-9.354c2.498-2.499,5.82-3.874,9.354-3.874s6.855,1.375,9.354,3.874c5.157,5.158,5.157,13.551,0,18.707-2.498,2.499-5.819,3.875-9.354,3.875Zm0-18.454c-1.339,0-2.678.509-3.697,1.528-.987.988-1.531,2.301-1.531,3.697s.544,2.709,1.531,3.696,2.301,1.532,3.697,1.532,2.709-.544,3.696-1.531c2.039-2.038,2.039-5.355,0-7.395-1.019-1.019-2.357-1.528-3.696-1.528Z" fill="url(#p)" stroke-width="0"/>
    <path d="m104.349,112.584c-3.533,0-6.855-1.375-9.354-3.874-5.157-5.158-5.157-13.55,0-18.708h0c5.156-5.158,13.551-5.158,18.707,0,5.158,5.157,5.158,13.551,0,18.708-2.498,2.499-5.82,3.874-9.354,3.874Zm-3.697-16.926c-2.038,2.039-2.038,5.356,0,7.396s5.354,2.039,7.394,0c2.038-2.039,2.038-5.356,0-7.396-2.039-2.037-5.355-2.037-7.395,0h0Z" fill="url(#q)" stroke-width="0"/>
  </g>
  <g id="s" data-name="STARS">
    <g>
      <path d="m373.882,207.143c-1.755,0-3.306-1.145-3.822-2.821-2.193-7.112-7.748-12.667-14.859-14.86-1.677-.517-2.821-2.067-2.821-3.822s1.145-3.306,2.821-3.822c7.111-2.193,12.666-7.748,14.859-14.859.517-1.677,2.067-2.821,3.822-2.821s3.306,1.145,3.822,2.821c2.193,7.111,7.748,12.666,14.86,14.859,1.677.517,2.821,2.067,2.821,3.822s-1.145,3.306-2.821,3.822c-7.112,2.193-12.667,7.748-14.86,14.86-.517,1.677-2.067,2.821-3.822,2.821Zm-8.31-21.504c3.283,2.204,6.105,5.027,8.31,8.311,2.204-3.283,5.027-6.106,8.311-8.311-3.283-2.204-6.106-5.026-8.311-8.31-2.204,3.283-5.026,6.105-8.31,8.31Z" fill="url(#t)" stroke-width="0"/>
      <path d="m256,373.379c-1.755,0-3.306-1.145-3.822-2.821-2.193-7.111-7.748-12.666-14.859-14.859-1.677-.518-2.821-2.067-2.821-3.822s1.145-3.305,2.821-3.822c7.111-2.193,12.666-7.748,14.859-14.86.517-1.677,2.067-2.821,3.822-2.821s3.306,1.145,3.822,2.821c2.193,7.112,7.748,12.667,14.859,14.86,1.677.518,2.821,2.067,2.821,3.822s-1.145,3.305-2.821,3.822c-7.111,2.193-12.666,7.748-14.859,14.859-.517,1.677-2.067,2.821-3.822,2.821Zm-8.31-21.503c3.282,2.204,6.105,5.026,8.31,8.31,2.204-3.283,5.027-6.105,8.31-8.31-3.282-2.204-6.105-5.027-8.31-8.311-2.204,3.283-5.027,6.106-8.31,8.311Z" fill="url(#u)" stroke-width="0"/>
      <path d="m138.118,207.143c-1.755,0-3.306-1.145-3.822-2.821-2.193-7.112-7.748-12.667-14.86-14.86-1.677-.517-2.821-2.067-2.821-3.822s1.145-3.306,2.821-3.822c7.112-2.193,12.667-7.748,14.86-14.859.517-1.677,2.067-2.821,3.822-2.821s3.306,1.145,3.822,2.821c2.193,7.111,7.748,12.666,14.859,14.859,1.677.517,2.821,2.067,2.821,3.822s-1.145,3.306-2.821,3.822c-7.111,2.193-12.666,7.748-14.859,14.86-.517,1.677-2.067,2.821-3.822,2.821Zm-8.311-21.504c3.283,2.204,6.106,5.027,8.311,8.311,2.204-3.283,5.026-6.106,8.31-8.311-3.283-2.204-6.105-5.026-8.31-8.31-2.204,3.283-5.027,6.105-8.311,8.31Z" fill="url(#v)" stroke-width="0"/>
    </g>
  </g>
  <g id="w" data-name="BELLOW SYMBOL">
    <g>
      <path d="m256,481.228c-8.156,0-14.792-6.636-14.792-14.792s6.636-14.792,14.792-14.792,14.792,6.636,14.792,14.792-6.636,14.792-14.792,14.792Zm0-21.584c-3.745,0-6.792,3.047-6.792,6.792s3.047,6.792,6.792,6.792,6.792-3.047,6.792-6.792-3.047-6.792-6.792-6.792Z" fill="url(#x)" stroke-width="0"/>
      <path d="m256,505.325c-2.209,0-4-1.791-4-4v-24.098c0-2.209,1.791-4,4-4s4,1.791,4,4v24.098c0,2.209-1.791,4-4,4Z" fill="url(#y)" stroke-width="0"/>
      <path d="m267.722,495.685h-23.443c-2.209,0-4-1.791-4-4s1.791-4,4-4h23.443c2.209,0,4,1.791,4,4s-1.791,4-4,4Z" fill="url(#z)" stroke-width="0"/>
    </g>
  </g>
  <g id="aa" data-name="TOP TRIANGLE SYMBOL">
    <path d="m275.717,48.898h-39.434c-1.474,0-2.827-.81-3.524-2.108-.696-1.298-.624-2.874.19-4.102l19.717-29.739c.741-1.118,1.993-1.79,3.334-1.79s2.593.672,3.334,1.79l19.717,29.739c.814,1.228.887,2.804.19,4.102-.697,1.299-2.051,2.108-3.524,2.108Zm-31.982-8h24.531l-12.266-18.5-12.266,18.5Z" fill="url(#ab)" stroke-width="0"/>
  </g>
  <g id="ac" data-name="ZODIAC SIGN">
    <g>
      <g>
        <path d="m422.35,246.42h-94.42c4.32-9.87,6.61-20.62,6.61-31.55,0-43.31-35.23-78.54-78.54-78.54s-78.54,35.23-78.54,78.54c0,10.93,2.29,21.68,6.61,31.55h-94.42c-6.35,0-11.51,5.15-11.51,11.5s5.16,11.5,11.51,11.5h114.95c.17,0,.34,0,.5-.01.1,0,.21-.01.32-.02.39-.03.77-.07,1.14-.14.16-.02.32-.06.48-.09.3-.07.6-.14.89-.23.18-.05.35-.11.53-.18.28-.1.56-.21.83-.33.1-.04.2-.09.3-.14.16-.08.33-.16.49-.25.16-.09.33-.18.48-.28.16-.09.32-.19.47-.3.15-.1.3-.21.45-.32.15-.11.29-.22.43-.34.44-.35.84-.74,1.22-1.16.36-.4.7-.83,1-1.28.11-.15.21-.31.3-.47.1-.15.19-.32.28-.48.08-.15.16-.3.23-.45.05-.09.09-.18.13-.27.08-.18.16-.36.23-.55.08-.19.15-.38.21-.58.07-.2.13-.39.18-.59.06-.2.11-.4.15-.6.04-.2.08-.4.11-.6.04-.21.06-.41.08-.61.05-.41.07-.82.07-1.23,0-.17,0-.33-.01-.49-.01-.12-.01-.24-.02-.36-.01-.12-.02-.23-.03-.35-.02-.13-.03-.27-.05-.4-.02-.12-.04-.23-.06-.35-.02-.16-.05-.32-.09-.49-.19-.89-.49-1.74-.88-2.55-.06-.14-.14-.28-.21-.42-.1-.19-.21-.37-.32-.55-.09-.16-.19-.32-.3-.47-.1-.15-.21-.3-.32-.45-.11-.15-.22-.29-.34-.43-.02-.03-.04-.06-.06-.08-8.35-9.96-12.95-22.62-12.95-35.66,0-30.62,24.92-55.54,55.54-55.54s55.54,24.92,55.54,55.54c0,13.04-4.6,25.7-12.95,35.66-.02.02-.04.05-.06.08-.12.14-.23.28-.34.43-.11.15-.22.3-.32.45-.11.15-.21.31-.3.47-.11.18-.22.36-.32.55-.07.14-.15.28-.21.42-.39.81-.69,1.66-.88,2.55-.04.17-.07.33-.09.49-.02.12-.04.23-.06.35-.02.13-.03.27-.05.4-.01.12-.02.23-.03.35-.01.12-.01.24-.02.36-.01.16-.01.32-.01.49,0,.41.02.82.07,1.23.02.2.04.4.08.61.03.2.07.4.11.6.04.2.09.4.15.6.05.2.11.39.18.59.06.2.13.39.21.58.07.19.15.37.23.55.04.09.08.18.13.27.07.15.15.3.23.45.09.16.18.33.28.48.09.16.19.32.3.47.3.45.64.88,1,1.28.38.42.78.81,1.22,1.16.14.12.28.23.43.34.15.11.3.22.45.32.15.11.31.21.47.3.15.1.32.19.48.28.16.09.33.17.49.25.1.05.2.1.3.14.27.12.55.23.83.33.18.07.35.13.53.18.29.09.59.16.89.23.16.03.32.07.48.09.37.07.75.11,1.14.14.11.01.22.02.32.02.16.01.33.01.5.01h114.95c6.35,0,11.51-5.15,11.51-11.5s-5.16-11.5-11.51-11.5Z" fill="url(#ad)" stroke-width="0"/>
        <path d="m213.13,265.627c.37-.4.71-.83,1-1.28-.3.45-.64.88-1,1.28Z" fill="url(#ae)" stroke-width="0"/>
      </g>
      <path d="m404.68,287.11H107.32c-6.35,0-11.5,5.15-11.5,11.5s5.15,11.5,11.5,11.5h297.36c6.35,0,11.5-5.15,11.5-11.5s-5.15-11.5-11.5-11.5Z" fill="url(#af)" stroke-width="0"/>
    </g>
  </g>
  <g id="ag" data-name="OUTER CIRCLE">
    <path d="m296.956,497.343c-1.933,0-3.673-1.384-3.995-3.34-.357-2.161,1.033-4.198,3.189-4.581l.21-.034c113.831-19.545,196.449-117.699,196.449-233.388S410.192,42.156,296.363,22.622c-2.177-.374-3.64-2.441-3.266-4.619.373-2.178,2.437-3.639,4.619-3.266,56.207,9.646,107.631,39.01,144.798,82.683,37.592,44.171,58.295,100.489,58.295,158.58s-20.703,114.408-58.295,158.581c-37.167,43.673-88.59,73.04-144.798,82.691-.023.004-.123.02-.147.023-.206.031-.411.047-.613.047Z" fill="url(#ah)" stroke-width="0"/>
    <path d="m215.155,497.361c-.232,0-.467-.021-.704-.062-.014-.002-.124-.02-.139-.021-56.237-9.656-107.66-39.023-144.827-82.696-37.592-44.173-58.295-100.491-58.295-158.581s20.703-114.409,58.295-158.58C106.652,53.747,158.076,24.383,214.283,14.737c2.184-.372,4.246,1.088,4.619,3.266.374,2.178-1.089,4.245-3.266,4.619C101.808,42.156,19.19,140.307,19.19,256s82.618,213.843,196.446,233.388l.213.034c2.175.386,3.625,2.462,3.239,4.638-.344,1.938-2.031,3.302-3.934,3.302Z" fill="url(#ai)" stroke-width="0"/>
  </g>
</svg>