<?xml version="1.0" encoding="UTF-8"?>
<svg id="Layer_2" data-name="Layer 2" xmlns="http://www.w3.org/2000/svg" viewBox="0 0 111.54 111.16">
  <defs>
    <style>
      .cls-1 {
        fill: #fff;
      }
    </style>
  </defs>
  <g id="Layer_1-2" data-name="Layer 1">
    <g>
      <path class="cls-1" d="M111.54,0v111.16H0V0h111.54ZM111.12,55.22C111.12,24.73,86.39,0,55.89,0S.67,24.73.67,55.22s24.72,55.22,55.22,55.22,55.22-24.72,55.22-55.22Z"/>
      <path d="M111.12,55.22c0,30.5-24.72,55.22-55.22,55.22S.67,85.72.67,55.22,25.4,0,55.89,0s55.22,24.72,55.22,55.22ZM109.03,55.24c0-29.35-23.79-53.15-53.15-53.15S2.74,25.89,2.74,55.24s23.79,53.15,53.15,53.15,53.15-23.79,53.15-53.15Z"/>
      <path class="cls-1" d="M109.03,55.24c0,29.35-23.79,53.15-53.15,53.15S2.74,84.59,2.74,55.24,26.53,2.1,55.88,2.1s53.15,23.79,53.15,53.15ZM50.96,8.5C22.68,11.32,3.48,38.81,10.07,66.56c.39,1.62,1.34,3.36,1.38,5.08L50.96,8.5ZM100.08,71.65c5.56-14.98,3.04-31.92-6.5-44.65-7.66-10.22-19.82-17.38-32.64-18.5l39.14,63.15ZM70.17,36.19l-14.22-23.26-14.59,23.26h28.81ZM72.06,58.71c0-8.94-7.24-16.18-16.18-16.18s-16.18,7.24-16.18,16.18,7.24,16.18,16.18,16.18,16.18-7.24,16.18-16.18ZM33.61,49.49l-16.25,25.48c1.64.79,2.98-.01,4.6-.01,2.39,0,9.31.94,10.91.2.17-.08.74-.67.74-.73v-24.93ZM78.3,49.86v24.56c0,1.16,5.39.49,6.48.54,2.52.1,5.95.84,8.48.38.54-.1.97-.29.94-.91l-14.79-24.01-1.1-.56ZM94.92,81.25H16.62c18.12,27.01,57.59,28.19,77.18,2.02.25-.34,1.41-1.77,1.12-2.02Z"/>
      <path d="M94.92,81.25c.29.26-.87,1.69-1.12,2.02-19.58,26.16-59.06,24.98-77.18-2.02h78.3ZM21.05,83.1c.84,2.2,3.53,4.71,5.37,6.27,14.09,11.98,34.25,14.23,50.65,5.61,5.15-2.71,9.83-6.76,13.61-11.14l-.37-.74H21.05Z"/>
      <path d="M50.96,8.5L11.45,71.65c-.04-1.72-1-3.46-1.38-5.08C3.48,38.81,22.68,11.32,50.96,8.5ZM46.53,11.45c-15.81,2.61-29.57,16.02-33.87,31.31-1.13,4.01-2.27,10.2-1.97,14.31.22,2.98,1.11,6.4,1.49,9.4L46.53,11.45Z"/>
      <path d="M100.08,71.65L60.94,8.5c12.83,1.12,24.99,8.28,32.64,18.5,9.54,12.73,12.06,29.67,6.5,44.65ZM88.11,23.8c-5.37-5.38-13.38-10.52-20.88-12.19-.64-.14-1.68-.41-2.23.02l34.34,55.21c4.29-14.83-.4-32.19-11.23-43.04Z"/>
      <path d="M72.06,58.71c0,8.94-7.24,16.18-16.18,16.18s-16.18-7.24-16.18-16.18,7.24-16.18,16.18-16.18,16.18,7.24,16.18,16.18ZM70.03,58.7c0-7.8-6.33-14.13-14.13-14.13s-14.13,6.33-14.13,14.13,6.33,14.13,14.13,14.13,14.13-6.33,14.13-14.13Z"/>
      <path d="M70.17,36.19h-28.81l14.59-23.26,14.22,23.26ZM45.43,34.35h21.05l-10.17-17.38c-1.44-.25-3.18,4.16-3.88,5.28-1.74,2.76-3.92,5.66-5.53,8.58-.3.55-1.84,3.16-1.47,3.51Z"/>
      <path d="M33.61,49.49v24.93c0,.06-.57.65-.74.73-1.6.75-8.51-.2-10.91-.2-1.62,0-2.96.81-4.6.01l16.25-25.48ZM31.39,72.76v-15.88l-9.97,15.88h9.97Z"/>
      <path d="M78.3,49.86l1.1.56,14.79,24.01c.03.62-.4.82-.94.91-2.53.45-5.96-.28-8.48-.38-1.08-.04-6.48.62-6.48-.54v-24.56ZM90.48,72.76l-9.97-15.88v15.88h9.97Z"/>
      <path class="cls-1" d="M21.05,83.1h69.25l.37.74c-3.77,4.38-8.45,8.44-13.61,11.14-16.4,8.61-36.56,6.37-50.65-5.61-1.84-1.56-4.52-4.07-5.37-6.27Z"/>
      <path class="cls-1" d="M46.53,11.45L12.19,66.48c-.39-3-1.27-6.42-1.49-9.4-.31-4.11.84-10.3,1.97-14.31,4.3-15.29,18.06-28.7,33.87-31.31Z"/>
      <path class="cls-1" d="M88.11,23.8c10.83,10.85,15.52,28.22,11.23,43.04L65,11.63c.56-.42,1.59-.16,2.23-.02,7.5,1.67,15.51,6.81,20.88,12.19Z"/>
      <circle class="cls-1" cx="55.9" cy="58.7" r="14.13"/>
      <path class="cls-1" d="M45.43,34.35c-.36-.35,1.17-2.96,1.47-3.51,1.61-2.93,3.79-5.82,5.53-8.58.71-1.12,2.44-5.53,3.88-5.28l10.17,17.38h-21.05Z"/>
      <polygon class="cls-1" points="31.39 72.76 21.42 72.76 31.39 56.88 31.39 72.76"/>
      <polygon class="cls-1" points="90.48 72.76 80.51 72.76 80.51 56.88 90.48 72.76"/>
    </g>
  </g>
</svg>