<?xml version="1.0" encoding="UTF-8"?>
<svg xmlns="http://www.w3.org/2000/svg" width="512" height="512" viewBox="0 0 512 512">
  <g id="c" data-name="CIRCLE LINES">
    <path d="m351.363,408.578c-6.407,0-12.882-1.392-19.028-4.231-16.244-7.504-26.335-23.258-26.335-41.114v-54.705c0-2.209,1.791-4,4-4s4,1.791,4,4v54.705c0,14.7,8.311,27.671,21.69,33.851,13.248,6.12,28.352,4.069,39.417-5.353,41.132-35.02,64.723-86.056,64.723-140.021,0-101.364-82.466-183.83-183.83-183.83-101.198,0-183.664,82.327-183.83,183.52-.089,54.013,23.448,105.116,64.576,140.206,11.123,9.49,26.294,11.572,39.594,5.436,13.36-6.163,21.66-19.121,21.66-33.815v-54.699c0-2.209,1.791-4,4-4s4,1.791,4,4v54.699c0,17.853-10.081,33.594-26.309,41.08-16.168,7.458-34.614,4.925-48.138-6.615-42.916-36.616-67.477-89.942-67.383-146.305.084-51.304,20.043-99.438,56.201-135.533,36.157-36.096,84.324-55.974,135.629-55.974,105.775,0,191.83,86.055,191.83,191.83,0,56.314-24.616,109.57-67.537,146.113-8.331,7.093-18.541,10.754-28.93,10.755Z" stroke-width="0"/>
    <path d="m42.034,241.1c-.091,0-.182-.003-.274-.009-2.204-.149-3.87-2.057-3.721-4.261,3.565-52.649,26.11-102.226,63.482-139.599,1.562-1.561,4.094-1.562,5.657,0,1.562,1.562,1.562,4.095,0,5.657-36.004,36.003-57.724,83.764-61.158,134.481-.143,2.112-1.901,3.73-3.987,3.73Z" stroke-width="0"/>
    <path d="m104.35,407.36c-1.024,0-2.047-.391-2.829-1.171-35.121-35.121-57.395-81.594-62.719-130.859-.237-2.196,1.351-4.169,3.547-4.407,2.202-.231,4.169,1.352,4.407,3.547,5.128,47.457,26.586,92.227,60.422,126.061,1.562,1.562,1.562,4.095,0,5.657-.781.781-1.805,1.171-2.829,1.171Z" stroke-width="0"/>
    <path d="m407.65,407.36c-1.024,0-2.047-.391-2.829-1.171-1.562-1.562-1.562-4.095,0-5.657,33.835-33.834,55.294-78.604,60.422-126.061.238-2.196,2.208-3.784,4.407-3.547,2.196.238,3.785,2.21,3.547,4.407-5.324,49.265-27.598,95.738-62.719,130.859-.781.781-1.805,1.171-2.829,1.171Z" stroke-width="0"/>
    <path d="m469.966,241.1c-2.086,0-3.844-1.618-3.987-3.73-3.435-50.718-25.154-98.478-61.158-134.481-1.562-1.562-1.562-4.095,0-5.657,1.563-1.562,4.095-1.561,5.657,0,37.372,37.373,59.917,86.949,63.482,139.599.149,2.204-1.517,4.112-3.721,4.261-.092.006-.183.009-.274.009Z" stroke-width="0"/>
  </g>
  <g id="f" data-name="STARS">
    <g>
      <path d="m353.947,373.979c-1.755,0-3.305-1.144-3.822-2.821-2.193-7.111-7.748-12.666-14.86-14.859-1.677-.517-2.821-2.067-2.821-3.822s1.144-3.305,2.821-3.822c7.112-2.193,12.667-7.749,14.86-14.86.517-1.677,2.067-2.821,3.822-2.821s3.305,1.144,3.822,2.821c2.193,7.111,7.748,12.666,14.86,14.86,1.677.517,2.821,2.067,2.821,3.822s-1.144,3.305-2.821,3.822c-7.112,2.193-12.667,7.748-14.86,14.859-.517,1.677-2.067,2.821-3.822,2.821Zm-8.31-21.503c3.283,2.204,6.106,5.027,8.31,8.31,2.204-3.283,5.027-6.106,8.31-8.31-3.283-2.204-6.106-5.027-8.31-8.31-2.204,3.283-5.027,6.106-8.31,8.31Z" stroke-width="0"/>
      <path d="m158.053,373.979c-1.755,0-3.305-1.144-3.822-2.821-2.193-7.111-7.748-12.666-14.86-14.859-1.677-.517-2.821-2.067-2.821-3.822s1.144-3.305,2.821-3.822c7.112-2.194,12.667-7.749,14.86-14.86.517-1.677,2.067-2.821,3.822-2.821s3.305,1.144,3.822,2.821c2.193,7.111,7.748,12.667,14.86,14.86,1.677.517,2.821,2.067,2.821,3.822s-1.144,3.305-2.821,3.822c-7.112,2.193-12.667,7.748-14.86,14.859-.517,1.677-2.067,2.821-3.822,2.821Zm-8.31-21.503c3.283,2.204,6.106,5.027,8.31,8.31,2.204-3.283,5.027-6.106,8.31-8.31-3.283-2.204-6.106-5.027-8.31-8.31-2.204,3.283-5.027,6.106-8.31,8.31Z" stroke-width="0"/>
    </g>
  </g>
  <g id="g" data-name="BELLOW SYMBOL">
    <g>
      <g>
        <g>
          <circle cx="248.89" cy="482.568" r="10.792" fill="#fff" stroke-width="0"/>
          <path d="m248.89,497.353c-3.788,0-7.576-1.442-10.459-4.325-2.794-2.794-4.333-6.509-4.333-10.46s1.539-7.666,4.333-10.46c5.767-5.768,15.152-5.768,20.919,0,2.794,2.794,4.333,6.508,4.333,10.46s-1.539,7.666-4.333,10.46c-2.884,2.883-6.672,4.325-10.46,4.325Zm0-21.574c-1.739,0-3.479.662-4.803,1.986h0c-1.283,1.283-1.989,2.988-1.989,4.803s.707,3.52,1.99,4.803c2.648,2.648,6.957,2.648,9.606,0,1.283-1.283,1.989-2.989,1.989-4.803s-.707-3.52-1.989-4.803c-1.324-1.324-3.064-1.986-4.803-1.986Zm-7.631-.842h.01-.01Z" stroke-width="0"/>
        </g>
        <g>
          <line x1="256.521" y1="474.936" x2="274.073" y2="457.385" fill="#fff" stroke-width="0"/>
          <path d="m256.521,478.937c-1.024,0-2.047-.391-2.829-1.171-1.562-1.562-1.562-4.095,0-5.657l17.552-17.552c1.562-1.562,4.095-1.562,5.657,0,1.562,1.562,1.562,4.095,0,5.657l-17.552,17.552c-.781.781-1.805,1.171-2.829,1.171Z" stroke-width="0"/>
        </g>
      </g>
      <path d="m274.158,478.937c-2.209,0-4-1.791-4-4v-13.723h-13.722c-2.209,0-4-1.791-4-4s1.791-4,4-4h17.722c2.209,0,4,1.791,4,4v17.723c0,2.209-1.791,4-4,4Z" stroke-width="0"/>
    </g>
  </g>
  <g id="h" data-name="TOP TRIANGLE SYMBOL">
    <g>
      <polygon points="256 15.158 236.283 44.897 275.717 44.897 256 15.158" fill="#fff" stroke-width="0"/>
      <path d="m275.716,48.897h-39.433c-1.473,0-2.828-.81-3.524-2.108-.697-1.298-.624-2.875.19-4.103l19.716-29.739c.741-1.118,1.993-1.79,3.334-1.79s2.593.672,3.334,1.79l19.716,29.739c.814,1.228.887,2.804.19,4.103-.697,1.298-2.051,2.108-3.524,2.108Zm-31.981-8h24.53l-12.265-18.5-12.265,18.5Z" stroke-width="0"/>
    </g>
  </g>
  <g id="i" data-name="ZODIAC SIGN">
    <path d="m394.662,164.667c-5.74-11.047-14.612-19.919-25.658-25.658-24.762-12.865-51.742-12.481-74.027,1.054-21.647,13.147-34.571,36.102-34.571,61.403v207.012c0,2.359-1.919,4.278-4.278,4.278h-.256c-2.359,0-4.278-1.919-4.278-4.278v-207.012c0-25.301-12.924-48.256-34.571-61.403-22.285-13.534-49.266-13.919-74.026-1.054-11.046,5.739-19.918,14.611-25.658,25.658-12.865,24.761-12.48,51.742,1.054,74.026,13.147,21.647,36.102,34.571,61.403,34.571,6.351,0,11.5-5.149,11.5-11.5s-5.149-11.5-11.5-11.5c-17.198,0-32.804-8.789-41.745-23.511-9.266-15.255-9.376-34.02-.303-51.483,3.546-6.825,9.028-12.306,15.853-15.852,17.462-9.073,36.228-8.962,51.483.303,14.722,8.941,23.511,24.547,23.511,41.745v207.012c0,15.041,12.237,27.278,27.278,27.278h.256c15.041,0,27.278-12.237,27.278-27.278v-207.012c0-17.198,8.789-32.804,23.511-41.745,15.255-9.265,34.02-9.376,51.483-.302,6.824,3.545,12.306,9.027,15.852,15.852,9.073,17.462,8.962,36.227-.303,51.482-8.941,14.722-24.547,23.511-41.746,23.511-6.351,0-11.5,5.149-11.5,11.5s5.149,11.5,11.5,11.5c25.302,0,48.256-12.924,61.404-34.571,13.535-22.285,13.918-49.266,1.054-74.026Z" stroke-width="0"/>
  </g>
  <g id="j" data-name="OUTER CIRCLE">
    <path d="m296.937,497.346c-1.94,0-3.678-1.399-3.99-3.368-.345-2.175,1.087-4.213,3.261-4.566.011-.001.117-.019.128-.02,113.856-19.549,196.474-117.703,196.474-233.392S410.192,42.157,296.363,22.623c-2.177-.374-3.639-2.441-3.266-4.619.374-2.177,2.439-3.64,4.619-3.266,56.207,9.646,107.631,39.01,144.798,82.682,37.592,44.171,58.295,100.49,58.295,158.58s-20.703,114.409-58.295,158.581c-37.167,43.673-88.591,73.04-144.798,82.691-.022.004-.14.022-.163.026-.207.032-.414.047-.618.047Z" stroke-width="0"/>
    <path d="m215.155,497.36c-.213,0-.429-.017-.647-.052l-.19-.03c-56.242-9.657-107.666-39.024-144.833-82.697-37.592-44.172-58.295-100.491-58.295-158.581s20.703-114.409,58.295-158.58C106.652,53.748,158.076,24.384,214.283,14.738c2.177-.374,4.245,1.089,4.619,3.266.374,2.178-1.088,4.246-3.266,4.619C101.808,42.157,19.19,140.307,19.19,256s82.618,213.843,196.447,233.388l.155.024c2.18.354,3.661,2.41,3.306,4.59-.319,1.963-2.017,3.358-3.943,3.358Z" stroke-width="0"/>
  </g>
</svg>