<?xml version="1.0" encoding="UTF-8"?>
<svg xmlns="http://www.w3.org/2000/svg" width="512" height="512" viewBox="0 0 512 512">
  <g id="c" data-name="CIRCLE LINES">
    <path d="m256,443.537c-105.773,0-191.826-86.053-191.826-191.826S150.227,59.884,256,59.884s191.826,86.053,191.826,191.826-86.053,191.826-191.826,191.826Zm0-375.652c-101.362,0-183.826,82.464-183.826,183.826s82.464,183.826,183.826,183.826,183.826-82.464,183.826-183.826-82.464-183.826-183.826-183.826Z" stroke-width="0"/>
    <path d="m43.865,224.13c-.194,0-.392-.014-.59-.043-2.186-.323-3.695-2.357-3.372-4.542,6.894-46.6,28.2-88.895,61.618-122.313,1.561-1.562,4.094-1.562,5.656,0,1.562,1.562,1.562,4.095,0,5.657-32.193,32.194-52.72,72.938-59.36,117.827-.294,1.987-2.002,3.415-3.952,3.415Z" stroke-width="0"/>
    <path d="m104.35,407.36c-1.023,0-2.047-.391-2.828-1.171-35.084-35.085-57.354-81.511-62.708-130.726-.239-2.196,1.348-4.17,3.544-4.409,2.194-.245,4.17,1.348,4.409,3.544,5.231,48.097,26.122,91.644,60.411,125.934,1.562,1.562,1.562,4.095,0,5.657-.78.781-1.805,1.171-2.828,1.171Z" stroke-width="0"/>
    <path d="m407.65,407.36c-1.023,0-2.047-.391-2.828-1.171-1.562-1.562-1.562-4.095,0-5.657,34.289-34.29,55.18-77.837,60.411-125.934.238-2.196,2.206-3.785,4.409-3.544,2.196.239,3.783,2.213,3.544,4.409-5.354,49.215-27.624,95.641-62.708,130.726-.78.781-1.805,1.171-2.828,1.171Z" stroke-width="0"/>
    <path d="m468.135,224.13c-1.95,0-3.658-1.428-3.952-3.415-6.641-44.889-27.167-85.633-59.36-117.827-1.562-1.562-1.562-4.095,0-5.657,1.561-1.562,4.094-1.562,5.656,0,33.418,33.418,54.725,75.713,61.618,122.313.323,2.186-1.187,4.219-3.372,4.542-.198.029-.396.043-.59.043Z" stroke-width="0"/>
  </g>
  <g id="d" data-name="PLANETS">
    <g>
      <path d="m470.468,260.507c-7.294,0-13.229-5.934-13.229-13.229s5.935-13.229,13.229-13.229,13.229,5.934,13.229,13.229-5.935,13.229-13.229,13.229Zm0-18.457c-2.883,0-5.229,2.346-5.229,5.229s2.346,5.229,5.229,5.229,5.229-2.346,5.229-5.229-2.346-5.229-5.229-5.229Z" stroke-width="0"/>
      <path d="m41.532,260.507c-7.294,0-13.229-5.934-13.229-13.229s5.935-13.229,13.229-13.229,13.229,5.934,13.229,13.229-5.935,13.229-13.229,13.229Zm0-18.457c-2.883,0-5.229,2.346-5.229,5.229s2.346,5.229,5.229,5.229,5.229-2.346,5.229-5.229-2.346-5.229-5.229-5.229Z" stroke-width="0"/>
    </g>
  </g>
  <g id="f" data-name="STARS">
    <g>
      <path d="m256,129.492c-1.755,0-3.306-1.144-3.822-2.821-2.193-7.111-7.748-12.667-14.859-14.86-1.677-.517-2.821-2.067-2.821-3.822s1.145-3.305,2.821-3.822c7.111-2.193,12.666-7.749,14.859-14.86.518-1.677,2.067-2.821,3.822-2.821s3.305,1.144,3.822,2.821c2.193,7.111,7.748,12.667,14.859,14.86,1.677.517,2.821,2.067,2.821,3.822s-1.145,3.305-2.821,3.822c-7.111,2.193-12.666,7.749-14.859,14.86-.517,1.677-2.067,2.821-3.822,2.821Zm-8.31-21.503c3.282,2.204,6.105,5.027,8.31,8.31,2.204-3.283,5.027-6.106,8.31-8.31-3.282-2.204-6.105-5.027-8.31-8.31-2.204,3.283-5.027,6.106-8.31,8.31Z" stroke-width="0"/>
      <path d="m256,425.472c-1.755,0-3.305-1.144-3.822-2.821-2.193-7.111-7.748-12.666-14.859-14.859-1.677-.517-2.821-2.067-2.821-3.822s1.144-3.305,2.821-3.822c7.111-2.194,12.666-7.749,14.859-14.86.518-1.677,2.067-2.821,3.822-2.821s3.305,1.144,3.822,2.821c2.193,7.111,7.748,12.666,14.859,14.86,1.678.517,2.821,2.067,2.821,3.822s-1.145,3.305-2.821,3.822c-7.111,2.193-12.666,7.748-14.859,14.859-.518,1.677-2.067,2.821-3.822,2.821Zm-8.31-21.503c3.282,2.204,6.105,5.027,8.31,8.31,2.204-3.283,5.027-6.106,8.31-8.31-3.282-2.204-6.105-5.027-8.31-8.31-2.204,3.283-5.027,6.106-8.31,8.31Z" stroke-width="0"/>
    </g>
  </g>
  <g id="g" data-name="BELLOW SYMBOL">
    <g>
      <path d="m254.905,457.318c-8.918,0-16.619,5.207-20.231,12.746,2.259-1.972,5.205-3.175,8.439-3.175,7.097,0,14.692,5.753,14.692,12.85s-7.595,12.85-14.692,12.85c-3.234,0-6.18-1.203-8.439-3.175,3.612,7.539,11.313,12.746,20.231,12.746,12.383,0,22.421-10.038,22.421-22.421s-10.038-22.421-22.421-22.421Z" fill="#fff" stroke-width="0"/>
      <path d="m254.905,506.16c-10.11,0-19.468-5.895-23.839-15.018-.82-1.712-.324-3.764,1.187-4.913,1.512-1.147,3.62-1.077,5.052.171,1.616,1.411,3.679,2.188,5.808,2.188,4.843,0,10.692-3.947,10.692-8.85s-5.85-8.85-10.692-8.85c-2.129,0-4.191.777-5.808,2.188-1.431,1.248-3.541,1.318-5.052.171-1.511-1.148-2.007-3.201-1.187-4.913,4.371-9.123,13.729-15.018,23.839-15.018,14.568,0,26.421,11.853,26.421,26.421s-11.853,26.421-26.421,26.421Zm-8.211-9.949c2.513,1.257,5.317,1.949,8.211,1.949,10.157,0,18.421-8.264,18.421-18.421s-8.264-18.421-18.421-18.421c-2.894,0-5.698.692-8.211,1.949,7.713,1.6,15.11,8.122,15.11,16.472s-7.397,14.872-15.11,16.472Z" stroke-width="0"/>
    </g>
  </g>
  <g id="h" data-name="TOP TRIANGLE SYMBOL">
    <g>
      <polygon points="256 15.158 236.283 44.897 275.717 44.897 256 15.158" fill="#fff" stroke-width="0"/>
      <path d="m275.717,48.897h-39.434c-1.474,0-2.827-.81-3.524-2.108-.696-1.298-.624-2.875.19-4.103l19.717-29.739c.741-1.118,1.993-1.79,3.334-1.79s2.593.672,3.334,1.79l19.717,29.739c.814,1.228.887,2.804.19,4.103-.697,1.298-2.051,2.108-3.524,2.108Zm-31.982-8h24.531l-12.266-18.5-12.266,18.5Z" stroke-width="0"/>
    </g>
  </g>
  <g id="i" data-name="ZODIAC SIGN">
    <g>
      <path d="m356.14,199.206c-33.91,0-61.49,27.58-61.49,61.49,0,28.12,18.97,51.9,44.78,59.19-70.19,24.78-181,9.24-182.44,9.04-6.29-.92-12.12,3.44-13.03,9.73-.92,6.28,3.44,12.12,9.73,13.03,3.06.44,37.62,5.3,80.77,5.3,51.71,0,115.74-6.98,152.6-36.92,12.75-10.35,21.58-22.76,26.39-37.06,2.71-6.92,4.19-14.45,4.19-22.31,0-33.91-27.59-61.49-61.5-61.49Zm35.73,75.82c-5.69,14.16-19.56,24.17-35.73,24.17-21.22,0-38.49-17.27-38.49-38.5s17.27-38.49,38.49-38.49c21.1,0,38.28,17.04,38.5,38.09-.35,5.22-1.27,10.12-2.77,14.73Z" stroke-width="0"/>
      <path d="m216.83,251.305c0-28.12-18.97-51.89-44.78-59.18,31.05-10.97,70.06-14.04,104.03-14.04,42.85,0,77.68,4.89,78.41,4.99,6.29.92,12.12-3.44,13.03-9.73.91-6.28-3.44-12.12-9.73-13.03-6.73-.97-165.74-23.3-233.38,31.62-12.83,10.43-21.69,22.94-26.5,37.37-2.63,6.83-4.07,14.25-4.07,22,0,.19,0,.38.01.56.3,33.65,27.77,60.94,61.49,60.94,33.91,0,61.49-27.59,61.49-61.5Zm-99.99.4c.35-5.22,1.27-10.12,2.77-14.73,5.69-14.15,19.56-24.16,35.73-24.16,21.22,0,38.49,17.26,38.49,38.49s-17.27,38.5-38.49,38.5c-21.1,0-38.28-17.05-38.5-38.1Z" stroke-width="0"/>
    </g>
  </g>
  <g id="j" data-name="OUTER CIRCLE">
    <path d="m296.931,497.347c-1.942,0-3.678-1.401-3.988-3.372-.343-2.177,1.095-4.213,3.271-4.564.01-.001.108-.017.118-.019,113.861-19.549,196.479-117.703,196.479-233.392S410.192,42.157,296.363,22.623c-2.177-.374-3.64-2.441-3.266-4.619.373-2.177,2.438-3.64,4.619-3.266,56.207,9.646,107.631,39.01,144.798,82.682,37.592,44.171,58.295,100.49,58.295,158.58s-20.703,114.409-58.295,158.581c-37.167,43.673-88.59,73.04-144.798,82.691l-.171.027c-.207.032-.412.047-.615.047Z" stroke-width="0"/>
    <path d="m215.155,497.36c-.212,0-.426-.017-.642-.052l-.201-.031c-56.237-9.656-107.66-39.023-144.827-82.696-37.592-44.172-58.295-100.491-58.295-158.581s20.703-114.409,58.295-158.58C106.652,53.748,158.076,24.384,214.283,14.738c2.185-.374,4.246,1.089,4.619,3.266.374,2.178-1.089,4.246-3.266,4.619C101.808,42.157,19.19,140.307,19.19,256s82.617,213.843,196.446,233.388c.01.001.141.021.15.023,2.182.352,3.664,2.405,3.312,4.586-.317,1.965-2.016,3.364-3.944,3.364Z" stroke-width="0"/>
  </g>
</svg>