<?xml version="1.0" encoding="UTF-8"?>
<svg xmlns="http://www.w3.org/2000/svg" width="512" height="512" viewBox="0 0 512 512">
  <g id="c" data-name="CIRCLE LINES">
    <path d="m256,443.537c-105.773,0-191.826-86.053-191.826-191.826S150.227,59.885,256,59.885s191.826,86.053,191.826,191.826-86.053,191.826-191.826,191.826Zm0-375.652c-101.362,0-183.826,82.464-183.826,183.826s82.464,183.826,183.826,183.826,183.826-82.464,183.826-183.826-82.464-183.826-183.826-183.826Z" stroke-width="0"/>
    <path d="m256,412.743c-46.275,0-89.951-20.301-119.829-55.696-1.425-1.688-1.211-4.212.477-5.637,1.687-1.425,4.211-1.212,5.637.477,28.354,33.591,69.802,52.856,113.715,52.856,2.209,0,4,1.791,4,4s-1.791,4-4,4Z" stroke-width="0"/>
    <g>
      <path d="m42.034,241.1c-.091,0-.182-.003-.274-.009-2.204-.149-3.87-2.058-3.721-4.262,3.338-49.303,23.584-96.481,57.008-132.845,1.496-1.625,4.026-1.731,5.652-.238,1.626,1.495,1.733,4.025.238,5.652-32.197,35.028-51.7,80.477-54.916,127.972-.143,2.111-1.901,3.729-3.987,3.729Z" stroke-width="0"/>
      <path d="m104.35,407.36c-1.024,0-2.047-.391-2.829-1.172-33.315-33.315-54.604-75.474-61.566-121.916-.327-2.185,1.178-4.221,3.363-4.549,2.18-.33,4.221,1.178,4.549,3.363,6.705,44.736,27.215,85.349,59.311,117.445,1.562,1.562,1.562,4.095,0,5.656-.781.781-1.805,1.172-2.829,1.172Z" stroke-width="0"/>
      <path d="m414.179,400.542c-.968,0-1.938-.35-2.707-1.057-1.626-1.495-1.731-4.025-.236-5.651,30.473-33.126,49.149-74.4,54.007-119.363.238-2.196,2.208-3.777,4.407-3.547,2.196.237,3.785,2.21,3.547,4.406-5.044,46.676-24.434,89.526-56.074,123.92-.789.857-1.865,1.292-2.945,1.292Z" stroke-width="0"/>
      <path d="m469.117,231.91c-2.01,0-3.741-1.511-3.97-3.555-5.302-47.309-26.726-91.867-60.326-125.468-1.562-1.562-1.562-4.095,0-5.656,1.563-1.562,4.096-1.562,5.657,0,34.877,34.877,57.115,81.129,62.619,130.233.246,2.195-1.334,4.175-3.53,4.421-.151.017-.302.024-.45.024Z" stroke-width="0"/>
    </g>
    <g>
      <path d="m215.152,466.274c-.251,0-.506-.024-.762-.073-32.34-6.242-62.117-19.351-88.504-38.963-1.773-1.317-2.142-3.823-.824-5.596,1.318-1.774,3.823-2.144,5.597-.824,25.415,18.889,54.097,31.516,85.248,37.527,2.169.419,3.588,2.517,3.17,4.686-.37,1.913-2.045,3.243-3.923,3.243Z" stroke-width="0"/>
      <path d="m407.65,104.06c-1.024,0-2.047-.391-2.829-1.172-29.893-29.893-67.54-49.895-108.871-57.844-2.169-.417-3.59-2.514-3.173-4.684.417-2.169,2.511-3.596,4.684-3.172,42.909,8.252,81.989,29.015,113.018,60.043,1.562,1.562,1.562,4.095,0,5.656-.781.781-1.805,1.172-2.829,1.172Z" stroke-width="0"/>
    </g>
  </g>
  <g id="d" data-name="PLANETS">
    <path d="m469.97,250.328c-3.533,0-6.855-1.376-9.354-3.875-5.157-5.156-5.157-13.549,0-18.707h0c5.158-5.156,13.551-5.156,18.708,0,2.499,2.5,3.875,5.821,3.875,9.354s-1.376,6.855-3.875,9.354-5.82,3.874-9.354,3.874Zm-3.697-16.926c-2.038,2.039-2.038,5.356,0,7.395.987.987,2.3,1.531,3.697,1.531s2.71-.544,3.697-1.531c.988-.987,1.532-2.301,1.532-3.697s-.544-2.709-1.532-3.697c-2.038-2.037-5.355-2.037-7.394,0Z" stroke-width="0"/>
    <path d="m407.65,416.584c-3.387,0-6.774-1.289-9.354-3.867-2.499-2.5-3.875-5.821-3.875-9.354s1.376-6.855,3.875-9.354h0s0,0,0,0c2.499-2.498,5.82-3.874,9.354-3.874s6.856,1.376,9.354,3.875c2.499,2.498,3.875,5.819,3.875,9.354s-1.376,6.854-3.875,9.354c-2.579,2.579-5.966,3.868-9.354,3.868Zm0-18.45c-1.396,0-2.709.544-3.697,1.531,0,0,0,0,0,0-.987.986-1.531,2.3-1.531,3.696s.544,2.709,1.532,3.697c2.038,2.037,5.355,2.037,7.394,0,.988-.988,1.532-2.301,1.532-3.697s-.544-2.71-1.531-3.696c-.988-.988-2.301-1.532-3.697-1.532Zm-6.525-1.297h.01-.01Z" stroke-width="0"/>
    <path d="m105.941,115.238c-3.387,0-6.775-1.289-9.354-3.867-2.499-2.499-3.875-5.821-3.875-9.354s1.376-6.855,3.875-9.354h0s0,0,0,0c2.499-2.498,5.82-3.874,9.354-3.874s6.855,1.376,9.354,3.875c5.158,5.157,5.158,13.55,0,18.707-2.579,2.579-5.967,3.868-9.354,3.868Zm0-18.45c-1.397,0-2.71.544-3.697,1.531,0,0,0,0,0,0-.987.986-1.531,2.3-1.531,3.696s.544,2.71,1.531,3.696c2.04,2.039,5.356,2.039,7.395,0,2.038-2.038,2.038-5.354,0-7.394-.987-.987-2.3-1.531-3.697-1.531Zm-6.526-1.297h.01-.01Z" stroke-width="0"/>
    <path d="m40.83,288.122c-3.387,0-6.774-1.289-9.354-3.868-2.499-2.499-3.875-5.82-3.875-9.354s1.376-6.855,3.875-9.354h0s0,0,0,0c2.498-2.498,5.82-3.874,9.354-3.874s6.855,1.376,9.354,3.875c2.499,2.498,3.875,5.819,3.875,9.354s-1.376,6.854-3.875,9.354c-2.579,2.579-5.967,3.868-9.354,3.868Zm0-18.45c-1.396,0-2.709.544-3.697,1.531h0c-.987.987-1.531,2.301-1.531,3.697s.544,2.709,1.532,3.697c2.039,2.038,5.356,2.037,7.394,0,.987-.987,1.531-2.3,1.531-3.696s-.544-2.71-1.531-3.696c-.988-.988-2.301-1.532-3.697-1.532Zm-6.525-1.297h.01-.01Z" stroke-width="0"/>
  </g>
  <g id="e" data-name="SPARKS">
    <g>
      <path d="m331.357,143.062c-1.024,0-2.047-.391-2.829-1.172-1.562-1.562-1.562-4.095,0-5.656l9.407-9.407c1.562-1.562,4.095-1.562,5.657,0,1.562,1.562,1.562,4.095,0,5.656l-9.407,9.407c-.781.781-1.805,1.172-2.829,1.172Z" stroke-width="0"/>
      <path d="m350.595,166.826h-13.305c-2.209,0-4-1.791-4-4s1.791-4,4-4h13.305c2.209,0,4,1.791,4,4s-1.791,4-4,4Z" stroke-width="0"/>
    </g>
  </g>
  <g id="f" data-name="STARS">
    <path d="m373.394,226.964c-1.755,0-3.305-1.144-3.822-2.821-2.193-7.111-7.749-12.666-14.86-14.859-1.677-.518-2.821-2.067-2.821-3.822s1.144-3.305,2.821-3.822c7.111-2.193,12.666-7.748,14.86-14.86.517-1.677,2.067-2.821,3.822-2.821h0c1.755,0,3.305,1.145,3.822,2.821,2.193,7.112,7.748,12.667,14.859,14.86,1.677.518,2.821,2.067,2.821,3.822s-1.144,3.305-2.821,3.822c-7.111,2.193-12.667,7.748-14.859,14.859-.517,1.677-2.067,2.821-3.822,2.821Zm-8.31-21.503c3.283,2.204,6.106,5.027,8.31,8.31,2.204-3.282,5.027-6.105,8.31-8.31-3.283-2.204-6.106-5.027-8.31-8.311-2.204,3.283-5.027,6.106-8.31,8.311Z" stroke-width="0"/>
    <path d="m139.228,292.724c-1.755,0-3.305-1.145-3.822-2.821-2.193-7.111-7.749-12.666-14.86-14.859-1.677-.517-2.821-2.067-2.821-3.822s1.144-3.306,2.821-3.822c7.111-2.193,12.667-7.748,14.86-14.859.517-1.677,2.067-2.821,3.822-2.821s3.305,1.145,3.822,2.821c2.193,7.111,7.749,12.666,14.86,14.859,1.677.518,2.821,2.067,2.821,3.822s-1.144,3.305-2.821,3.822c-7.111,2.193-12.667,7.748-14.86,14.859-.517,1.677-2.067,2.821-3.822,2.821Zm-8.31-21.503c3.283,2.204,6.106,5.027,8.31,8.31,2.204-3.282,5.027-6.105,8.31-8.31-3.283-2.204-6.106-5.027-8.31-8.31-2.204,3.282-5.027,6.105-8.31,8.31Z" stroke-width="0"/>
  </g>
  <g id="g" data-name="BELLOW SYMBOL">
    <g>
      <path d="m244.925,507.782c-2.209,0-4-1.791-4-4v-48.174c0-2.209,1.791-4,4-4s4,1.791,4,4v48.174c0,2.209-1.791,4-4,4Z" stroke-width="0"/>
      <path d="m256.6,469.141h-23.349c-2.209,0-4-1.791-4-4s1.791-4,4-4h23.349c2.209,0,4,1.791,4,4s-1.791,4-4,4Z" stroke-width="0"/>
      <path d="m271.962,507.782c-5.948,0-10.787-4.839-10.787-10.787v-7.175c0-3.377-2.748-6.125-6.125-6.125s-6.125,2.748-6.125,6.125v13.962c0,2.209-1.791,4-4,4s-4-1.791-4-4v-13.962c0-7.788,6.336-14.125,14.125-14.125s14.125,6.337,14.125,14.125v7.175c0,1.537,1.25,2.787,2.787,2.787s2.787-1.25,2.787-2.787v-3.49c0-2.209,1.791-4,4-4s4,1.791,4,4v3.49c0,5.948-4.839,10.787-10.787,10.787Z" stroke-width="0"/>
    </g>
  </g>
  <g id="h" data-name="TOP TRIANGLE SYMBOL">
    <path d="m279.759,32.948h-47.518c-2.209,0-4-1.791-4-4s1.791-4,4-4h47.518c2.209,0,4,1.791,4,4s-1.791,4-4,4Z" stroke-width="0"/>
    <g>
      <polygon points="256 44.897 275.717 15.158 236.283 15.158 256 44.897" fill="#fff" stroke-width="0"/>
      <path d="m256,48.897c-1.341,0-2.593-.672-3.334-1.79l-19.716-29.739c-.814-1.228-.887-2.804-.19-4.102.697-1.299,2.051-2.108,3.524-2.108h39.433c1.473,0,2.828.81,3.524,2.108.697,1.298.624,2.874-.19,4.102l-19.716,29.739c-.741,1.118-1.993,1.79-3.334,1.79Zm-12.265-29.739l12.265,18.5,12.265-18.5h-24.53Z" stroke-width="0"/>
    </g>
  </g>
  <g id="i" data-name="ZODIAC SIGN">
    <path d="m340.75,286.51c-8.17,0-15.85,2.17-22.48,5.95v-104.04c0-29.71-24.16-53.88-53.87-53.88-17.18,0-32.51,8.08-42.37,20.65-.003.004-.006.009-.01.013-9.872-12.564-25.188-20.658-42.369-20.658-29.707,0-53.875,24.168-53.875,53.874,0,6.352,5.149,11.5,11.5,11.5s11.5-5.148,11.5-11.5c0-17.024,13.85-30.874,30.875-30.874s30.874,13.85,30.874,30.874v147.59c0,3.6,1.656,6.81,4.245,8.919,1.979,1.613,4.504,2.582,7.259,2.582,6.35,0,11.5-5.15,11.5-11.5v-147.59c0-17.03,13.85-30.88,30.87-30.88s30.87,13.85,30.87,30.88v147.59c0,10.16-4.68,13.81-8.21,15.67-4.67,2.47-9.74,2.74-10.51,2.78l-.09,23h.07c2.16,0,18.69-.41,30.57-12.24.44-.44.86-.88,1.27-1.34,8.25,8.38,19.72,13.58,32.38,13.58,25.07,0,45.47-20.4,45.47-45.48s-20.4-45.47-45.47-45.47Zm0,67.95c-12.39,0-22.48-10.09-22.48-22.48s10.09-22.47,22.48-22.47,22.47,10.08,22.47,22.47-10.08,22.48-22.47,22.48Z" stroke-width="0"/>
  </g>
  <g id="j" data-name="OUTER CIRCLE">
    <path d="m296.865,497.358c-1.902,0-3.596-1.358-3.942-3.295-.389-2.175,1.048-4.252,3.223-4.641l.217-.035c113.829-19.546,196.447-117.699,196.447-233.388S410.192,42.158,296.363,22.622c-2.177-.374-3.639-2.441-3.266-4.619s2.445-3.639,4.619-3.266c56.207,9.646,107.631,39.011,144.798,82.683,37.592,44.172,58.295,100.489,58.295,158.58s-20.703,114.408-58.295,158.581c-37.167,43.673-88.591,73.04-144.798,82.691-.023.004-.118.019-.142.022-.238.043-.476.063-.71.063Z" stroke-width="0"/>
    <path d="m215.154,497.361c-.233,0-.47-.021-.708-.063-.012-.002-.116-.018-.128-.02-56.242-9.657-107.666-39.024-144.833-82.697-37.592-44.173-58.295-100.491-58.295-158.581s20.703-114.408,58.295-158.58C106.652,53.748,158.076,24.384,214.283,14.737c2.178-.371,4.245,1.088,4.619,3.266.374,2.178-1.088,4.245-3.266,4.619C101.808,42.158,19.19,140.308,19.19,256s82.618,213.842,196.447,233.388l.217.035c2.175.389,3.623,2.467,3.233,4.642-.346,1.937-2.032,3.297-3.933,3.297Z" stroke-width="0"/>
  </g>
</svg>