<?xml version="1.0" encoding="UTF-8"?>
<svg xmlns="http://www.w3.org/2000/svg" width="512" height="512" viewBox="0 0 512 512">
  <g id="c" data-name="CIRCLE LINES">
    <path d="m256,443.537c-105.773,0-191.826-86.053-191.826-191.827S150.227,59.884,256,59.884s191.826,86.053,191.826,191.826-86.053,191.827-191.826,191.827Zm0-375.653c-101.362,0-183.826,82.464-183.826,183.826s82.464,183.827,183.826,183.827,183.826-82.464,183.826-183.827-82.464-183.826-183.826-183.826Z" stroke-width="0"/>
    <path d="m84.291,384.252c-1.215,0-2.416-.552-3.202-1.599-31.265-41.657-46.56-93.369-43.066-145.608,3.527-52.741,26.078-102.394,63.498-139.814,1.563-1.562,4.095-1.561,5.657,0,1.562,1.562,1.562,4.095,0,5.657-73.621,73.621-82.085,191.829-19.69,274.963,1.326,1.768.969,4.274-.798,5.601-.72.54-1.562.801-2.398.801Z" stroke-width="0"/>
    <path d="m104.349,407.362c-1.024,0-2.047-.391-2.829-1.172-2.463-2.463-4.896-5.014-7.231-7.581-1.487-1.634-1.367-4.163.267-5.65,1.634-1.485,4.164-1.367,5.65.268,2.251,2.474,4.597,4.933,6.971,7.308,1.562,1.562,1.562,4.095,0,5.657-.781.78-1.805,1.171-2.828,1.171Z" stroke-width="0"/>
    <path d="m407.651,407.362c-1.024,0-2.047-.391-2.829-1.172-1.562-1.562-1.562-4.095,0-5.656,73.449-73.45,82.04-191.49,19.983-274.573-1.322-1.77-.959-4.276.811-5.598s4.277-.959,5.598.811c31.11,41.65,46.291,93.303,42.747,145.443-3.579,52.647-26.124,102.216-63.481,139.573-.781.781-1.805,1.172-2.829,1.172Z" stroke-width="0"/>
    <path d="m414.097,110.785c-1.081,0-2.159-.436-2.948-1.295-2.047-2.23-4.176-4.452-6.327-6.602-1.562-1.562-1.562-4.095,0-5.657,1.562-1.562,4.095-1.562,5.657,0,2.231,2.231,4.439,4.536,6.563,6.85,1.494,1.627,1.386,4.158-.242,5.651-.768.705-1.737,1.053-2.704,1.053Z" stroke-width="0"/>
  </g>
  <g id="e" data-name="SPARKS">
    <g>
      <path d="m160.47,157.975h-13.304c-2.209,0-4-1.791-4-4s1.791-4,4-4h13.304c2.209,0,4,1.791,4,4s-1.791,4-4,4Z" stroke-width="0"/>
      <path d="m173.078,136.975c-1.024,0-2.047-.391-2.829-1.171l-9.408-9.408c-1.562-1.562-1.562-4.095,0-5.657,1.562-1.562,4.095-1.562,5.657,0l9.408,9.408c1.562,1.562,1.562,4.095,0,5.657-.781.781-1.805,1.171-2.829,1.171Z" stroke-width="0"/>
    </g>
    <g>
      <path d="m402.747,201.854h-13.305c-2.209,0-4-1.791-4-4s1.791-4,4-4h13.305c2.209,0,4,1.791,4,4s-1.791,4-4,4Z" stroke-width="0"/>
      <path d="m386.242,232.261c-1.024,0-2.047-.391-2.829-1.171l-9.408-9.408c-1.562-1.562-1.562-4.095,0-5.657,1.562-1.562,4.095-1.562,5.657,0l9.408,9.408c1.562,1.562,1.562,4.095,0,5.657-.781.781-1.805,1.171-2.829,1.171Z" stroke-width="0"/>
    </g>
    <g>
      <path d="m228.596,392.904c-1.024,0-2.047-.391-2.829-1.172-1.562-1.562-1.562-4.095,0-5.656l9.408-9.407c1.562-1.562,4.095-1.562,5.657,0s1.562,4.095,0,5.656l-9.408,9.407c-.781.781-1.805,1.172-2.828,1.172Z" stroke-width="0"/>
      <path d="m232.07,359.732h-13.304c-2.209,0-4-1.791-4-4s1.791-4,4-4h13.304c2.209,0,4,1.791,4,4s-1.791,4-4,4Z" stroke-width="0"/>
    </g>
  </g>
  <g id="f" data-name="STARS">
    <g>
      <path d="m370.49,297.974c-1.755,0-3.305-1.144-3.822-2.821-2.194-7.111-7.749-12.666-14.86-14.859-1.677-.518-2.821-2.067-2.821-3.822s1.144-3.305,2.821-3.822c7.111-2.193,12.666-7.748,14.86-14.859.517-1.677,2.067-2.821,3.822-2.821h0c1.755,0,3.305,1.144,3.822,2.821,2.193,7.111,7.748,12.666,14.859,14.859,1.677.518,2.821,2.067,2.821,3.822s-1.144,3.305-2.821,3.822c-7.111,2.193-12.666,7.748-14.859,14.859-.517,1.677-2.067,2.821-3.822,2.821Zm-8.31-21.503c3.283,2.204,6.106,5.027,8.31,8.31,2.204-3.282,5.027-6.105,8.31-8.31-3.283-2.204-6.106-5.027-8.31-8.31-2.204,3.282-5.027,6.105-8.31,8.31Z" stroke-width="0"/>
      <path d="m177.625,295.738c-1.755,0-3.305-1.145-3.822-2.821-2.193-7.111-7.748-12.666-14.86-14.859-1.677-.517-2.821-2.067-2.821-3.822s1.144-3.306,2.821-3.822c7.112-2.193,12.667-7.748,14.86-14.86.517-1.677,2.067-2.821,3.822-2.821s3.305,1.144,3.822,2.821c2.193,7.112,7.748,12.667,14.86,14.86,1.677.517,2.821,2.067,2.821,3.822s-1.144,3.306-2.821,3.822c-7.112,2.193-12.667,7.748-14.86,14.859-.517,1.677-2.067,2.821-3.822,2.821Zm-8.31-21.503c3.283,2.204,6.106,5.026,8.31,8.31,2.204-3.283,5.027-6.105,8.31-8.31-3.283-2.204-6.106-5.027-8.31-8.311-2.204,3.283-5.027,6.106-8.31,8.311Z" stroke-width="0"/>
    </g>
  </g>
  <g id="g" data-name="BELLOW SYMBOL">
    <g>
      <g>
        <circle cx="256" cy="480.916" r="22.953" fill="#fff" stroke-width="0"/>
        <path d="m256,507.869c-14.862,0-26.954-12.091-26.954-26.953s12.091-26.953,26.954-26.953,26.954,12.091,26.954,26.953-12.091,26.953-26.954,26.953Zm0-45.906c-10.451,0-18.954,8.502-18.954,18.953s8.502,18.953,18.954,18.953,18.954-8.502,18.954-18.953-8.502-18.953-18.954-18.953Z" stroke-width="0"/>
      </g>
      <g>
        <circle cx="256" cy="480.916" r="4.088" fill="#fff" stroke-width="0"/>
        <path d="m256,489.004c-4.459,0-8.088-3.628-8.088-8.088s3.628-8.088,8.088-8.088,8.088,3.628,8.088,8.088-3.628,8.088-8.088,8.088Zm0-8.176c-.048,0-.088.039-.088.088,0,.098.176.098.176,0,0-.049-.04-.088-.088-.088Z" stroke-width="0"/>
      </g>
    </g>
  </g>
  <g id="h" data-name="TOP TRIANGLE SYMBOL">
    <g>
      <polygon points="256 15.158 236.283 44.897 275.717 44.897 256 15.158" fill="#fff" stroke-width="0"/>
      <path d="m275.716,48.897h-39.433c-1.473,0-2.828-.81-3.524-2.108-.697-1.298-.624-2.875.19-4.103l19.716-29.739c.741-1.118,1.993-1.79,3.334-1.79s2.593.672,3.334,1.79l19.716,29.739c.814,1.228.887,2.804.19,4.103-.697,1.298-2.051,2.108-3.524,2.108Zm-31.981-8h24.53l-12.265-18.5-12.265,18.5Z" stroke-width="0"/>
    </g>
  </g>
  <g id="i" data-name="ZODIAC SIGN">
    <path d="m360.43,318.93c-6.35,0-11.5,5.15-11.5,11.5,0,19.56-15.91,35.47-35.46,35.47s-35.46-15.9-35.47-35.45c0-.15,0-.31-.01-.46,0-.08-.01-.16-.01-.24-.85-25.29,18.58-46.28,39.14-68.49,9.73-10.52,19.8-21.39,27.89-33.05,17.54-25.29,20.54-53.56,8.45-79.62-12.75-27.49-40.49-47.11-70.67-50-35.86-3.43-58.06,11.07-70.37,23.84-13.69,14.21-22.77,34.21-24.9,54.89-1.54,14.96.02,28.43,2.88,39.86-4.11-.92-8.39-1.41-12.77-1.41-32.24,0-58.47,26.23-58.47,58.47s26.23,58.46,58.47,58.46,58.46-26.23,58.46-58.46c0-10.88-2.98-21.08-8.18-29.81-.09-.16-.18-.33-.29-.49-.12-.18-.23-.37-.35-.56-.88-1.41-1.81-2.78-2.81-4.1,0-.01-.01-.01-.02-.02-5.22-8.31-17.02-30.69-14.04-59.58,2.46-23.87,20.02-62.99,70.2-58.19,21.86,2.09,42.76,16.87,52,36.78,8.51,18.35,6.21,38.53-6.49,56.83-7.17,10.33-16.25,20.15-25.87,30.54-22.86,24.7-46.49,50.23-45.24,85.05,0,.06.01.13.01.19.23,32.03,26.37,58.02,58.46,58.02s58.46-26.23,58.46-58.47c0-6.35-5.15-11.5-11.5-11.5Zm-182.8-9.23c-19.56,0-35.47-15.91-35.47-35.46s15.91-35.47,35.47-35.47c11.28,0,21.35,5.3,27.84,13.53.01.02.02.04.04.05,1.11,1.74,2.03,3.02,2.61,3.8,3.16,5.3,4.97,11.49,4.97,18.09,0,19.55-15.91,35.46-35.46,35.46Z" stroke-width="0"/>
  </g>
  <g id="j" data-name="OUTER CIRCLE">
    <path d="m296.865,497.358c-1.902,0-3.596-1.358-3.942-3.295-.389-2.175,1.048-4.252,3.223-4.641l.217-.035c113.829-19.546,196.447-117.699,196.447-233.388S410.192,42.157,296.363,22.623c-2.177-.374-3.639-2.441-3.266-4.619.374-2.177,2.439-3.639,4.619-3.266,56.207,9.646,107.631,39.01,144.798,82.682,37.592,44.171,58.295,100.49,58.295,158.58s-20.703,114.408-58.295,158.581c-37.167,43.673-88.591,73.04-144.798,82.691-.023.004-.118.019-.142.022-.238.043-.476.063-.71.063Z" stroke-width="0"/>
    <path d="m215.154,497.361c-.233,0-.47-.021-.708-.063-.012-.002-.116-.018-.128-.02-56.242-9.657-107.666-39.024-144.833-82.697-37.592-44.173-58.295-100.491-58.295-158.581s20.703-114.409,58.295-158.58C106.652,53.748,158.076,24.384,214.283,14.738c2.177-.373,4.245,1.088,4.619,3.266.374,2.178-1.088,4.246-3.266,4.619C101.808,42.157,19.19,140.307,19.19,256s82.618,213.842,196.447,233.388l.217.035c2.175.389,3.623,2.467,3.233,4.642-.346,1.937-2.032,3.297-3.933,3.297Z" stroke-width="0"/>
  </g>
</svg>