<?xml version="1.0" encoding="UTF-8"?>
<svg xmlns="http://www.w3.org/2000/svg" width="512" height="512" viewBox="0 0 512 512">
  <g id="c" data-name="CIRCLE LINES">
    <g>
      <path d="m123.187,388.523c-1.023,0-2.048-.391-2.828-1.172-36.231-36.23-56.185-84.402-56.185-135.641,0-46.803,17.044-91.879,47.992-126.925,1.461-1.656,3.988-1.814,5.646-.351,1.656,1.462,1.813,3.99.351,5.646-29.656,33.583-45.988,76.778-45.988,121.63,0,49.102,19.121,95.264,53.841,129.984,1.562,1.562,1.562,4.095,0,5.656-.78.781-1.805,1.172-2.828,1.172Z" stroke-width="0"/>
      <path d="m169.713,88.841c-1.446,0-2.843-.787-3.555-2.161-1.017-1.961-.25-4.375,1.712-5.392,27.028-14.005,57.503-21.408,88.13-21.408,2.209,0,4,1.791,4,4s-1.791,4-4,4c-29.771,0-58.184,6.901-84.45,20.512-.588.305-1.217.449-1.837.449Z" stroke-width="0"/>
    </g>
    <g>
      <path d="m388.813,388.523c-1.023,0-2.048-.391-2.828-1.172-1.562-1.562-1.562-4.095,0-5.656,34.72-34.721,53.841-80.883,53.841-129.984,0-44.852-16.332-88.047-45.988-121.63-1.463-1.655-1.306-4.184.351-5.646,1.656-1.464,4.185-1.306,5.646.351,30.948,35.046,47.992,80.122,47.992,126.925,0,51.238-19.953,99.41-56.185,135.641-.78.781-1.805,1.172-2.828,1.172Z" stroke-width="0"/>
      <path d="m342.287,88.841c-.62,0-1.249-.145-1.837-.449-26.267-13.61-54.68-20.512-84.45-20.512-2.209,0-4-1.791-4-4s1.791-4,4-4c30.627,0,61.102,7.403,88.13,21.408,1.962,1.017,2.729,3.431,1.712,5.392-.712,1.374-2.108,2.161-3.555,2.161Z" stroke-width="0"/>
    </g>
    <g>
      <path d="m204.187,463.873c-.318,0-.643-.038-.966-.118-46.508-11.533-88.607-38.684-118.544-76.45-30.858-38.929-47.169-85.82-47.169-135.604,0-2.209,1.791-4,4-4s4,1.791,4,4c0,96.975,65.646,180.981,159.639,204.289,2.144.532,3.451,2.701,2.92,4.846-.452,1.82-2.085,3.038-3.88,3.038Z" stroke-width="0"/>
      <path d="m470.442,255.7c-2.209,0-4-1.791-4-4,0-100.6-71.564-187.493-170.164-206.613-2.169-.421-3.586-2.52-3.165-4.688.42-2.167,2.51-3.585,4.688-3.165,102.353,19.848,176.641,110.044,176.641,214.467,0,2.209-1.791,4-4,4Z" stroke-width="0"/>
    </g>
    <g>
      <path d="m49.036,193.817c-.373,0-.751-.053-1.127-.162-2.119-.621-3.335-2.844-2.714-4.964,11.251-38.404,32.934-72.984,62.706-100.001,29.92-27.151,66.685-45.438,106.32-52.882,2.166-.405,4.262,1.022,4.67,3.193.407,2.171-1.022,4.262-3.193,4.67-78.122,14.672-140.513,71.103-162.825,147.269-.512,1.745-2.106,2.877-3.837,2.877Z" stroke-width="0"/>
      <path d="m306.663,462.668c-1.795,0-3.427-1.217-3.879-3.037-.533-2.144.773-4.313,2.918-4.846,76.254-18.941,135.124-78.142,153.638-154.497.521-2.146,2.679-3.463,4.83-2.945,2.147.521,3.466,2.684,2.945,4.83-9.37,38.643-29.228,74.054-57.429,102.405-28.19,28.343-63.481,48.389-102.057,57.971-.323.081-.647.119-.967.119Z" stroke-width="0"/>
    </g>
  </g>
  <g id="d" data-name="PLANETS">
    <path d="m465.331,304.81c-3.534,0-6.855-1.376-9.354-3.875s-3.874-5.819-3.874-9.354,1.376-6.855,3.875-9.354c5.156-5.158,13.551-5.158,18.707,0,5.157,5.158,5.157,13.551,0,18.707-2.498,2.499-5.819,3.875-9.354,3.875Zm0-18.454c-1.339,0-2.678.509-3.697,1.528-.987.988-1.531,2.301-1.531,3.697s.544,2.709,1.531,3.696,2.301,1.532,3.697,1.532,2.709-.544,3.696-1.531c2.039-2.038,2.039-5.355,0-7.395-1.019-1.019-2.357-1.528-3.696-1.528Z" stroke-width="0"/>
    <path d="m46.619,211.946c-3.388,0-6.775-1.289-9.354-3.868-2.499-2.498-3.875-5.819-3.875-9.354s1.376-6.855,3.874-9.354h0c2.498-2.499,5.82-3.875,9.354-3.875s6.855,1.376,9.354,3.875c5.157,5.157,5.157,13.55,0,18.707-2.578,2.579-5.966,3.868-9.354,3.868Zm0-18.45c-1.396,0-2.709.544-3.696,1.531t0,0c-.987.987-1.531,2.3-1.531,3.696s.544,2.709,1.531,3.696c2.039,2.039,5.355,2.038,7.395,0,2.038-2.039,2.038-5.355,0-7.395-.988-.987-2.301-1.531-3.697-1.531Zm-6.525-1.297h.01-.01Z" stroke-width="0"/>
  </g>
  <g id="e" data-name="SPARKS">
    <g>
      <g>
        <path d="m126.071,257.101h-13.305c-2.209,0-4-1.791-4-4s1.791-4,4-4h13.305c2.209,0,4,1.791,4,4s-1.791,4-4,4Z" stroke-width="0"/>
        <path d="m138.679,236.101c-1.023,0-2.048-.391-2.828-1.172l-9.407-9.407c-1.562-1.562-1.562-4.095,0-5.656,1.561-1.562,4.096-1.562,5.656,0l9.407,9.407c1.562,1.562,1.562,4.095,0,5.656-.78.781-1.805,1.172-2.828,1.172Z" stroke-width="0"/>
      </g>
      <g>
        <path d="m399.233,257.101h-13.305c-2.209,0-4-1.791-4-4s1.791-4,4-4h13.305c2.209,0,4,1.791,4,4s-1.791,4-4,4Z" stroke-width="0"/>
        <path d="m373.321,236.101c-1.023,0-2.048-.391-2.828-1.172-1.562-1.562-1.562-4.095,0-5.656l9.407-9.407c1.561-1.562,4.096-1.562,5.656,0,1.562,1.562,1.562,4.095,0,5.656l-9.407,9.407c-.78.781-1.805,1.172-2.828,1.172Z" stroke-width="0"/>
      </g>
    </g>
  </g>
  <g id="f" data-name="STARS">
    <g>
      <path d="m256,417.422c-1.755,0-3.306-1.145-3.822-2.821-2.193-7.112-7.748-12.667-14.859-14.86-1.677-.518-2.821-2.067-2.821-3.822s1.145-3.305,2.821-3.822c7.111-2.193,12.666-7.748,14.859-14.859.518-1.677,2.067-2.821,3.822-2.821s3.305,1.145,3.822,2.821c2.193,7.111,7.748,12.666,14.859,14.859,1.677.518,2.821,2.067,2.821,3.822s-1.145,3.305-2.821,3.822c-7.111,2.193-12.666,7.748-14.859,14.86-.517,1.677-2.067,2.821-3.822,2.821Zm-8.31-21.504c3.282,2.204,6.105,5.027,8.31,8.311,2.204-3.283,5.027-6.106,8.31-8.311-3.282-2.204-6.105-5.027-8.31-8.31-2.204,3.282-5.027,6.105-8.31,8.31Z" stroke-width="0"/>
      <path d="m256,155.299c-1.755,0-3.306-1.145-3.822-2.821-2.193-7.111-7.748-12.666-14.86-14.86-1.677-.518-2.82-2.067-2.82-3.822s1.145-3.305,2.821-3.822c7.111-2.193,12.666-7.748,14.859-14.859.517-1.677,2.067-2.821,3.822-2.821s3.306,1.145,3.822,2.821c2.193,7.111,7.748,12.666,14.859,14.859,1.677.518,2.821,2.067,2.821,3.822s-1.144,3.305-2.82,3.822c-7.112,2.194-12.667,7.749-14.86,14.86-.517,1.677-2.067,2.821-3.822,2.821Zm-8.311-21.504c3.284,2.205,6.106,5.027,8.311,8.311,2.204-3.283,5.026-6.105,8.311-8.311-3.283-2.204-6.106-5.026-8.311-8.31-2.204,3.283-5.027,6.105-8.311,8.31Z" stroke-width="0"/>
    </g>
  </g>
  <g id="g" data-name="BELLOW SYMBOL">
    <g>
      <path d="m256,453.075c-13.992,0-25.376-11.384-25.376-25.377v-17.168c0-2.209,1.791-4,4-4s4,1.791,4,4v17.168c0,9.582,7.795,17.377,17.376,17.377s17.376-7.795,17.376-17.377v-17.168c0-2.209,1.791-4,4-4s4,1.791,4,4v17.168c0,13.993-11.384,25.377-25.376,25.377Z" stroke-width="0"/>
      <path d="m256,470.256c-2.209,0-4-1.791-4-4v-49.724c0-2.209,1.791-4,4-4s4,1.791,4,4v49.724c0,2.209-1.791,4-4,4Z" stroke-width="0"/>
      <path d="m264.132,464.047h-16.264c-2.209,0-4-1.791-4-4s1.791-4,4-4h16.264c2.209,0,4,1.791,4,4s-1.791,4-4,4Z" stroke-width="0"/>
      <path d="m263.074,427.607c-1.023,0-2.048-.391-2.829-1.172l-4.245-4.246-4.245,4.246c-1.562,1.562-4.095,1.562-5.657,0-1.562-1.562-1.562-4.095,0-5.657l7.074-7.075c.751-.75,1.769-1.172,2.829-1.172s2.078.422,2.829,1.172l7.074,7.075c1.562,1.562,1.562,4.095,0,5.657-.781.78-1.805,1.171-2.828,1.171Z" stroke-width="0"/>
      <path d="m241.698,420.532c-1.023,0-2.048-.391-2.828-1.172l-4.246-4.246-4.247,4.247c-1.562,1.561-4.095,1.562-5.657,0-1.562-1.562-1.562-4.095,0-5.657l7.075-7.074c1.562-1.561,4.094-1.562,5.656,0l7.074,7.074c1.562,1.562,1.562,4.095,0,5.656-.78.781-1.805,1.172-2.828,1.172Z" stroke-width="0"/>
      <path d="m270.302,420.532c-1.023,0-2.048-.391-2.828-1.172-1.562-1.562-1.562-4.095,0-5.656l7.074-7.074c1.561-1.562,4.094-1.562,5.656,0l7.075,7.074c1.562,1.562,1.562,4.095,0,5.657-1.562,1.562-4.095,1.562-5.657,0l-4.247-4.247-4.246,4.246c-.78.781-1.805,1.172-2.828,1.172Z" stroke-width="0"/>
    </g>
  </g>
  <g id="h" data-name="TOP TRIANGLE SYMBOL">
    <g>
      <polygon points="256 44.897 275.717 15.158 236.283 15.158 256 44.897" fill="#fff" stroke-width="0"/>
      <path d="m256,48.897c-1.341,0-2.593-.672-3.334-1.79l-19.717-29.739c-.814-1.228-.887-2.804-.19-4.102.697-1.299,2.051-2.108,3.524-2.108h39.434c1.474,0,2.827.81,3.524,2.108.696,1.298.624,2.874-.19,4.102l-19.717,29.739c-.741,1.118-1.993,1.79-3.334,1.79Zm-12.266-29.739l12.266,18.5,12.266-18.5h-24.531Z" stroke-width="0"/>
    </g>
  </g>
  <g id="i" data-name="ZODIAC SIGN">
    <g>
      <g>
        <path d="m341.215,378.08c-2.943,0-5.886-1.123-8.132-3.368-33.042-33.042-51.239-76.974-51.239-123.702s18.197-90.661,51.239-123.703c4.492-4.49,11.771-4.49,16.264,0,4.491,4.491,4.491,11.772,0,16.264-59.242,59.242-59.242,155.636,0,214.878,4.491,4.491,4.491,11.772,0,16.264-2.246,2.245-5.188,3.368-8.132,3.368Z" stroke-width="0"/>
        <path d="m170.785,378.08c-2.943,0-5.886-1.123-8.132-3.368-4.491-4.491-4.491-11.772,0-16.264,59.242-59.242,59.242-155.636,0-214.878-4.491-4.491-4.491-11.772,0-16.264,4.492-4.49,11.771-4.49,16.264,0,33.042,33.042,51.239,76.974,51.239,123.703s-18.197,90.66-51.239,123.702c-2.246,2.245-5.188,3.368-8.132,3.368Z" stroke-width="0"/>
      </g>
      <path d="m340.467,262.509h-168.934c-6.352,0-11.5-5.148-11.5-11.5s5.148-11.5,11.5-11.5h168.934c6.352,0,11.5,5.148,11.5,11.5s-5.148,11.5-11.5,11.5Z" stroke-width="0"/>
    </g>
  </g>
  <g id="j" data-name="OUTER CIRCLE">
    <path d="m307.842,495.219c-1.838,0-3.493-1.274-3.903-3.144-.474-2.158.893-4.291,3.05-4.765,107.672-23.624,185.821-120.904,185.821-231.311,0-115.692-82.617-213.843-196.446-233.378-2.177-.374-3.64-2.441-3.266-4.619.373-2.178,2.438-3.638,4.619-3.266,56.207,9.646,107.631,39.011,144.798,82.683,37.592,44.172,58.295,100.489,58.295,158.58,0,56.14-19.479,110.988-54.85,154.442-34.87,42.839-83.615,72.913-137.257,84.683-.289.063-.577.094-.861.094Z" stroke-width="0"/>
    <path d="m201.966,494.728c-.296,0-.597-.033-.897-.103-53.114-12.178-101.314-42.379-135.723-85.04-34.923-43.3-54.155-97.844-54.155-153.585,0-58.091,20.703-114.408,58.295-158.58C106.652,53.748,158.076,24.384,214.283,14.737c2.176-.371,4.246,1.088,4.619,3.266.374,2.178-1.089,4.245-3.266,4.619C101.808,42.158,19.19,140.308,19.19,256c0,111.113,75.526,206.033,183.665,230.828,2.153.493,3.499,2.639,3.005,4.792-.425,1.853-2.072,3.107-3.895,3.107Z" stroke-width="0"/>
  </g>
</svg>