<?xml version="1.0" encoding="UTF-8"?>
<svg xmlns="http://www.w3.org/2000/svg" width="512" height="512" viewBox="0 0 512 512">
  <g id="c" data-name="CIRCLE LINES">
    <path d="m430.08,185.045c-1.579,0-3.075-.942-3.707-2.495-28.305-69.657-95.18-114.666-170.373-114.666-50.915,0-98.269,20.343-133.337,57.283-1.522,1.602-4.053,1.669-5.655.147-1.603-1.521-1.668-4.053-.147-5.655,17.738-18.684,38.644-33.384,62.136-43.692,24.321-10.672,50.229-16.083,77.004-16.083,38.916,0,76.385,11.589,108.357,33.514,31.221,21.409,55.228,51.196,69.428,86.14.831,2.047-.153,4.38-2.2,5.211-.493.201-1.003.295-1.505.295Z" stroke-width="0"/>
    <path d="m374.706,151.594c-1.359,0-2.684-.692-3.434-1.943-9.266-15.444-28.231-35.592-65.972-43.87-2.157-.474-3.523-2.606-3.05-4.764.474-2.158,2.61-3.52,4.765-3.05,40.525,8.89,61.042,30.775,71.116,47.569,1.137,1.894.522,4.351-1.372,5.488-.645.386-1.354.57-2.054.57Z" stroke-width="0"/>
    <path d="m215.153,439.083c-.287,0-.578-.031-.87-.096-41.932-9.3-80.024-32.89-107.261-66.424-27.631-34.021-42.849-76.94-42.849-120.853,0-12.747,1.259-25.493,3.741-37.886.434-2.166,2.538-3.574,4.707-3.136,2.167.434,3.571,2.542,3.137,4.708-2.379,11.876-3.585,24.094-3.585,36.314,0,85.504,60.494,160.981,143.842,179.466,2.156.479,3.518,2.614,3.039,4.771-.414,1.865-2.067,3.135-3.901,3.135Z" stroke-width="0"/>
    <path d="m296.846,439.083c-1.834,0-3.487-1.27-3.901-3.135-.479-2.157.883-4.293,3.039-4.771,32.414-7.188,62.347-23.141,86.562-46.131,1.603-1.521,4.134-1.453,5.655.147,1.521,1.602,1.455,4.134-.147,5.655-25.269,23.989-56.507,40.636-90.338,48.139-.292.064-.583.096-.87.096Z" stroke-width="0"/>
    <g>
      <path d="m97.898,110.79c-.967,0-1.936-.348-2.704-1.054-1.628-1.494-1.735-4.024-.241-5.651,2.131-2.321,4.341-4.627,6.567-6.854,1.561-1.562,4.096-1.562,5.656,0,1.562,1.562,1.562,4.095,0,5.657-2.146,2.146-4.276,4.369-6.331,6.607-.788.859-1.866,1.295-2.947,1.295Z" stroke-width="0"/>
      <path d="m84.29,384.252c-1.216,0-2.416-.552-3.202-1.599-28.099-37.438-43.157-82.086-43.548-129.116-.391-46.978,13.884-91.823,41.278-129.689,1.295-1.79,3.797-2.19,5.586-.896,1.79,1.295,2.191,3.795.896,5.585-53.444,73.871-52.545,176.393,2.186,249.313,1.326,1.768.969,4.274-.798,5.601-.72.54-1.562.801-2.398.801Z" stroke-width="0"/>
      <path d="m104.349,407.362c-1.023,0-2.048-.391-2.828-1.172-2.451-2.45-4.884-5.001-7.231-7.58-1.487-1.634-1.368-4.163.266-5.65,1.635-1.487,4.164-1.367,5.65.266,2.264,2.487,4.609,4.946,6.972,7.309,1.562,1.562,1.562,4.095,0,5.656-.78.781-1.805,1.172-2.828,1.172Z" stroke-width="0"/>
      <path d="m468.296,225.215c-1.959,0-3.67-1.439-3.955-3.435-4.956-34.692-18.627-67.826-39.535-95.819-1.321-1.77-.959-4.276.812-5.598,1.768-1.321,4.275-.959,5.599.811,21.707,29.063,35.9,63.461,41.045,99.476.312,2.187-1.207,4.213-3.395,4.525-.191.027-.382.041-.57.041Z" stroke-width="0"/>
      <path d="m414.098,110.785c-1.081,0-2.158-.436-2.947-1.294-2.05-2.233-4.179-4.455-6.328-6.604-1.562-1.562-1.562-4.095,0-5.657,1.562-1.562,4.095-1.561,5.657,0,2.228,2.229,4.436,4.533,6.562,6.849,1.494,1.627,1.387,4.158-.241,5.652-.768.706-1.737,1.054-2.704,1.054Z" stroke-width="0"/>
    </g>
    <path d="m308.032,463.823c-1.794,0-3.425-1.215-3.878-3.033-.534-2.144.77-4.314,2.913-4.849,40.357-10.059,76.567-31.742,104.715-62.706,1.485-1.634,4.016-1.755,5.65-.27,1.635,1.486,1.756,4.016.27,5.65-29.216,32.139-66.803,54.646-108.699,65.087-.325.081-.65.12-.971.12Z" stroke-width="0"/>
    <path d="m203.957,463.823c-.32,0-.646-.039-.971-.12-41.896-10.441-79.483-32.948-108.699-65.087-1.486-1.635-1.365-4.164.27-5.65,1.633-1.485,4.163-1.364,5.65.27,28.147,30.964,64.357,52.647,104.715,62.706,2.144.534,3.447,2.705,2.913,4.849-.453,1.818-2.085,3.033-3.878,3.033Z" stroke-width="0"/>
    <path d="m215.354,407.363c-.227,0-.455-.02-.686-.06-36.943-6.38-58.13-23.632-69.398-36.981-12.33-14.606-15.786-27.691-15.927-28.241-.55-2.14.74-4.319,2.88-4.868,2.134-.55,4.313.736,4.866,2.871.044.165,3.296,12.182,14.569,25.403,10.407,12.206,30.023,28.002,64.371,33.934,2.177.376,3.637,2.445,3.261,4.622-.336,1.946-2.026,3.32-3.937,3.32Z" stroke-width="0"/>
  </g>
  <g id="e" data-name="SPARKS">
    <g>
      <path d="m399.144,241.693h-13.305c-2.209,0-4-1.791-4-4s1.791-4,4-4h13.305c2.209,0,4,1.791,4,4s-1.791,4-4,4Z" stroke-width="0"/>
      <path d="m411.751,220.693c-1.023,0-2.048-.391-2.828-1.172l-9.407-9.408c-1.562-1.562-1.562-4.095,0-5.657,1.561-1.562,4.096-1.562,5.656,0l9.407,9.408c1.562,1.562,1.562,4.095,0,5.657-.78.781-1.805,1.171-2.828,1.171Z" stroke-width="0"/>
    </g>
  </g>
  <g id="f" data-name="STARS">
    <path d="m121.852,297.974h0c-1.755,0-3.305-1.145-3.822-2.821-2.193-7.111-7.748-12.666-14.859-14.859-1.677-.517-2.821-2.067-2.821-3.822s1.145-3.306,2.821-3.822c7.111-2.193,12.666-7.748,14.859-14.859.518-1.677,2.067-2.821,3.822-2.821s3.305,1.144,3.822,2.82c2.194,7.112,7.749,12.667,14.86,14.86,1.677.517,2.821,2.067,2.821,3.822s-1.145,3.306-2.821,3.822c-7.111,2.193-12.666,7.748-14.86,14.86-.518,1.677-2.067,2.82-3.822,2.82Zm-8.31-21.503c3.283,2.204,6.105,5.027,8.31,8.311,2.205-3.284,5.027-6.106,8.311-8.311-3.283-2.204-6.105-5.026-8.311-8.311-2.204,3.283-5.026,6.106-8.31,8.311Z" stroke-width="0"/>
  </g>
  <g id="g" data-name="BELLOW SYMBOL">
    <g>
      <g>
        <g>
          <path d="m281.663,454.355c0,14.173-11.49,25.663-25.663,25.663s-25.663-11.49-25.663-25.663" fill="#fff" stroke-width="0"/>
          <path d="m256,484.019c-16.356,0-29.663-13.307-29.663-29.663,0-2.209,1.791-4,4-4s4,1.791,4,4c0,11.945,9.718,21.663,21.663,21.663s21.663-9.718,21.663-21.663c0-2.209,1.791-4,4-4s4,1.791,4,4c0,16.356-13.307,29.663-29.663,29.663Z" stroke-width="0"/>
        </g>
        <path d="m256,505.395c-2.209,0-4-1.791-4-4v-21.376c0-2.209,1.791-4,4-4s4,1.791,4,4v21.376c0,2.209-1.791,4-4,4Z" stroke-width="0"/>
        <path d="m267.722,495.754h-23.443c-2.209,0-4-1.791-4-4s1.791-4,4-4h23.443c2.209,0,4,1.791,4,4s-1.791,4-4,4Z" stroke-width="0"/>
      </g>
      <g>
        <circle cx="256" cy="454.355" r="10.792" fill="#fff" stroke-width="0"/>
        <path d="m256,469.147c-8.156,0-14.792-6.636-14.792-14.792s6.636-14.792,14.792-14.792,14.792,6.636,14.792,14.792-6.636,14.792-14.792,14.792Zm0-21.584c-3.745,0-6.792,3.047-6.792,6.792s3.047,6.792,6.792,6.792,6.792-3.047,6.792-6.792-3.047-6.792-6.792-6.792Z" stroke-width="0"/>
      </g>
    </g>
  </g>
  <g id="h" data-name="TOP TRIANGLE SYMBOL">
    <g>
      <polygon points="256 44.897 275.717 15.158 236.283 15.158 256 44.897" fill="#fff" stroke-width="0"/>
      <path d="m256,48.897c-1.341,0-2.593-.672-3.334-1.79l-19.717-29.739c-.814-1.228-.887-2.804-.19-4.103.697-1.298,2.051-2.108,3.524-2.108h39.434c1.474,0,2.827.81,3.524,2.108.696,1.298.624,2.875-.19,4.103l-19.717,29.739c-.741,1.118-1.993,1.79-3.334,1.79Zm-12.266-29.739l12.266,18.5,12.266-18.5h-24.531Z" stroke-width="0"/>
    </g>
  </g>
  <g id="i" data-name="ZODIAC SIGN">
    <path d="m448.227,241.086c-4.298-1.779-9.243-.795-12.532,2.493l-33.971,33.971c-4.491,4.491-4.491,11.772,0,16.264,4.492,4.49,11.773,4.49,16.264,0l11.746-11.746c-2.154,12.428-5.644,24.572-10.448,36.324-5.46,13.355-18.455,21.984-33.11,21.984h-18.024c-8.329,0-15.105-6.776-15.105-15.105v-132.591c0-27.332-22.236-49.568-49.568-49.568-15.282,0-28.968,6.956-38.067,17.864-9.1-10.908-22.786-17.864-38.068-17.864s-28.968,6.956-38.067,17.864c-9.1-10.908-22.786-17.864-38.068-17.864-27.332,0-49.568,22.236-49.568,49.568,0,6.351,5.148,11.5,11.5,11.5s11.5-5.149,11.5-11.5c0-14.649,11.919-26.568,26.568-26.568s26.568,11.918,26.568,26.568v132.591c0,6.352,5.148,11.5,11.5,11.5s11.5-5.148,11.5-11.5v-132.591c0-14.649,11.918-26.568,26.567-26.568s26.568,11.918,26.568,26.568v189.517c0,6.352,5.148,11.5,11.5,11.5s11.5-5.148,11.5-11.5v-189.517c0-14.649,11.918-26.568,26.567-26.568s26.568,11.918,26.568,26.568v132.591c0,21.012,17.094,38.105,38.105,38.105h18.025c24.035,0,45.389-14.241,54.398-36.281,9.789-23.941,14.752-49.305,14.752-75.384,0-4.651-2.802-8.845-7.1-10.625Z" stroke-width="0"/>
  </g>
  <g id="j" data-name="OUTER CIRCLE">
    <path d="m296.956,497.343c-1.933,0-3.673-1.384-3.995-3.34-.357-2.161,1.033-4.198,3.189-4.581l.21-.034c113.831-19.545,196.449-117.699,196.449-233.388S410.192,42.157,296.363,22.623c-2.177-.374-3.64-2.441-3.266-4.619.373-2.177,2.438-3.639,4.619-3.266,56.207,9.646,107.631,39.01,144.798,82.682,37.592,44.171,58.295,100.49,58.295,158.58s-20.703,114.408-58.295,158.581c-37.167,43.673-88.59,73.04-144.798,82.691-.023.004-.123.02-.147.023-.206.031-.411.047-.613.047Z" stroke-width="0"/>
    <path d="m215.155,497.361c-.232,0-.467-.021-.704-.062-.014-.002-.124-.02-.139-.021-56.237-9.656-107.66-39.023-144.827-82.696-37.592-44.173-58.295-100.491-58.295-158.581s20.703-114.409,58.295-158.58C106.652,53.748,158.076,24.384,214.283,14.738c2.185-.373,4.246,1.088,4.619,3.266.374,2.178-1.089,4.246-3.266,4.619C101.808,42.157,19.19,140.307,19.19,256s82.618,213.843,196.446,233.388l.213.034c2.175.386,3.625,2.462,3.239,4.638-.344,1.938-2.031,3.302-3.934,3.302Z" stroke-width="0"/>
  </g>
</svg>