<?xml version="1.0" encoding="UTF-8"?>
<svg xmlns="http://www.w3.org/2000/svg" width="512" height="512" viewBox="0 0 512 512">
  <g id="c" data-name="CIRCLE LINES">
    <path d="m256,443.537c-105.773,0-191.826-86.053-191.826-191.826S150.227,59.884,256,59.884s191.826,86.053,191.826,191.826-86.053,191.826-191.826,191.826Zm0-375.652c-101.362,0-183.826,82.464-183.826,183.826s82.464,183.826,183.826,183.826,183.826-82.464,183.826-183.826-82.464-183.826-183.826-183.826Z" stroke-width="0"/>
    <path d="m72.003,145.881c-.7,0-1.409-.184-2.054-.57-1.895-1.136-2.509-3.593-1.373-5.488,7.813-13.027,17.06-25.31,27.483-36.505,1.505-1.618,4.036-1.708,5.653-.202,1.617,1.505,1.708,4.037.202,5.653-10.043,10.788-18.952,22.62-26.479,35.169-.75,1.25-2.075,1.943-3.434,1.943Z" stroke-width="0"/>
    <path d="m55.355,331.833c-1.617,0-3.14-.988-3.744-2.591-9.934-26.367-14.631-54.077-13.962-82.36.671-28.348,6.701-55.852,17.924-81.748.878-2.027,3.233-2.958,5.26-2.08,2.027.879,2.958,3.234,2.08,5.261-21.548,49.722-22.939,107.35-3.816,158.107.779,2.067-.266,4.375-2.333,5.153-.464.175-.941.258-1.41.258Z" stroke-width="0"/>
    <path d="m98.419,401.507c-1.077,0-2.151-.432-2.939-1.286-11.619-12.578-21.73-26.476-30.053-41.308-1.081-1.927-.396-4.365,1.531-5.446,1.925-1.08,4.364-.397,5.446,1.531,8.017,14.288,17.758,27.676,28.953,39.794,1.499,1.623,1.399,4.153-.224,5.652-.77.711-1.743,1.062-2.713,1.062Z" stroke-width="0"/>
    <g>
      <path d="m439.997,145.881c-1.359,0-2.684-.693-3.434-1.943-7.334-12.228-15.984-23.781-25.71-34.34-1.497-1.625-1.393-4.155.232-5.652,1.624-1.497,4.155-1.394,5.652.232,10.095,10.958,19.073,22.951,26.687,35.645,1.136,1.895.522,4.352-1.373,5.488-.645.387-1.354.57-2.054.57Z" stroke-width="0"/>
      <path d="m456.645,331.833c-.469,0-.945-.083-1.41-.258-2.067-.779-3.112-3.086-2.333-5.153,19.123-50.758,17.732-108.385-3.816-158.107-.878-2.027.053-4.382,2.08-5.261,2.025-.878,4.382.053,5.26,2.08,11.223,25.896,17.253,53.4,17.924,81.748.669,28.283-4.028,55.993-13.962,82.36-.604,1.603-2.126,2.591-3.744,2.591Z" stroke-width="0"/>
      <path d="m414.399,400.616c-.963,0-1.93-.346-2.697-1.047-1.631-1.49-1.746-4.02-.255-5.651,10.856-11.884,20.327-24.978,28.149-38.919,1.082-1.927,3.521-2.611,5.445-1.531,1.927,1.081,2.612,3.519,1.531,5.445-8.121,14.474-17.951,28.066-29.219,40.4-.789.864-1.87,1.302-2.954,1.302Z" stroke-width="0"/>
    </g>
  </g>
  <g id="d" data-name="PLANETS">
    <path d="m105.941,416.073c-7.294,0-13.228-5.934-13.228-13.228s5.934-13.229,13.228-13.229,13.229,5.934,13.229,13.229-5.934,13.228-13.229,13.228Zm0-18.457c-2.883,0-5.228,2.346-5.228,5.229s2.345,5.228,5.228,5.228,5.229-2.345,5.229-5.228-2.346-5.229-5.229-5.229Z" stroke-width="0"/>
    <path d="m407.596,416.073c-7.294,0-13.229-5.934-13.229-13.228s5.934-13.229,13.229-13.229,13.229,5.934,13.229,13.229-5.934,13.228-13.229,13.228Zm0-18.457c-2.883,0-5.229,2.346-5.229,5.229s2.346,5.228,5.229,5.228,5.229-2.345,5.229-5.228-2.346-5.229-5.229-5.229Z" stroke-width="0"/>
    <g>
      <path d="m105.941,113.288c-7.294,0-13.228-5.934-13.228-13.229s5.934-13.228,13.228-13.228,13.229,5.934,13.229,13.228-5.934,13.229-13.229,13.229Zm0-18.457c-2.883,0-5.228,2.345-5.228,5.228s2.345,5.229,5.228,5.229,5.229-2.346,5.229-5.229-2.346-5.228-5.229-5.228Z" stroke-width="0"/>
      <path d="m407.596,113.288c-7.294,0-13.229-5.934-13.229-13.229s5.934-13.228,13.229-13.228,13.229,5.934,13.229,13.228-5.934,13.229-13.229,13.229Zm0-18.457c-2.883,0-5.229,2.345-5.229,5.228s2.346,5.229,5.229,5.229,5.229-2.346,5.229-5.229-2.346-5.228-5.229-5.228Z" stroke-width="0"/>
    </g>
  </g>
  <g id="f" data-name="STARS">
    <g>
      <path d="m386.879,251.278c-1.755,0-3.305-1.144-3.822-2.821-2.193-7.112-7.749-12.667-14.86-14.86-1.677-.517-2.821-2.067-2.821-3.822s1.144-3.305,2.821-3.822c7.111-2.193,12.667-7.748,14.86-14.859.517-1.677,2.067-2.821,3.822-2.821h0c1.755,0,3.305,1.144,3.822,2.821,2.193,7.111,7.748,12.666,14.859,14.859,1.677.517,2.821,2.067,2.821,3.822s-1.144,3.305-2.821,3.822c-7.112,2.193-12.667,7.749-14.86,14.86-.517,1.677-2.067,2.821-3.822,2.821Zm-8.311-21.503c3.283,2.204,6.106,5.028,8.311,8.311,2.204-3.283,5.027-6.106,8.31-8.311-3.283-2.204-6.106-5.027-8.31-8.31-2.204,3.283-5.028,6.106-8.311,8.31Z" stroke-width="0"/>
      <path d="m125.121,251.278h0c-1.755,0-3.305-1.144-3.822-2.821-2.193-7.111-7.748-12.667-14.86-14.86-1.677-.517-2.821-2.067-2.821-3.822s1.144-3.305,2.821-3.822c7.111-2.193,12.666-7.748,14.859-14.859.517-1.677,2.067-2.821,3.822-2.821s3.305,1.144,3.822,2.821c2.193,7.111,7.749,12.667,14.86,14.859,1.677.517,2.821,2.067,2.821,3.822s-1.144,3.305-2.821,3.822c-7.111,2.193-12.667,7.749-14.86,14.86-.517,1.677-2.067,2.821-3.822,2.821Zm-8.31-21.503c3.283,2.204,6.106,5.028,8.31,8.311,2.204-3.283,5.028-6.106,8.311-8.311-3.283-2.204-6.106-5.027-8.311-8.31-2.204,3.283-5.027,6.106-8.31,8.31Z" stroke-width="0"/>
    </g>
    <path d="m256,170.963c-1.755,0-3.305-1.144-3.822-2.821-3.502-11.356-12.373-20.227-23.729-23.729-1.677-.517-2.821-2.067-2.821-3.822s1.144-3.305,2.821-3.822c11.356-3.502,20.227-12.373,23.729-23.729.517-1.677,2.067-2.821,3.822-2.821s3.305,1.144,3.822,2.821c3.502,11.356,12.373,20.227,23.729,23.729,1.677.517,2.821,2.067,2.821,3.822s-1.144,3.305-2.821,3.822c-11.356,3.502-20.227,12.373-23.729,23.729-.517,1.677-2.067,2.821-3.822,2.821Zm-16.367-30.373c6.822,3.891,12.476,9.545,16.367,16.367,3.891-6.822,9.545-12.476,16.367-16.367-6.822-3.891-12.476-9.545-16.367-16.367-3.891,6.822-9.545,12.476-16.367,16.367Z" stroke-width="0"/>
  </g>
  <g id="g" data-name="BELLOW SYMBOL">
    <g>
      <g>
        <circle cx="256" cy="463.377" r="10.792" fill="#fff" stroke-width="0"/>
        <path d="m256,478.169c-8.157,0-14.792-6.636-14.792-14.792s6.636-14.792,14.792-14.792,14.792,6.636,14.792,14.792-6.636,14.792-14.792,14.792Zm0-21.585c-3.746,0-6.792,3.047-6.792,6.792s3.047,6.792,6.792,6.792,6.792-3.047,6.792-6.792-3.047-6.792-6.792-6.792Z" stroke-width="0"/>
      </g>
      <path d="m256,502.266c-2.209,0-4-1.791-4-4v-24.097c0-2.209,1.791-4,4-4s4,1.791,4,4v24.097c0,2.209-1.791,4-4,4Z" stroke-width="0"/>
      <path d="m267.722,492.626h-23.443c-2.209,0-4-1.791-4-4s1.791-4,4-4h23.443c2.209,0,4,1.791,4,4s-1.791,4-4,4Z" stroke-width="0"/>
    </g>
  </g>
  <g id="h" data-name="TOP TRIANGLE SYMBOL">
    <g>
      <polygon points="256 44.897 275.717 15.158 236.283 15.158 256 44.897" fill="#fff" stroke-width="0"/>
      <path d="m256,48.897c-1.341,0-2.593-.672-3.334-1.79l-19.716-29.739c-.814-1.228-.887-2.804-.19-4.103.697-1.298,2.051-2.108,3.524-2.108h39.433c1.473,0,2.828.81,3.524,2.108.697,1.298.624,2.875-.19,4.103l-19.716,29.739c-.741,1.118-1.993,1.79-3.334,1.79Zm-12.265-29.739l12.265,18.5,12.265-18.5h-24.53Z" stroke-width="0"/>
    </g>
    <path d="m279.759,32.949h-47.518c-2.209,0-4-1.791-4-4s1.791-4,4-4h47.518c2.209,0,4,1.791,4,4s-1.791,4-4,4Z" stroke-width="0"/>
  </g>
  <g id="i" data-name="ZODIAC SIGN">
    <path d="m378.36,138.52c-22.38,0-43.08,11.17-55.37,29.87l-16.08,24.47c-8.02,12.21-21.53,19.5-36.14,19.5h-29.54c-14.61,0-28.12-7.29-36.14-19.5l-16.08-24.47c-12.29-18.7-32.99-29.87-55.37-29.87-6.35,0-11.5,5.15-11.5,11.5s5.15,11.5,11.5,11.5c14.61,0,28.12,7.29,36.15,19.5l16.08,24.47c5.51,8.38,12.71,15.25,20.99,20.28-28.6,16.87-47.83,48.01-47.83,83.56,0,53.47,43.5,96.96,96.97,96.96s96.97-43.49,96.97-96.96c0-35.55-19.23-66.69-47.83-83.56,8.28-5.03,15.48-11.9,20.99-20.28l16.08-24.47c8.03-12.21,21.54-19.5,36.15-19.5,6.35,0,11.5-5.14,11.5-11.5s-5.15-11.5-11.5-11.5Zm-48.39,170.81c0,40.78-33.18,73.96-73.97,73.96s-73.97-33.18-73.97-73.96,33.18-73.97,73.97-73.97,73.97,33.18,73.97,73.97Z" stroke-width="0"/>
  </g>
  <g id="j" data-name="OUTER CIRCLE">
    <path d="m296.937,497.346c-1.94,0-3.678-1.399-3.99-3.368-.345-2.175,1.087-4.213,3.261-4.566.011-.001.117-.019.128-.02,113.856-19.549,196.474-117.703,196.474-233.392S410.192,42.157,296.363,22.623c-2.177-.374-3.639-2.441-3.266-4.619.374-2.177,2.44-3.64,4.619-3.266,56.207,9.646,107.631,39.01,144.798,82.682,37.592,44.171,58.295,100.49,58.295,158.58s-20.703,114.409-58.295,158.581c-37.167,43.673-88.591,73.04-144.798,82.691-.022.004-.14.022-.163.026-.207.032-.414.047-.618.047Z" stroke-width="0"/>
    <path d="m215.155,497.36c-.213,0-.429-.017-.647-.052l-.19-.03c-56.242-9.657-107.666-39.024-144.833-82.697-37.592-44.172-58.295-100.491-58.295-158.581s20.703-114.409,58.295-158.58C106.652,53.748,158.076,24.384,214.283,14.738c2.178-.374,4.245,1.089,4.619,3.266.374,2.178-1.088,4.246-3.266,4.619C101.808,42.157,19.19,140.307,19.19,256s82.618,213.843,196.447,233.388l.155.024c2.18.354,3.661,2.41,3.306,4.59-.319,1.963-2.017,3.358-3.943,3.358Z" stroke-width="0"/>
  </g>
</svg>