<?xml version="1.0" encoding="UTF-8"?>
<svg xmlns="http://www.w3.org/2000/svg" width="512" height="512" viewBox="0 0 512 512">
  <g id="c" data-name="CIRCLE LINES">
    <path d="m296.646,439.131c-1.836,0-3.49-1.272-3.902-3.139-.476-2.157.887-4.292,3.044-4.769,30.788-6.794,59.52-21.591,83.091-42.789,1.642-1.479,4.172-1.343,5.649.299,1.477,1.643,1.343,4.172-.299,5.648-24.596,22.121-54.583,37.562-86.717,44.654-.29.063-.58.095-.866.095Z" stroke-width="0"/>
    <path d="m427.601,332.189c-.545,0-1.098-.112-1.628-.349-2.018-.9-2.923-3.266-2.022-5.283,10.537-23.603,15.879-48.785,15.879-74.848,0-101.364-82.466-183.83-183.83-183.83-53.072,0-103.555,22.947-138.502,62.956-1.455,1.664-3.981,1.834-5.644.381-1.664-1.454-1.834-3.98-.381-5.644,36.467-41.749,89.146-65.693,144.527-65.693,105.775,0,191.83,86.055,191.83,191.83,0,27.193-5.576,53.474-16.574,78.109-.664,1.487-2.125,2.37-3.655,2.37Z" stroke-width="0"/>
    <g>
      <path d="m96.269,112.584c-.952,0-1.907-.337-2.67-1.023-1.644-1.476-1.78-4.005-.305-5.648,2.648-2.951,5.417-5.872,8.227-8.682,1.562-1.562,4.095-1.562,5.657,0,1.562,1.562,1.562,4.095,0,5.657-2.709,2.709-5.377,5.525-7.931,8.369-.79.88-1.882,1.328-2.978,1.328Z" stroke-width="0"/>
      <path d="m104.349,407.362c-1.024,0-2.047-.391-2.829-1.172-37.219-37.219-59.75-86.597-63.444-139.038-3.657-51.918,11.272-103.44,42.039-145.076,1.312-1.777,3.817-2.154,5.594-.84,1.777,1.312,2.153,3.817.84,5.594-61.308,82.969-52.439,200.636,20.629,273.704,1.562,1.562,1.562,4.095,0,5.656-.781.781-1.805,1.172-2.829,1.172Z" stroke-width="0"/>
      <path d="m407.651,407.362c-1.024,0-2.047-.391-2.828-1.171-1.562-1.562-1.562-4.095,0-5.657,2.727-2.728,5.406-5.556,7.963-8.406,1.475-1.645,4.005-1.781,5.648-.307,1.645,1.475,1.782,4.004.307,5.648-2.653,2.958-5.433,5.892-8.261,8.721-.781.781-1.805,1.172-2.829,1.172Z" stroke-width="0"/>
      <path d="m427.079,385.088c-.842,0-1.691-.265-2.414-.812-1.761-1.335-2.105-3.844-.771-5.604,63.112-83.237,54.914-201.799-19.071-275.783-1.562-1.562-1.562-4.095,0-5.657,1.562-1.562,4.095-1.562,5.657,0,37.551,37.552,60.114,87.386,63.531,140.322,3.386,52.45-12.149,104.284-43.742,145.952-.787,1.037-1.981,1.583-3.19,1.583Z" stroke-width="0"/>
    </g>
    <path d="m215.354,439.131c-.286,0-.576-.031-.866-.095-41.98-9.265-80.123-32.845-107.403-66.396-27.674-34.037-42.915-76.983-42.915-120.93,0-13.458,1.402-26.897,4.167-39.946.458-2.161,2.58-3.541,4.742-3.084,2.161.458,3.542,2.581,3.084,4.742-2.649,12.504-3.993,25.387-3.993,38.288,0,85.598,60.579,161.094,144.042,179.514,2.157.477,3.521,2.611,3.044,4.769-.412,1.866-2.066,3.139-3.902,3.139Z" stroke-width="0"/>
    <path d="m215.355,407.363c-.226,0-.455-.02-.686-.06-36.943-6.38-58.131-23.632-69.4-36.981-12.329-14.606-15.786-27.691-15.927-28.241-.549-2.14.74-4.319,2.88-4.868,2.139-.549,4.313.736,4.866,2.871.043.165,3.296,12.182,14.569,25.403,10.408,12.206,30.024,28.002,64.372,33.934,2.177.376,3.637,2.445,3.261,4.622-.336,1.946-2.027,3.32-3.937,3.32Z" stroke-width="0"/>
    <path d="m374.706,151.594c-1.359,0-2.684-.692-3.434-1.943-9.266-15.444-28.232-35.592-65.971-43.87-2.158-.474-3.523-2.606-3.05-4.764.474-2.158,2.61-3.524,4.764-3.05,40.525,8.889,61.042,30.775,71.118,47.569,1.136,1.894.522,4.351-1.373,5.488-.644.386-1.354.57-2.054.57Z" stroke-width="0"/>
    <path d="m227.522,278.565c-2.209,0-4-1.791-4-4v-49.305c0-2.209,1.791-4,4-4s4,1.791,4,4v49.305c0,2.209-1.791,4-4,4Z" stroke-width="0"/>
    <path d="m302.652,278.565c-2.209,0-4-1.791-4-4v-49.305c0-2.209,1.791-4,4-4s4,1.791,4,4v49.305c0,2.209-1.791,4-4,4Z" stroke-width="0"/>
    <path d="m279.759,32.949h-47.518c-2.209,0-4-1.791-4-4s1.791-4,4-4h47.518c2.209,0,4,1.791,4,4s-1.791,4-4,4Z" stroke-width="0"/>
  </g>
  <g id="e" data-name="SPARKS">
    <g>
      <path d="m288.707,389.181c-2.209,0-4-1.791-4-4v-13.305c0-2.209,1.791-4,4-4s4,1.791,4,4v13.305c0,2.209-1.791,4-4,4Z" stroke-width="0"/>
      <path d="m258.299,372.676c-1.024,0-2.047-.391-2.829-1.172-1.562-1.562-1.562-4.095,0-5.656l9.408-9.407c1.562-1.562,4.095-1.562,5.657,0,1.562,1.562,1.562,4.095,0,5.656l-9.408,9.407c-.781.781-1.805,1.172-2.828,1.172Z" stroke-width="0"/>
    </g>
  </g>
  <g id="f" data-name="STARS">
    <path d="m121.852,297.974c-1.755,0-3.305-1.145-3.822-2.821-2.193-7.111-7.749-12.666-14.86-14.859-1.677-.518-2.821-2.067-2.821-3.822s1.144-3.305,2.821-3.822c7.111-2.193,12.667-7.748,14.86-14.859.517-1.677,2.067-2.821,3.822-2.821s3.305,1.144,3.822,2.821c2.193,7.111,7.749,12.666,14.86,14.859,1.677.517,2.821,2.067,2.821,3.822s-1.144,3.306-2.821,3.822c-7.111,2.193-12.667,7.748-14.86,14.859-.517,1.677-2.067,2.821-3.822,2.821Zm-8.31-21.503c3.283,2.204,6.106,5.027,8.31,8.31,2.204-3.282,5.027-6.105,8.31-8.31-3.283-2.204-6.106-5.027-8.31-8.31-2.204,3.282-5.027,6.105-8.31,8.31Z" stroke-width="0"/>
  </g>
  <g id="g" data-name="BELLOW SYMBOL">
    <g>
      <g>
        <circle cx="256" cy="465.361" r="10.255" fill="#fff" stroke-width="0"/>
        <path d="m256,479.616c-7.86,0-14.255-6.395-14.255-14.255s6.395-14.255,14.255-14.255,14.255,6.395,14.255,14.255-6.395,14.255-14.255,14.255Zm0-20.51c-3.449,0-6.255,2.806-6.255,6.255s2.806,6.255,6.255,6.255,6.255-2.806,6.255-6.255-2.806-6.255-6.255-6.255Z" stroke-width="0"/>
      </g>
      <g>
        <path d="m266.792,444.314c0,5.96-4.832,10.792-10.792,10.792s-10.792-4.832-10.792-10.792" fill="#fff" stroke-width="0"/>
        <path d="m256,459.106c-8.157,0-14.792-6.636-14.792-14.793,0-2.209,1.791-4,4-4s4,1.791,4,4c0,3.746,3.047,6.793,6.792,6.793s6.792-3.047,6.792-6.793c0-2.209,1.791-4,4-4s4,1.791,4,4c0,8.157-6.636,14.793-14.792,14.793Z" stroke-width="0"/>
      </g>
      <path d="m256,501.305c-2.209,0-4-1.791-4-4v-21.688c0-2.209,1.791-4,4-4s4,1.791,4,4v21.688c0,2.209-1.791,4-4,4Z" stroke-width="0"/>
      <path d="m267.722,492.465h-23.443c-2.209,0-4-1.791-4-4s1.791-4,4-4h23.443c2.209,0,4,1.791,4,4s-1.791,4-4,4Z" stroke-width="0"/>
    </g>
  </g>
  <g id="h" data-name="TOP TRIANGLE SYMBOL">
    <g>
      <polygon points="256 44.897 275.717 15.158 236.283 15.158 256 44.897" fill="#fff" stroke-width="0"/>
      <path d="m256,48.897c-1.341,0-2.593-.672-3.334-1.79l-19.716-29.739c-.814-1.228-.887-2.804-.19-4.103.697-1.298,2.051-2.108,3.524-2.108h39.433c1.473,0,2.828.81,3.524,2.108.697,1.298.624,2.875-.19,4.103l-19.716,29.739c-.741,1.118-1.993,1.79-3.334,1.79Zm-12.265-29.739l12.265,18.5,12.265-18.5h-24.53Z" stroke-width="0"/>
    </g>
  </g>
  <g id="i" data-name="ZODIAC SIGN">
    <path d="m400.79,285.2c15.76-35.9,10.59-77.81-4.12-94.43-10.61-11.98-21.79-14.35-29.32-14.23-5.84.09-11.2,1.63-15.86,3.8-5.5-21.38-24.94-37.23-48.01-37.23-15.28,0-28.98,6.96-38.07,17.87-9.09-10.91-22.79-17.87-38.07-17.87s-28.98,6.96-38.06,17.87c-9.1-10.91-22.79-17.87-38.07-17.87-27.34,0-49.57,22.24-49.57,49.57,0,6.35,5.15,11.5,11.5,11.5s11.5-5.15,11.5-11.5c0-14.65,11.92-26.57,26.57-26.57s26.56,11.92,26.56,26.57v132.59c0,6.35,5.15,11.5,11.5,11.5s11.5-5.15,11.5-11.5v-132.59c0-14.65,11.92-26.57,26.57-26.57s26.57,11.92,26.57,26.57v132.59c0,6.35,5.15,11.5,11.5,11.5s11.5-5.15,11.5-11.5v-132.59c0-14.65,11.92-26.57,26.57-26.57s26.56,11.92,26.56,26.57v124.69c-7.25,1.83-15.43,2.94-24.65,3.11-6.35.12-11.41,5.37-11.29,11.72.12,6.27,5.25,11.28,11.5,11.28h.22c9.64-.18,18.76-1.27,27.29-3.22,5.84,13.58,19.35,23.12,35.04,23.12h10c6.35,0,11.5-5.15,11.5-11.5s-5.15-11.5-11.5-11.5h-10c-5.62,0-10.53-3.08-13.12-7.64,20.55-9.72,36.23-25.83,45.76-47.54Zm-47.75,22.44v-100.87c3.37-3.03,9.11-7.15,14.67-7.24,1.47-.02,5.91-.09,11.73,6.49,7.03,7.94,13.51,39.82.29,69.93-4.76,10.83-12.87,22.86-26.69,31.69Z" stroke-width="0"/>
  </g>
  <g id="j" data-name="OUTER CIRCLE">
    <path d="m296.865,497.358c-1.902,0-3.596-1.358-3.942-3.295-.389-2.175,1.048-4.252,3.223-4.641l.217-.035c113.829-19.546,196.447-117.699,196.447-233.388S410.192,42.157,296.363,22.623c-2.177-.374-3.639-2.441-3.266-4.619.374-2.177,2.44-3.639,4.619-3.266,56.207,9.646,107.631,39.01,144.798,82.682,37.592,44.171,58.295,100.49,58.295,158.58s-20.703,114.408-58.295,158.581c-37.167,43.673-88.591,73.04-144.798,82.691-.023.004-.118.019-.142.022-.238.043-.476.063-.71.063Z" stroke-width="0"/>
    <path d="m215.154,497.361c-.233,0-.47-.021-.708-.063-.012-.002-.116-.018-.128-.02-56.242-9.657-107.666-39.024-144.833-82.697-37.592-44.173-58.295-100.491-58.295-158.581s20.703-114.409,58.295-158.58C106.652,53.748,158.076,24.384,214.283,14.738c2.178-.373,4.245,1.088,4.619,3.266.374,2.178-1.088,4.246-3.266,4.619C101.808,42.157,19.19,140.307,19.19,256s82.618,213.842,196.447,233.388l.217.035c2.175.389,3.623,2.467,3.233,4.642-.346,1.937-2.032,3.297-3.933,3.297Z" stroke-width="0"/>
  </g>
</svg>