<?xml version="1.0" encoding="UTF-8"?>
<svg id="Layer_2" data-name="Layer 2" xmlns="http://www.w3.org/2000/svg" viewBox="0 0 637.06 636.96">
  <defs>
    <style>
      .cls-1 {
        fill: #fff;
      }
    </style>
  </defs>
  <g id="Layer_1-2" data-name="Layer 1">
    <g id="arca-white">
      <path class="cls-1" d="M606.88,453.64c20.02-42.48,30.17-87.99,30.17-135.2,0-83.63-32.28-162.66-90.88-222.59C487.67,36.05,409.55,1.97,326.24,0h-15.11c-83.4,1.93-161.61,35.91-220.16,95.75C32.28,155.68,0,234.76,0,318.44c0,47.35,10.19,92.95,30.31,135.57l12.03,23.01.14.28c56.85,98.46,162.66,159.68,276.05,159.68s219.15-61.22,276.05-159.77l12.17-23.28.14-.28ZM584.2,471.27c-54.88,94.88-156.65,153.71-265.67,153.71s-210.84-58.83-265.62-153.57l-11.76-22.55c-19.38-41.1-29.21-84.91-29.21-130.42C11.94,153.2,146.22,15.75,311.23,11.99h14.74c164.96,4,299.1,141.45,299.1,306.45,0,45.37-9.74,89.09-28.93,130.01l-11.94,22.82Z"/>
      <path class="cls-1" d="M99.01,477.75c51.07,70.17,133.13,112.05,219.52,112.05s168.45-41.88,219.52-112.05l6.89-9.51H92.08l6.93,9.51ZM521.24,480.23l-4.82,5.65c-49.6,58.46-121.7,91.99-197.89,91.99s-148.29-33.52-197.89-91.99l-4.82-5.65h405.42Z"/>
      <path class="cls-1" d="M225.26,338.46c0,51.43,41.84,93.27,93.27,93.27s93.27-41.84,93.27-93.27-41.84-93.27-93.27-93.27-93.27,41.84-93.27,93.27ZM399.81,338.46c0,44.82-36.46,81.33-81.29,81.33s-81.33-36.51-81.33-81.33,36.51-81.29,81.33-81.29,81.29,36.46,81.29,81.29Z"/>
      <path class="cls-1" d="M189.21,433.06v-151.41l-93.68,151.41h93.68ZM170.84,334.05l6.38-10.29v97.31h-60.21l3.26-5.28,50.56-81.74Z"/>
      <path class="cls-1" d="M279.63,49.87C147.09,69.02,47.16,184.48,47.16,318.44c0,28.93,4.59,57.54,13.73,85.05l4,12.17L292.31,48.04l-12.68,1.84ZM264.15,70.81L72.7,380.34l-4.36,7.03-1.93-8.04c-4.82-19.89-7.3-40.37-7.3-60.9,0-119.63,84.68-225.95,201.33-252.81l8.04-1.84-4.32,7.03Z"/>
      <path class="cls-1" d="M403.35,209.14l-84.64-136.85-84.68,136.85h169.32ZM315.77,99.79l2.94-4.78,2.89,4.78,56.99,92.12,3.26,5.24h-126.34l3.26-5.24,56.99-92.12Z"/>
      <path class="cls-1" d="M447.85,281.1v151.96h94.01l-94.01-151.96ZM459.84,323.21l6.38,10.33,50.88,82.25,3.26,5.28h-60.53v-97.86Z"/>
      <path class="cls-1" d="M523.03,140.25c-42.71-48.95-101.4-81.01-165.23-90.33l-12.72-1.84,227.19,367.25,4.04-12.17c9-27.42,13.59-55.94,13.59-84.73,0-65.49-23.74-128.77-66.87-178.18ZM570.74,378.96l-1.93,8.04-4.36-7.03L373.27,70.91l-4.36-7.07,8.08,1.88c116.42,27,200.92,133.27,200.92,252.72,0,20.39-2.39,40.73-7.16,60.53Z"/>
    </g>
  </g>
</svg>